<?xml version="1.0" standalone="no"?>
<!DOCTYPE svg PUBLIC "-//W3C//DTD SVG 1.1//EN" "http://www.w3.org/Graphics/SVG/1.1/DTD/svg11.dtd" >
<svg xmlns="http://www.w3.org/2000/svg" xmlns:xlink="http://www.w3.org/1999/xlink" version="1.1">
<metadata>
Created by FontForge 20150824 at Thu Mar 31 22:33:28 2016
 By Everything Fonts
(c) 2011 Klim Type Foundry. All rights reserved.
</metadata>
<defs>
<font id="Calibre-Bold" horiz-adv-x="520" >
  <font-face 
    font-family="Copyright Klim Type Foundry"
    font-weight="700"
    font-stretch="normal"
    units-per-em="1000"
    panose-1="2 0 0 0 0 0 0 0 0 0"
    ascent="800"
    descent="-200"
    x-height="450"
    cap-height="614"
    bbox="-120 -236 978 923"
    underline-thickness="78"
    underline-position="-85"
    unicode-range="U+000D-FB00"
  />
<missing-glyph horiz-adv-x="199" 
 />
    <glyph glyph-name="f_f" unicode="ff" horiz-adv-x="640" 
d="M630 519q-9 5 -18 7t-20 2q-25 0 -40 -13.5t-15 -40.5v-24h86v-123h-86v-327h-156v327h-145v-327h-156v327h-67v123h67v27q0 41 12 73t34 55t55 35.5t74 12.5q23 0 41 -3.5t33 -8.5v-128q-9 5 -18 7t-20 2q-24 0 -39.5 -12.5t-15.5 -37.5v-22h145v33q0 41 12 73t34.5 55
t55 35.5t73.5 12.5q23 0 41 -3.5t33 -8.5v-128z" />
    <glyph glyph-name=".notdef" horiz-adv-x="199" 
 />
    <glyph glyph-name="NULL" horiz-adv-x="0" 
 />
    <glyph glyph-name="NULL" horiz-adv-x="0" 
 />
    <glyph glyph-name="nonmarkingreturn" unicode="&#xd;" horiz-adv-x="199" 
 />
    <glyph glyph-name="space" unicode=" " horiz-adv-x="199" 
 />
    <glyph glyph-name="lslash" unicode="&#x142;" horiz-adv-x="292" 
d="M224 0h-157v236l-50 -30v115l50 29v300h157v-222l52 31v-115l-52 -30v-314z" />
    <glyph glyph-name="Scaron" unicode="&#x160;" horiz-adv-x="543" 
d="M179 182q10 -32 35.5 -47.5t63.5 -15.5q18 0 33.5 4t26 11.5t17 18.5t6.5 25q0 22 -14.5 33t-43.5 18l-118 25q-34 7 -63.5 20t-50.5 33.5t-33 49.5t-12 68q0 45 18 82t50 62.5t75 40t93 14.5q57 0 101 -14.5t75.5 -40t50.5 -59.5t26 -74h-158q-9 26 -31.5 42.5
t-62.5 16.5q-17 0 -31 -3t-24 -10.5t-15.5 -17t-5.5 -22.5q0 -10 3 -18t10 -14t16.5 -10t21.5 -7l120 -28q79 -19 121 -62.5t42 -114.5q0 -47 -18.5 -84t-51 -62t-76 -38.5t-94.5 -13.5q-111 0 -182 50.5t-87 141.5h167zM104 796h127l42 -46l41 46h127l-109 -133h-119z" />
    <glyph glyph-name="scaron" unicode="&#x161;" horiz-adv-x="448" 
d="M169 139q5 -19 20.5 -28.5t36.5 -9.5q10 0 18 1.5t14 5.5t9.5 9.5t3.5 13.5q0 13 -8.5 18.5t-26.5 9.5l-87 18q-57 12 -90.5 42t-33.5 89q0 36 15 64.5t41 48t60.5 29.5t74.5 10q93 0 144 -39.5t60 -106.5h-145q-3 15 -15 25.5t-39 10.5q-17 0 -30 -7.5t-13 -22.5
q0 -10 8 -16t23 -9l90 -21q61 -15 93.5 -47.5t32.5 -87.5q0 -36 -15.5 -64t-42 -46.5t-62.5 -28.5t-77 -10q-43 0 -79.5 9.5t-64.5 28.5t-45.5 46.5t-22.5 64.5h153zM284 498h-120l-96 151h116l40 -55l39 55h117z" />
    <glyph glyph-name="Yacute" unicode="&#xdd;" horiz-adv-x="612" 
d="M438 614h168l-221 -396v-218h-161v218l-219 396h174l130 -240zM225 666l82 130h160l-88 -130h-154z" />
    <glyph glyph-name="yacute" unicode="&#xfd;" horiz-adv-x="503" 
d="M110 -159l66 170l-169 439h163l87 -256l83 256h156l-232 -609h-154zM180 500l82 150h149l-87 -150h-144z" />
    <glyph glyph-name="Thorn" unicode="&#xde;" horiz-adv-x="562" 
d="M205 101v-101h-159v614h159v-89h110q50 0 91 -13.5t70.5 -40.5t46 -66.5t16.5 -91.5q0 -51 -16.5 -90.5t-46 -66.5t-70.5 -41t-91 -14h-110zM382 313q0 35 -20 56t-64 21h-93v-154h93q44 0 64 21t20 56z" />
    <glyph glyph-name="thorn" unicode="&#xfe;" horiz-adv-x="528" 
d="M199 -159h-157v809h157v-236q8 9 20 17.5t26 14.5t31 10t34 4q48 0 85.5 -18.5t63 -50.5t38.5 -75t13 -91t-13 -90.5t-38.5 -75t-63 -51t-85.5 -18.5q-17 0 -34 4t-31 10t-26 14.5t-20 17.5v-195zM199 166q9 -19 27.5 -30.5t41.5 -11.5q20 0 36 8t26.5 21t16.5 31.5
t6 40.5t-6 40.5t-16.5 32t-26.5 21t-36 7.5q-24 0 -42 -11.5t-27 -30.5v-118z" />
    <glyph glyph-name="eth" unicode="&#xf0;" horiz-adv-x="496" 
d="M107 542l61 19q-17 14 -36 29q-36 29 -74 56v4h193q30 -23 55 -46l80 25l24 -66l-48 -15q35 -41 59 -85q28 -51 42.5 -106t14.5 -115q0 -59 -17 -105.5t-47 -79t-72.5 -50t-93.5 -17.5t-93.5 17t-72.5 48t-47 74t-17 95t16.5 94.5t46 72.5t70 46.5t88.5 16.5
q14 0 25.5 -4t19.5 -10h3q-11 19 -34 43q-11 12 -23 23l-97 -30zM324 223q0 23 -5 42.5t-15 33t-24 21t-32 7.5t-32 -7.5t-23.5 -21t-14.5 -33t-5 -42.5q0 -22 5 -41.5t14.5 -33t23.5 -21t32 -7.5t32 7.5t24 21t15 33t5 41.5z" />
    <glyph glyph-name="Zcaron" unicode="&#x17d;" horiz-adv-x="562" 
d="M528 0h-494v119l285 357h-281v138h486v-118l-281 -357h285v-139zM125 796h127l42 -46l41 46h127l-109 -133h-119z" />
    <glyph glyph-name="zcaron" unicode="&#x17e;" horiz-adv-x="456" 
d="M424 0h-393v103l198 224h-192v123h384v-103l-190 -224h193v-123zM299 498h-120l-96 151h116l40 -55l39 55h117z" />
    <glyph glyph-name="onehalf" unicode="&#xbd;" horiz-adv-x="725" 
d="M182 0h-92l420 614h92zM215 264h-104v233l-86 -42v105l115 54h75v-350zM583 238q0 10 -7 17.5t-19 7.5q-13 0 -20.5 -8.5t-7.5 -19.5h-110q3 25 13 46.5t27.5 38t41.5 26t54 9.5q60 0 96 -30.5t36 -81.5q0 -35 -19 -59t-45 -48l-51 -47h114v-89h-264v68l128 120
q16 15 24.5 25.5t8.5 24.5z" />
    <glyph glyph-name="onequarter" unicode="&#xbc;" horiz-adv-x="720" 
d="M182 0h-92l420 614h92zM215 264h-104v233l-86 -42v105l115 54h75v-350zM507 144h46v51h91v-51h47v-87h-47v-57h-91v57h-158v81l105 212h102z" />
    <glyph glyph-name="onesuperior" unicode="&#xb9;" horiz-adv-x="241" 
d="M204 264h-104v233l-86 -42v105l115 54h75v-350z" />
    <glyph glyph-name="threequarters" unicode="&#xbe;" horiz-adv-x="749" 
d="M212 0h-93l420 614h93zM135 476h24q16 0 26.5 7t10.5 23q0 12 -7.5 20.5t-22.5 8.5t-23.5 -11t-10.5 -24h-101q3 24 12.5 45.5t26.5 37.5t40.5 26t52.5 10q62 0 96 -30.5t34 -81.5q0 -20 -10 -39.5t-24 -28.5q18 -9 28 -27.5t10 -38.5q0 -52 -35 -83.5t-98 -31.5
q-61 0 -97 33.5t-39 88.5h106q2 -15 10 -25t24 -10q14 0 22.5 8t8.5 22q0 16 -10 22.5t-26 6.5h-28v72zM536 144h47v51h90v-51h47v-87h-47v-57h-90v57h-159v81l106 212h101z" />
    <glyph glyph-name="threesuperior" unicode="&#xb3;" horiz-adv-x="301" 
d="M120 476h24q16 0 26.5 7t10.5 23q0 12 -7.5 20.5t-22.5 8.5t-23.5 -11t-10.5 -24h-101q3 24 12.5 45.5t26.5 37.5t40.5 26t52.5 10q62 0 96 -30.5t34 -81.5q0 -20 -10 -39.5t-24 -28.5q18 -9 28 -27.5t10 -38.5q0 -52 -35 -83.5t-98 -31.5q-61 0 -97 33.5t-39 88.5h106
q2 -15 10 -25t24 -10q14 0 22.5 8t8.5 22q0 16 -10 22.5t-26 6.5h-28v72z" />
    <glyph glyph-name="twosuperior" unicode="&#xb2;" horiz-adv-x="311" 
d="M185 501q0 11 -7 18.5t-19 7.5q-13 0 -20.5 -8.5t-7.5 -19.5h-110q3 25 13 46.5t27.5 38t41.5 26t54 9.5q60 0 96 -31t36 -81q0 -35 -19.5 -59t-44.5 -48l-51 -47h114v-89h-264v68l128 119q15 15 24 26t9 24z" />
    <glyph glyph-name="minus" unicode="&#x2212;" horiz-adv-x="555" 
d="M51 357h453v-116h-453v116z" />
    <glyph glyph-name="multiply" unicode="&#xd7;" horiz-adv-x="494" 
d="M45 418l82 82l120 -120l120 120l82 -82l-120 -120l120 -120l-82 -81l-120 120l-120 -120l-82 81l121 120z" />
    <glyph glyph-name="Lslash" unicode="&#x141;" horiz-adv-x="524" 
d="M11 318l49 21v275h161v-217l121 49v-125l-121 -48v-134h275v-139h-436v213l-49 -19v124z" />
    <glyph glyph-name="exclam" unicode="!" horiz-adv-x="239" 
d="M26 82q0 18 7.5 34.5t20 28.5t29.5 18.5t36 6.5q20 0 37 -6.5t29.5 -18.5t20 -28.5t7.5 -34.5q0 -19 -7.5 -35.5t-20 -28t-29.5 -18.5t-37 -7q-19 0 -36 7t-29.5 18.5t-20 28t-7.5 35.5zM24 614h191l-35 -408h-121z" />
    <glyph glyph-name="quotedbl" unicode="&#x22;" horiz-adv-x="357" 
d="M36 614h121v-259h-121v259zM200 614h121v-259h-121v259z" />
    <glyph glyph-name="numbersign" unicode="#" horiz-adv-x="635" 
d="M548 156h-102l-37 -156h-113l37 156h-104l-37 -156h-112l37 156h-97l23 99h97l25 104h-100l22 99h102l37 156h113l-38 -156h104l38 156h112l-37 -156h97l-23 -99h-98l-25 -104h101zM253 255h104l25 104h-104z" />
    <glyph glyph-name="dollar" unicode="$" horiz-adv-x="518" 
d="M337 435q-9 23 -30 37.5t-54 14.5q-16 0 -29 -4t-21.5 -10.5t-13.5 -15.5t-5 -20q0 -10 3.5 -17.5t9.5 -13.5t15 -9.5t20 -6.5l109 -28q74 -18 113 -60t39 -112q0 -44 -17.5 -79t-47.5 -58.5t-72 -36.5q-14 -5 -29 -8v-94h-128v95q-56 11 -98 41q-66 47 -81 134h156
q10 -29 33.5 -43t57.5 -14q16 0 29 4t22.5 10.5t14.5 16.5t5 22q0 23 -14.5 34t-45.5 18l-98 24q-32 7 -59 19.5t-47 32.5t-31.5 48t-11.5 67q0 42 16.5 76.5t46 59t69.5 37.5q17 6 36 9v91h128v-95q9 -2 17 -4q40 -13 69 -35.5t47 -55t26 -71.5h-149z" />
    <glyph glyph-name="percent" unicode="%" horiz-adv-x="681" 
d="M493 614h90l-395 -614h-90zM117 476q0 -10 4 -20t11.5 -17t17 -11t20.5 -4t21 4t17 11t11.5 17t4.5 20q0 22 -16 38.5t-38 16.5q-11 0 -20.5 -4.5t-17 -12t-11.5 -17.5t-4 -21zM657 138q0 -31 -11.5 -58t-31 -47t-46 -31.5t-57.5 -11.5q-30 0 -57.5 11.5t-47 31.5t-31 47
t-11.5 58q0 30 11.5 56.5t31 46.5t47 31t57.5 11q31 0 57.5 -11t46 -31t31 -46.5t11.5 -56.5zM317 476q0 -30 -11.5 -56.5t-31 -46.5t-46.5 -31t-58 -11t-57.5 11t-46 31t-31 46.5t-11.5 56.5q0 31 11.5 58t31 47t46 31.5t57.5 11.5t58 -11.5t46.5 -31.5t31 -47t11.5 -58z
M564 138q0 10 -4 20t-11.5 17t-17 11t-20.5 4t-20.5 -4t-17 -11t-12 -17t-4.5 -20q0 -22 16 -38.5t38 -16.5q11 0 20.5 4.5t17 12t11.5 17.5t4 21z" />
    <glyph glyph-name="ampersand" unicode="&#x26;" horiz-adv-x="609" 
d="M345 451q-1 19 -13 34.5t-37 15.5t-39.5 -14.5t-14.5 -37.5q0 -22 13.5 -40.5t30.5 -38.5l117 -136l1 2q15 40 16 89h137q0 -70 -26 -131q-15 -36 -36 -66l111 -128h-177l-31 34q-17 -10 -36 -18q-56 -26 -117 -26q-48 0 -88.5 13.5t-69 39t-44 61t-15.5 81.5q0 30 10 58
t27.5 51t41.5 40q8 6 16 11q-8 13 -15 25q-9 19 -13 38t-4 41q0 40 15 72t42 55t64.5 35.5t83.5 12.5t82.5 -13.5t62 -36.5t40 -55t17.5 -68h-152zM190 238q-9 -10 -14.5 -23.5t-5.5 -29.5t5.5 -29t15 -23t24 -16t32.5 -6q33 0 63 15q2 0 3 1l-110 123q-7 -5 -13 -12z" />
    <glyph glyph-name="quotesingle" unicode="'" horiz-adv-x="201" 
d="M36 614h129v-259h-129v259z" />
    <glyph glyph-name="parenleft" unicode="(" horiz-adv-x="334" 
d="M30 283q0 71 20 131.5t56.5 108t89 80t118.5 47.5v-147q-31 -11 -56.5 -29.5t-44.5 -45.5t-29.5 -63t-10.5 -82t10.5 -82t29.5 -63t44.5 -45.5t56.5 -29.5v-147q-66 15 -118.5 47.5t-89 80t-56.5 108t-20 131.5z" />
    <glyph glyph-name="parenright" unicode=")" horiz-adv-x="334" 
d="M304 283q0 -71 -20 -131.5t-56.5 -108t-89.5 -80t-118 -47.5v147q31 11 56.5 29.5t44.5 45.5t29.5 63t10.5 82t-10.5 82t-29.5 63t-44.5 45.5t-56.5 29.5v147q65 -15 118 -47.5t89.5 -80t56.5 -108t20 -131.5z" />
    <glyph glyph-name="asterisk" unicode="*" horiz-adv-x="345" 
d="M24 543l38 64l73 -43v86h75v-86l73 43l38 -64l-75 -43l75 -43l-38 -64l-73 43v-86h-75v86l-73 -43l-38 64l74 43z" />
    <glyph glyph-name="plus" unicode="+" horiz-adv-x="555" 
d="M51 357h169v169h116v-169h168v-116h-168v-168h-116v168h-169v116z" />
    <glyph glyph-name="comma" unicode="," horiz-adv-x="223" 
d="M87 10q-28 5 -48 26t-20 56q0 38 26.5 63t66.5 25q37 0 64.5 -25t27.5 -73q0 -28 -11 -54t-27 -50l-55 -83h-99z" />
    <glyph glyph-name="hyphen" unicode="-" horiz-adv-x="313" 
d="M36 328h241v-132h-241v132z" />
    <glyph glyph-name="period" unicode="." horiz-adv-x="223" 
d="M19 87q0 40 26.5 66.5t65.5 26.5q19 0 36.5 -7t29.5 -19.5t19.5 -29.5t7.5 -37t-7.5 -37t-19.5 -29.5t-29.5 -20t-36.5 -7.5t-36 7.5t-29 20t-19.5 29.5t-7.5 37z" />
    <glyph glyph-name="slash" unicode="/" horiz-adv-x="394" 
d="M253 650h136l-248 -734h-136z" />
    <glyph glyph-name="zero" unicode="0" horiz-adv-x="560" 
d="M280 -10q-57 0 -104 23t-80.5 65t-52 100.5t-18.5 128.5t18.5 128.5t52 100.5t80.5 65t104 23q56 0 103 -23t81 -65t52.5 -100.5t18.5 -128.5t-18.5 -128.5t-52.5 -100.5t-81 -65t-103 -23zM280 483q-27 0 -46 -14t-31 -38t-17.5 -56.5t-5.5 -67.5t5.5 -67.5t17.5 -56.5
t31 -38t46 -14q26 0 45 14t31 38t17 56.5t5 67.5t-5 67.5t-17 56.5t-31 38t-45 14z" />
    <glyph glyph-name="one" unicode="1" horiz-adv-x="368" 
d="M312 0h-156v440l-143 -70v153l191 91h108v-614z" />
    <glyph glyph-name="two" unicode="2" horiz-adv-x="491" 
d="M299 423q0 25 -15.5 41t-41.5 16q-29 0 -44 -18t-17 -43h-166q4 43 22 80t46.5 65t68.5 44t89 16q50 0 91 -14t69.5 -38.5t44 -60t15.5 -78.5q0 -30 -9.5 -55.5t-25.5 -49t-37.5 -45.5t-44.5 -45l-101 -99h221v-139h-446v103l211 210q16 16 29 30.5t22 27.5t14 25.5
t5 26.5z" />
    <glyph glyph-name="three" unicode="3" horiz-adv-x="487" 
d="M193 368h33q16 0 30.5 4t24.5 11.5t16.5 19t6.5 27.5q0 26 -16.5 43t-46.5 17q-32 0 -50 -20t-21 -48h-153q4 41 22 78t47.5 64.5t69.5 43.5t91 16q48 0 87 -14t66 -38.5t41.5 -59.5t14.5 -76q0 -20 -5.5 -39.5t-14 -35.5t-21 -29.5t-26.5 -21.5q18 -9 32.5 -22.5
t23.5 -30t14 -36t5 -40.5q0 -41 -15.5 -76t-43.5 -60.5t-68.5 -40t-91.5 -14.5q-53 0 -95.5 15t-73 42t-48 65.5t-20.5 84.5h160q3 -31 21.5 -51.5t53.5 -20.5q30 0 49 17.5t19 46.5q0 15 -6 27.5t-16.5 20.5t-25.5 12t-32 4h-38v115z" />
    <glyph glyph-name="four" unicode="4" horiz-adv-x="524" 
d="M188 244h97v104h138v-104h84v-130h-84v-114h-138v114h-267v118l186 382h153z" />
    <glyph glyph-name="five" unicode="5" horiz-adv-x="497" 
d="M252 279q-23 0 -40 -9t-30 -23h-130v367h378v-137h-249v-92q14 8 38.5 15t54.5 7q47 0 84 -15t63 -42t40 -64.5t14 -83.5q0 -47 -16 -86.5t-44.5 -67.5t-69.5 -43t-91 -15q-52 0 -94 15t-71.5 42t-47.5 65.5t-21 84.5h157q3 -33 23 -52.5t55 -19.5q16 0 29.5 5.5
t22.5 15.5t14 24.5t5 31.5q0 16 -4.5 30t-14.5 24.5t-24 16.5t-31 6z" />
    <glyph glyph-name="six" unicode="6" horiz-adv-x="517" 
d="M181 202q0 -19 6.5 -34t17.5 -26t26.5 -17t33.5 -6t33 6t26.5 17t17.5 26t6 34q0 18 -6 34t-17.5 27t-26.5 17t-33 6t-33.5 -6t-26.5 -17t-17.5 -26.5t-6.5 -34.5zM335 446q-7 21 -22 34t-42 13q-21 0 -37.5 -10t-28 -25.5t-19 -37t-9.5 -49.5l-1 -7v-5q7 10 18 18
t25.5 14.5t32 10t37.5 3.5q47 0 84.5 -16t64 -42.5t40.5 -63t14 -77.5q0 -46 -16 -85.5t-45.5 -68.5t-71.5 -45.5t-95 -16.5q-60 0 -108.5 26t-79.5 76q-28 41 -39.5 90.5t-11.5 110.5q0 72 16.5 132.5t47.5 105t77 69t104 24.5q92 0 147 -48t70 -130h-152z" />
    <glyph glyph-name="seven" unicode="7" horiz-adv-x="467" 
d="M257 0h-162l179 476h-261v138h431v-108z" />
    <glyph glyph-name="eight" unicode="8" horiz-adv-x="509" 
d="M255 114q16 0 30 4.5t24.5 14t16.5 21.5t6 28t-6 28.5t-16.5 21t-24.5 13.5t-30 5q-17 0 -31 -5t-24.5 -13.5t-16.5 -21t-6 -28.5t6 -28t16.5 -21.5t24.5 -14t31 -4.5zM255 378q14 0 26.5 4t22 12.5t14.5 20t5 25.5q0 15 -5 26.5t-14.5 20t-22 13t-26.5 4.5
q-15 0 -27.5 -4.5t-21.5 -13t-14.5 -20t-5.5 -26.5q0 -14 5.5 -25.5t14.5 -20t21.5 -12.5t27.5 -4zM255 -10q-48 0 -90.5 12t-74 35.5t-49.5 56.5t-18 76q0 27 7.5 49.5t21 41t31.5 31t39 20.5q-37 18 -58 53t-21 80q0 43 17 76.5t46.5 56.5t67.5 34.5t81 11.5
q42 0 80.5 -11.5t67.5 -34.5t46.5 -56.5t17.5 -76.5q0 -45 -21.5 -80t-58.5 -53q21 -8 39 -20.5t31.5 -31t21 -41t7.5 -49.5q0 -43 -18 -76t-49.5 -56.5t-74 -35.5t-89.5 -12z" />
    <glyph glyph-name="nine" unicode="9" horiz-adv-x="518" 
d="M337 412q0 19 -6.5 34t-17.5 26t-26.5 17t-33.5 6t-33 -6t-26.5 -17t-17.5 -26t-6 -34q0 -18 6 -34t17.5 -27t26.5 -17t33 -6t33.5 6t26.5 17t17.5 26.5t6.5 34.5zM183 168q7 -21 22 -34t42 -13q21 0 37.5 10t28 25.5t19 37t9.5 49.5l1 7v5q-7 -10 -18 -18t-25.5 -14.5
t-32 -10t-37.5 -3.5q-47 0 -84.5 16t-64 42.5t-40.5 63t-14 77.5q0 46 16 85.5t45.5 68.5t71.5 45.5t95 16.5q60 0 108.5 -26t79.5 -76q28 -41 39.5 -90.5t11.5 -110.5q0 -72 -16.5 -132.5t-47.5 -105t-77 -69t-104 -24.5q-92 0 -147 48t-70 130h152z" />
    <glyph glyph-name="colon" unicode=":" horiz-adv-x="223" 
d="M19 352q0 40 26.5 67t65.5 27q19 0 36.5 -7.5t29.5 -20t19.5 -29.5t7.5 -37t-7.5 -37t-19.5 -29.5t-29.5 -20t-36.5 -7.5t-36 7.5t-29 20t-19.5 29.5t-7.5 37zM19 87q0 40 26.5 66.5t65.5 26.5q19 0 36.5 -7t29.5 -19.5t19.5 -29.5t7.5 -37t-7.5 -37t-19.5 -29.5
t-29.5 -20t-36.5 -7.5t-36 7.5t-29 20t-19.5 29.5t-7.5 37z" />
    <glyph glyph-name="semicolon" unicode=";" horiz-adv-x="223" 
d="M87 10q-28 5 -48 26t-20 56q0 38 26.5 63t66.5 25q37 0 64.5 -25t27.5 -73q0 -28 -11 -54t-27 -50l-55 -83h-99zM19 352q0 40 26.5 67t65.5 27q19 0 36.5 -7.5t29.5 -20t19.5 -29.5t7.5 -37t-7.5 -37t-19.5 -29.5t-29.5 -20t-36.5 -7.5t-36 7.5t-29 20t-19.5 29.5
t-7.5 37z" />
    <glyph glyph-name="less" unicode="&#x3c;" horiz-adv-x="434" 
d="M42 369l345 153v-129l-236 -96l236 -95v-130l-345 153v144z" />
    <glyph glyph-name="equal" unicode="=" horiz-adv-x="573" 
d="M60 261h453v-103h-453v103zM60 445h453v-105h-453v105z" />
    <glyph glyph-name="greater" unicode="&#x3e;" horiz-adv-x="434" 
d="M393 225l-346 -153v130l236 95l-236 96v129l346 -153v-144z" />
    <glyph glyph-name="question" unicode="?" horiz-adv-x="476" 
d="M154 82q0 19 7.5 35t20 28t29.5 18.5t37 6.5q40 0 67 -24.5t27 -63.5q0 -38 -27 -63.5t-67 -25.5q-20 0 -37 7t-29.5 18.5t-20 28t-7.5 35.5zM456 440q0 -28 -9.5 -52t-24 -45t-32 -40t-33.5 -39q-17 -20 -22.5 -33.5t-5.5 -24.5h-156q0 14 2.5 25.5t8 23.5t15 26
t24.5 31q13 16 25.5 30.5t22 27.5t15.5 26t6 28q0 25 -15.5 40t-40.5 15q-28 0 -43 -17.5t-17 -42.5h-162q4 43 21 80t46 65t69.5 44t92.5 16q48 0 87 -13t67 -36.5t43.5 -57.5t15.5 -77z" />
    <glyph glyph-name="at" unicode="@" horiz-adv-x="759" 
d="M538 148q-4 -21 2.5 -31t23.5 -10q22 0 39.5 11t30.5 32.5t20 52.5t7 71q0 53 -20 94t-54.5 69.5t-81.5 43.5t-102 15q-66 0 -121.5 -22.5t-95 -62.5t-61.5 -96.5t-22 -124.5q0 -78 28.5 -130.5t72 -83t97 -43.5t103.5 -13q70 0 123 13.5t101 34.5v-76q-38 -19 -96.5 -33
t-127.5 -14q-74 0 -143 20.5t-122.5 62.5t-86 107t-32.5 155q0 79 27.5 148t78 121t121 82t156.5 30q75 0 137 -22.5t106 -62.5t68.5 -94.5t24.5 -117.5q0 -62 -16.5 -107.5t-45 -76.5t-66.5 -46t-81 -15q-35 0 -66 12.5t-49 37.5q-17 -24 -44.5 -36t-55.5 -12
q-33 0 -58.5 12t-43 32.5t-26.5 48.5t-9 61q0 42 13.5 81t38 68.5t58.5 47t76 17.5q28 0 51.5 -10.5t33.5 -25.5l6 28h125zM430 259q-4 13 -17 22t-31 9q-16 0 -29.5 -7.5t-23 -20t-15.5 -30t-6 -36.5q0 -25 12.5 -40.5t38.5 -15.5q20 0 33.5 10t22.5 23z" />
    <glyph glyph-name="A" unicode="A" horiz-adv-x="646" 
d="M405 614l234 -614h-163l-44 119h-223l-43 -119h-159l233 614h165zM257 251h127l-63 173z" />
    <glyph glyph-name="B" unicode="B" horiz-adv-x="557" 
d="M432 317q22 -7 40 -21t31.5 -33t21 -42t7.5 -49q0 -84 -53.5 -128t-150.5 -44h-282v614h264q97 0 150.5 -42t53.5 -125q0 -25 -6.5 -46t-17.5 -37.5t-26 -28.5t-32 -18zM292 371q35 0 53 13.5t18 42.5t-18 42t-53 13h-93v-111h93zM199 132h108q34 0 52.5 16.5t18.5 42.5
q0 28 -18.5 44t-52.5 16h-108v-119z" />
    <glyph glyph-name="C" unicode="C" horiz-adv-x="603" 
d="M22 307q0 70 22 128t61 100t93.5 65.5t118.5 23.5q58 0 103.5 -16.5t78.5 -45t54 -68t29 -86.5h-160q-12 34 -37.5 54.5t-67.5 20.5q-32 0 -56.5 -13.5t-41.5 -37t-26 -55.5t-9 -70t9 -70t26 -55t41.5 -36.5t56.5 -13.5q42 0 67.5 20t37.5 55h160q-8 -47 -29 -87
t-54 -68.5t-78.5 -45t-103.5 -16.5q-64 0 -118.5 23.5t-93.5 65.5t-61 100t-22 128z" />
    <glyph glyph-name="D" unicode="D" horiz-adv-x="610" 
d="M271 139q37 0 66.5 12t50 34t31 53t10.5 69q0 39 -10.5 70t-31 53t-50 34t-66.5 12h-67v-337h67zM46 614h232q73 0 130 -21.5t97 -61.5t61.5 -97t21.5 -127t-21.5 -127t-61.5 -97t-97 -61.5t-130 -21.5h-232v614z" />
    <glyph glyph-name="E" unicode="E" 
d="M486 614v-138h-282v-96h257v-135h-257v-106h282v-139h-440v614h440z" />
    <glyph glyph-name="F" unicode="F" horiz-adv-x="509" 
d="M46 0v614h432v-139h-273v-122h251v-136h-251v-217h-159z" />
    <glyph glyph-name="G" unicode="G" horiz-adv-x="624" 
d="M347 208v120h255v-61q0 -64 -20 -115t-56.5 -87.5t-87.5 -55.5t-112 -19q-67 0 -123 23.5t-96 65t-62.5 100t-22.5 128.5t22.5 128.5t62.5 100t95.5 65t122.5 23.5q59 0 105.5 -16t80.5 -45t55.5 -68.5t29.5 -86.5h-164q-12 35 -38 55t-69 20q-34 0 -60 -13.5t-44 -36.5
t-27.5 -55.5t-9.5 -70.5q0 -39 9.5 -71.5t28.5 -55.5t45 -36t59 -13q46 0 75.5 21t40.5 56h-95z" />
    <glyph glyph-name="H" unicode="H" horiz-adv-x="651" 
d="M605 614v-614h-161v243h-237v-243h-161v614h161v-233h237v233h161z" />
    <glyph glyph-name="I" unicode="I" horiz-adv-x="253" 
d="M207 0h-161v614h161v-614z" />
    <glyph glyph-name="J" unicode="J" horiz-adv-x="540" 
d="M178 218q3 -41 23.5 -62.5t56.5 -21.5q22 0 38 6.5t26 19.5t14.5 32t4.5 45v377h161v-378q0 -64 -18 -110.5t-51 -76.5t-77.5 -44.5t-96.5 -14.5q-56 0 -100.5 16.5t-76 47t-48.5 72t-19 92.5h163z" />
    <glyph glyph-name="K" unicode="K" horiz-adv-x="609" 
d="M207 362l198 252h189l-215 -269l224 -345h-190l-154 236l-52 -65v-171h-161v614h161v-252z" />
    <glyph glyph-name="L" unicode="L" horiz-adv-x="510" 
d="M46 614h161v-475h275v-139h-436v614z" />
    <glyph glyph-name="M" unicode="M" horiz-adv-x="752" 
d="M324 0l-128 365v-365h-150v614h196l135 -381l134 381h195v-614h-150v365l-127 -365h-105z" />
    <glyph glyph-name="N" unicode="N" horiz-adv-x="634" 
d="M588 0h-130l-257 358v-358h-155v614h151l236 -337v337h155v-614z" />
    <glyph glyph-name="O" unicode="O" horiz-adv-x="644" 
d="M622 307q0 -69 -22 -127t-61.5 -100t-95 -66t-122.5 -24q-66 0 -121 24t-94.5 66t-61.5 100t-22 127t22 127t61.5 100.5t94.5 66t121 23.5q67 0 122.5 -23.5t95 -66t61.5 -100.5t22 -127zM460 307q0 40 -10 72t-28 55.5t-44 36t-57 12.5t-56 -12.5t-43.5 -36t-28 -55.5
t-9.5 -72t9.5 -72t28 -55.5t43.5 -36t56 -12.5t57 12.5t44 36t28 55.5t10 72z" />
    <glyph glyph-name="P" unicode="P" horiz-adv-x="562" 
d="M205 190v-190h-159v614h269q50 0 91 -14t70.5 -40.5t46 -66t16.5 -91.5q0 -51 -16.5 -90.5t-46 -66.5t-70.5 -41t-91 -14h-110zM382 402q0 35 -20 56t-64 21h-93v-154h93q44 0 64 21t20 56z" />
    <glyph glyph-name="Q" unicode="Q" horiz-adv-x="643" 
d="M622 307q0 -68 -24 -126q-21 -53 -57 -93l45 -55l-96 -78l-49 60l-3 -1q-54 -24 -117 -24q-66 0 -121 24t-94.5 66t-61.5 100t-22 127t22 127t61.5 100.5t94.5 66t121 23.5q67 0 122.5 -23.5t95 -66t61.5 -100.5t22 -127zM301 188l98 76l45 -57q4 9 7 19q10 35 10 81
q0 40 -10.5 72t-28.5 55.5t-44 36t-57 12.5t-56 -12.5t-43.5 -36t-28 -55.5t-9.5 -72t9.5 -73.5t28 -58t43.5 -38t56 -13.5q15 0 30 2z" />
    <glyph glyph-name="R" unicode="R" horiz-adv-x="574" 
d="M205 203v-203h-159v614h276q50 0 91 -14t70.5 -40.5t45.5 -65.5t16 -89q0 -49 -16 -86.5t-46 -63.5q-26 -22 -60 -35l144 -220h-178l-128 203h-56zM205 331h100q43 0 63 20t20 54t-20 54t-63 20h-100v-148z" />
    <glyph glyph-name="S" unicode="S" horiz-adv-x="543" 
d="M179 182q10 -32 35.5 -47.5t63.5 -15.5q18 0 33.5 4t26 11.5t17 18.5t6.5 25q0 22 -14.5 33t-43.5 18l-118 25q-34 7 -63.5 20t-50.5 33.5t-33 49.5t-12 68q0 45 18 82t50 62.5t75 40t93 14.5q57 0 101 -14.5t75.5 -40t50.5 -59.5t26 -74h-158q-9 26 -31.5 42.5
t-62.5 16.5q-17 0 -31 -3t-24 -10.5t-15.5 -17t-5.5 -22.5q0 -10 3 -18t10 -14t16.5 -10t21.5 -7l120 -28q79 -19 121 -62.5t42 -114.5q0 -47 -18.5 -84t-51 -62t-76 -38.5t-94.5 -13.5q-111 0 -182 50.5t-87 141.5h167z" />
    <glyph glyph-name="T" unicode="T" horiz-adv-x="580" 
d="M20 614h540v-138h-190v-476h-161v476h-189v138z" />
    <glyph glyph-name="U" unicode="U" horiz-adv-x="613" 
d="M307 -10q-61 0 -110.5 17t-84.5 50t-54 82t-19 112v363h160v-348q0 -33 7.5 -57.5t21 -41.5t33.5 -25t46 -8q24 0 44 8t34 25t21.5 41.5t7.5 57.5v348h160v-364q0 -63 -19 -111.5t-54 -81.5t-84.5 -50t-109.5 -17z" />
    <glyph glyph-name="V" unicode="V" horiz-adv-x="629" 
d="M236 0l-229 614h172l138 -397l139 397h166l-229 -614h-157z" />
    <glyph glyph-name="W" unicode="W" horiz-adv-x="820" 
d="M473 614l93 -361l86 361h162l-162 -614h-147l-95 360l-97 -360h-146l-161 614h164l86 -361l95 361h122z" />
    <glyph glyph-name="X" unicode="X" horiz-adv-x="604" 
d="M394 314l207 -314h-179l-122 189l-122 -189h-175l207 314l-197 300h179l111 -175l114 175h174z" />
    <glyph glyph-name="Y" unicode="Y" horiz-adv-x="612" 
d="M438 614h168l-221 -396v-218h-161v218l-219 396h174l130 -240z" />
    <glyph glyph-name="Z" unicode="Z" horiz-adv-x="562" 
d="M528 0h-494v119l285 357h-281v138h486v-118l-281 -357h285v-139z" />
    <glyph glyph-name="bracketleft" unicode="[" horiz-adv-x="332" 
d="M193 46h119v-130h-266v734h266v-130h-119v-474z" />
    <glyph glyph-name="backslash" unicode="\" horiz-adv-x="394" 
d="M389 -84h-136l-248 734h136z" />
    <glyph glyph-name="bracketright" unicode="]" horiz-adv-x="332" 
d="M139 520h-119v130h266v-734h-266v130h119v474z" />
    <glyph glyph-name="asciicircum" unicode="^" horiz-adv-x="432" 
d="M281 614l141 -238h-134l-72 125l-71 -125h-135l142 238h129z" />
    <glyph glyph-name="underscore" unicode="_" horiz-adv-x="381" 
d="M20 -42h341v-119h-341v119z" />
    <glyph glyph-name="grave" unicode="`" horiz-adv-x="500" 
d="M221 500l-87 150h149l82 -150h-144z" />
    <glyph glyph-name="a" unicode="a" horiz-adv-x="479" 
d="M292 0v23q-11 -11 -41.5 -21t-66.5 -10q-33 0 -63 9.5t-52.5 27.5t-35.5 45t-13 63q0 32 13.5 58.5t36.5 45.5t55 29t68 10q28 0 56.5 -7.5t42.5 -17.5v29q0 21 -13 37.5t-42 16.5q-22 0 -34.5 -9t-18.5 -24h-148q5 33 21.5 61t43 49.5t62.5 33.5t79 12q97 0 149.5 -48.5
t52.5 -136.5v-276h-152zM292 152q-3 7 -10 13t-15.5 10t-19 6t-21.5 2t-22.5 -2.5t-20 -8t-14 -14t-5.5 -18.5q0 -12 5.5 -20t14 -13.5t20 -8t22.5 -2.5t21.5 2t19 6t15.5 9.5t10 12.5v26z" />
    <glyph glyph-name="b" unicode="b" horiz-adv-x="528" 
d="M199 0h-157v650h157v-236q8 9 20 17.5t26 14.5t31 10t34 4q48 0 85.5 -18.5t63 -50.5t38.5 -74.5t13 -91.5q0 -48 -13 -91t-38.5 -75t-63 -50.5t-85.5 -18.5q-17 0 -34 4t-31 10t-26 14.5t-20 17.5v-36zM199 166q9 -19 27 -30.5t42 -11.5q20 0 36 8t26.5 21t16.5 31.5
t6 40.5t-6 40.5t-16.5 32t-26.5 21t-36 7.5q-23 0 -41.5 -11.5t-27.5 -30.5v-118z" />
    <glyph glyph-name="c" unicode="c" horiz-adv-x="470" 
d="M18 225q0 52 16.5 95.5t46 74.5t71.5 48t93 17q45 0 81.5 -13t63.5 -36.5t42.5 -56t20.5 -71.5h-151q-4 20 -18.5 33.5t-39.5 13.5q-16 0 -29 -7.5t-22.5 -21t-14.5 -33t-5 -43.5t5 -43.5t14.5 -32.5t22.5 -20.5t29 -7.5q25 0 39.5 13t18.5 34h151q-5 -40 -20.5 -72.5
t-42.5 -56t-63.5 -36.5t-81.5 -13q-51 0 -93 17.5t-71.5 48t-46 74t-16.5 95.5z" />
    <glyph glyph-name="d" unicode="d" horiz-adv-x="528" 
d="M329 36q-8 -9 -19.5 -17.5t-26 -14.5t-31 -10t-34.5 -4q-48 0 -85.5 18.5t-63 50.5t-38.5 75t-13 91q0 49 13 91.5t38.5 74.5t63 50.5t85.5 18.5q18 0 34.5 -4t31 -10t26 -14.5t19.5 -17.5v236h157v-650h-157v36zM329 284q-8 19 -27 30.5t-41 11.5q-20 0 -36.5 -7.5
t-27 -21t-16.5 -32t-6 -40.5t6 -40.5t16.5 -31.5t27 -21t36.5 -8q24 0 42 11.5t26 30.5v118z" />
    <glyph glyph-name="e" unicode="e" horiz-adv-x="478" 
d="M458 157q-12 -78 -67 -122.5t-145 -44.5q-52 0 -94 17t-71.5 48t-46 74.5t-16.5 95.5t17 95.5t47 74.5t71.5 48t90.5 17q52 0 92 -16.5t67.5 -46t42 -71t14.5 -92.5v-39h-291q2 -21 8 -36t16 -25.5t23.5 -16t29.5 -5.5q24 0 42 11t24 34h146zM244 338q-14 0 -25.5 -4.5
t-20.5 -12.5t-15.5 -20.5t-10.5 -27.5h136q-1 13 -5.5 25t-13 21t-19.5 14t-26 5z" />
    <glyph glyph-name="f" unicode="f" horiz-adv-x="339" 
d="M329 519q-9 5 -18 7t-20 2q-26 0 -40.5 -13.5t-14.5 -40.5v-24h86v-123h-86v-327h-156v327h-67v123h67v33q0 41 12 73t34 55t55 35.5t74 12.5q23 0 41 -3.5t33 -8.5v-128z" />
    <glyph glyph-name="g" unicode="g" horiz-adv-x="521" 
d="M323 63q-7 -9 -17.5 -16.5t-24 -13.5t-30 -10t-34.5 -4q-48 0 -85 17t-62 47t-38.5 70t-13.5 87q0 46 13.5 86.5t38.5 70.5t62 46.5t85 16.5q18 0 34.5 -3.5t30 -9.5t24 -14t17.5 -17v34h156v-385q0 -59 -17.5 -103t-48.5 -73t-74 -43.5t-94 -14.5q-45 0 -83 10.5t-67 32
t-47.5 51.5t-24.5 69h151q6 -24 24 -36t47 -12q37 0 57.5 20.5t20.5 64.5v32zM323 298q-8 15 -26 26.5t-41 11.5q-20 0 -35 -7t-26 -20t-16.5 -30.5t-5.5 -38.5t5.5 -39t16.5 -30.5t26 -19.5t35 -7q23 0 41 11t26 27v116z" />
    <glyph glyph-name="h" unicode="h" horiz-adv-x="519" 
d="M42 650h157v-238q19 21 50.5 34.5t70.5 13.5q75 0 117 -44.5t42 -120.5v-295h-157v257q0 28 -14.5 46t-43.5 18q-12 0 -22.5 -3.5t-19 -10t-14.5 -15.5t-9 -20v-272h-157v650z" />
    <glyph glyph-name="i" unicode="i" horiz-adv-x="242" 
d="M200 0h-157v450h157v-450zM210 572q0 -39 -26 -61.5t-63 -22.5q-36 0 -62.5 22.5t-26.5 61.5q0 40 26.5 62.5t62.5 22.5q37 0 63 -22.5t26 -62.5z" />
    <glyph glyph-name="j" unicode="j" horiz-adv-x="241" 
d="M200 11q0 -86 -43.5 -133t-128.5 -47q-17 0 -31.5 1.5t-25.5 5.5v119q5 -2 10.5 -2.5t12.5 -0.5q12 0 21.5 2.5t15 8.5t9 15.5t3.5 23.5v446h157v-439zM210 572q0 -39 -26 -61.5t-63 -22.5q-36 0 -62.5 22.5t-26.5 61.5q0 40 26.5 62.5t62.5 22.5q37 0 63 -22.5t26 -62.5
z" />
    <glyph glyph-name="k" unicode="k" horiz-adv-x="523" 
d="M229 167l-30 -35v-132h-157v650h157v-344l126 144h189l-171 -187l176 -263h-181z" />
    <glyph glyph-name="l" unicode="l" horiz-adv-x="241" 
d="M199 0h-157v650h157v-650z" />
    <glyph glyph-name="m" unicode="m" horiz-adv-x="770" 
d="M438 406q11 11 24.5 20.5t31 17.5t38 12t45.5 4q71 0 112 -44.5t41 -120.5v-295h-157v257q0 28 -12.5 46.5t-38.5 18.5q-20 0 -36 -12.5t-22 -35.5v-274h-157v257q0 28 -12 46.5t-39 18.5q-20 0 -35.5 -12.5t-21.5 -35.5v-274h-157v450h157v-37q17 21 47.5 34t68.5 13
q43 0 73 -14.5t50 -39.5z" />
    <glyph glyph-name="n" unicode="n" horiz-adv-x="519" 
d="M42 450h157v-38q19 21 50.5 34.5t70.5 13.5q75 0 117 -44.5t42 -120.5v-295h-157v257q0 28 -14.5 46t-43.5 18q-12 0 -22.5 -3.5t-19 -10t-14.5 -15.5t-9 -20v-272h-157v450z" />
    <glyph glyph-name="o" unicode="o" horiz-adv-x="496" 
d="M478 225q0 -52 -17 -95t-47 -74.5t-72.5 -48.5t-93.5 -17t-93.5 17t-72.5 48.5t-47 74.5t-17 95t17 95.5t47 74.5t72.5 48t93.5 17t93.5 -17t72.5 -48t47 -74.5t17 -95.5zM324 225q0 23 -5 42.5t-15 33.5t-24 22t-32 8t-32 -8t-23.5 -22t-14.5 -33.5t-5 -42.5t5 -42.5
t14.5 -33.5t23.5 -21.5t32 -7.5t32 7.5t24 21.5t15 33.5t5 42.5z" />
    <glyph glyph-name="p" unicode="p" horiz-adv-x="528" 
d="M199 -159h-157v609h157v-36q8 9 20 17.5t26 14.5t31 10t34 4q48 0 85.5 -18.5t63 -50.5t38.5 -75t13 -91t-13 -90.5t-38.5 -75t-63 -51t-85.5 -18.5q-17 0 -34 4t-31 10t-26 14.5t-20 17.5v-195zM199 166q9 -19 27.5 -30.5t41.5 -11.5q20 0 36 8t26.5 21t16.5 31.5
t6 40.5t-6 40.5t-16.5 32t-26.5 21t-36 7.5q-24 0 -42 -11.5t-27 -30.5v-118z" />
    <glyph glyph-name="q" unicode="q" horiz-adv-x="528" 
d="M329 36q-8 -9 -19.5 -17.5t-26 -14.5t-31 -10t-34.5 -4q-48 0 -85.5 18.5t-63 51t-38.5 75t-13 90.5t13 91t38.5 75t63 50.5t85.5 18.5q18 0 34.5 -4t31 -10t26 -14.5t19.5 -17.5v36h157v-609h-157v195zM329 284q-8 19 -26 30.5t-42 11.5q-20 0 -36.5 -7.5t-27 -21
t-16.5 -32t-6 -40.5t6 -40.5t16.5 -31.5t27 -21t36.5 -8q22 0 41 11.5t27 30.5v118z" />
    <glyph glyph-name="r" unicode="r" horiz-adv-x="365" 
d="M344 301q-15 8 -30.5 11t-34.5 3q-32 0 -53 -13.5t-27 -37.5v-264h-157v450h157v-40q16 23 42 36.5t60 13.5q15 0 26.5 -2.5t16.5 -5.5v-151z" />
    <glyph glyph-name="s" unicode="s" horiz-adv-x="448" 
d="M169 139q5 -19 20.5 -28.5t36.5 -9.5q10 0 18 1.5t14 5.5t9.5 9.5t3.5 13.5q0 13 -8.5 18.5t-26.5 9.5l-87 18q-57 12 -90.5 42t-33.5 89q0 36 15 64.5t41 48t60.5 29.5t74.5 10q93 0 144 -39.5t60 -106.5h-145q-3 15 -15 25.5t-39 10.5q-17 0 -30 -7.5t-13 -22.5
q0 -10 8 -16t23 -9l90 -21q61 -15 93.5 -47.5t32.5 -87.5q0 -36 -15.5 -64t-42 -46.5t-62.5 -28.5t-77 -10q-43 0 -79.5 9.5t-64.5 28.5t-45.5 46.5t-22.5 64.5h153z" />
    <glyph glyph-name="t" unicode="t" horiz-adv-x="358" 
d="M75 327h-66v123h66v124h155v-124h94v-123h-94v-148q0 -27 12 -39t36 -12q13 0 26 2.5t24 7.5v-133q-14 -6 -37.5 -10t-49.5 -4q-81 0 -123.5 39t-42.5 125v172z" />
    <glyph glyph-name="u" unicode="u" horiz-adv-x="517" 
d="M475 0h-156v39q-19 -21 -50.5 -35t-69.5 -14q-75 0 -117 45t-42 120v295h157v-258q0 -28 13.5 -46.5t44.5 -18.5q22 0 39.5 13.5t23.5 36.5v273h157v-450z" />
    <glyph glyph-name="v" unicode="v" horiz-adv-x="498" 
d="M178 0l-171 450h161l86 -258l83 258h154l-171 -450h-142z" />
    <glyph glyph-name="w" unicode="w" horiz-adv-x="699" 
d="M470 206l71 244h151l-145 -450h-133l-65 228l-64 -228h-133l-145 450h156l72 -244l67 244h101z" />
    <glyph glyph-name="x" unicode="x" horiz-adv-x="493" 
d="M332 230l157 -230h-169l-77 117l-77 -117h-162l157 229l-151 221h170l69 -108l72 108h162z" />
    <glyph glyph-name="y" unicode="y" horiz-adv-x="503" 
d="M110 -159l66 170l-169 439h163l87 -256l83 256h156l-232 -609h-154z" />
    <glyph glyph-name="z" unicode="z" horiz-adv-x="456" 
d="M424 0h-393v103l198 224h-192v123h384v-103l-190 -224h193v-123z" />
    <glyph glyph-name="braceleft" unicode="{" horiz-adv-x="366" 
d="M236 75q0 -29 29 -29h81v-130h-124q-57 0 -93 36t-36 94v143q0 29 -29 29h-44v130h44q29 0 29 29v143q0 58 36 94t93 36h124v-130h-81q-29 0 -29 -29v-125q0 -32 -13.5 -51.5t-33.5 -31.5q20 -12 33.5 -31.5t13.5 -51.5v-125z" />
    <glyph glyph-name="bar" unicode="|" horiz-adv-x="223" 
d="M46 650h131v-734h-131v734z" />
    <glyph glyph-name="braceright" unicode="}" horiz-adv-x="366" 
d="M131 200q0 32 13.5 51.5t33.5 31.5q-20 12 -33.5 31.5t-13.5 51.5v125q0 29 -29 29h-82v130h125q57 0 93 -36t36 -94v-143q0 -29 29 -29h43v-130h-43q-29 0 -29 -29v-143q0 -58 -36 -94t-93 -36h-125v130h82q29 0 29 29v125z" />
    <glyph glyph-name="asciitilde" unicode="~" horiz-adv-x="427" 
d="M396 355q0 -78 -28.5 -120.5t-80.5 -42.5q-24 0 -41 8.5t-30.5 19.5t-25.5 19.5t-26 8.5q-17 0 -26 -12t-9 -39h-98q0 77 28.5 120t82.5 43q22 0 39 -8.5t31 -19t26 -19t26 -8.5q17 0 25.5 11.5t8.5 38.5h98z" />
    <glyph glyph-name="Adieresis" unicode="&#xc4;" horiz-adv-x="646" 
d="M405 614l234 -614h-163l-44 119h-223l-43 -119h-159l233 614h165zM257 251h127l-63 173zM154 734q0 33 22.5 56t56.5 23q33 0 56 -23t23 -56t-23 -56t-56 -23q-34 0 -56.5 23t-22.5 56zM335 734q0 33 23 56t56 23q32 0 55.5 -23t23.5 -56t-23.5 -56t-55.5 -23
q-33 0 -56 23t-23 56z" />
    <glyph glyph-name="Aring" unicode="&#xc5;" horiz-adv-x="646" 
d="M405 614l234 -614h-163l-44 119h-223l-43 -119h-159l233 614h165zM257 251h127l-63 173zM431 747q0 -23 -8 -42t-23 -32.5t-34.5 -22t-42.5 -8.5t-42.5 8.5t-34 22t-23 32.5t-8.5 42q0 22 8.5 41.5t23 33.5t34 22.5t42.5 8.5t42.5 -8.5t34.5 -22.5t23 -33.5t8 -41.5z
M360 747q0 15 -10.5 25.5t-26.5 10.5q-15 0 -25 -10.5t-10 -25.5t10 -25.5t25 -10.5q16 0 26.5 10.5t10.5 25.5z" />
    <glyph glyph-name="Ccedilla" unicode="&#xc7;" horiz-adv-x="603" 
d="M22 307q0 70 22 128t61 100t93.5 65.5t118.5 23.5q58 0 103.5 -16.5t78.5 -45t54 -68t29 -86.5h-160q-12 34 -37.5 54.5t-67.5 20.5q-32 0 -56.5 -13.5t-41.5 -37t-26 -55.5t-9 -70t9 -70t26 -55t41.5 -36.5t56.5 -13.5q42 0 67.5 20t37.5 55h160q-8 -47 -29 -87
t-54 -68.5t-78.5 -45t-103.5 -16.5q-64 0 -118.5 23.5t-93.5 65.5t-61 100t-22 128zM185 -181l68 141h136l-71 -141h-133z" />
    <glyph glyph-name="Eacute" unicode="&#xc9;" 
d="M486 614v-138h-282v-96h257v-135h-257v-106h282v-139h-440v614h440zM190 666l82 130h160l-88 -130h-154z" />
    <glyph glyph-name="Ntilde" unicode="&#xd1;" horiz-adv-x="634" 
d="M588 0h-130l-257 358v-358h-155v614h151l236 -337v337h155v-614zM474 809q0 -30 -4.5 -57.5t-14.5 -48t-27 -32.5t-42 -12q-18 0 -33 5.5t-29 12t-27.5 12t-25.5 5.5t-18.5 -8.5t-7.5 -22.5h-85q0 30 4.5 57t14.5 48t27 33t42 12q18 0 33 -5.5t29 -12t27 -12t26 -5.5
q12 0 18.5 8t7.5 23h85z" />
    <glyph glyph-name="Odieresis" unicode="&#xd6;" horiz-adv-x="644" 
d="M622 307q0 -69 -22 -127t-61.5 -100t-95 -66t-122.5 -24q-66 0 -121 24t-94.5 66t-61.5 100t-22 127t22 127t61.5 100.5t94.5 66t121 23.5q67 0 122.5 -23.5t95 -66t61.5 -100.5t22 -127zM460 307q0 40 -10 72t-28 55.5t-44 36t-57 12.5t-56 -12.5t-43.5 -36t-28 -55.5
t-9.5 -72t9.5 -72t28 -55.5t43.5 -36t56 -12.5t57 12.5t44 36t28 55.5t10 72zM152 734q0 33 22.5 56t56.5 23q33 0 56 -23t23 -56t-23 -56t-56 -23q-34 0 -56.5 23t-22.5 56zM333 734q0 33 23 56t56 23q32 0 55.5 -23t23.5 -56t-23.5 -56t-55.5 -23q-33 0 -56 23t-23 56z
" />
    <glyph glyph-name="Udieresis" unicode="&#xdc;" horiz-adv-x="613" 
d="M307 -10q-61 0 -110.5 17t-84.5 50t-54 82t-19 112v363h160v-348q0 -33 7.5 -57.5t21 -41.5t33.5 -25t46 -8q24 0 44 8t34 25t21.5 41.5t7.5 57.5v348h160v-364q0 -63 -19 -111.5t-54 -81.5t-84.5 -50t-109.5 -17zM137 734q0 33 22.5 56t56.5 23q33 0 56 -23t23 -56
t-23 -56t-56 -23q-34 0 -56.5 23t-22.5 56zM318 734q0 33 23 56t56 23q32 0 55.5 -23t23.5 -56t-23.5 -56t-55.5 -23q-33 0 -56 23t-23 56z" />
    <glyph glyph-name="aacute" unicode="&#xe1;" horiz-adv-x="479" 
d="M292 0v23q-11 -11 -41.5 -21t-66.5 -10q-33 0 -63 9.5t-52.5 27.5t-35.5 45t-13 63q0 32 13.5 58.5t36.5 45.5t55 29t68 10q28 0 56.5 -7.5t42.5 -17.5v29q0 21 -13 37.5t-42 16.5q-22 0 -34.5 -9t-18.5 -24h-148q5 33 21.5 61t43 49.5t62.5 33.5t79 12q97 0 149.5 -48.5
t52.5 -136.5v-276h-152zM292 152q-3 7 -10 13t-15.5 10t-19 6t-21.5 2t-22.5 -2.5t-20 -8t-14 -14t-5.5 -18.5q0 -12 5.5 -20t14 -13.5t20 -8t22.5 -2.5t21.5 2t19 6t15.5 9.5t10 12.5v26zM173 500l82 150h149l-87 -150h-144z" />
    <glyph glyph-name="agrave" unicode="&#xe0;" horiz-adv-x="479" 
d="M292 0v23q-11 -11 -41.5 -21t-66.5 -10q-33 0 -63 9.5t-52.5 27.5t-35.5 45t-13 63q0 32 13.5 58.5t36.5 45.5t55 29t68 10q28 0 56.5 -7.5t42.5 -17.5v29q0 21 -13 37.5t-42 16.5q-22 0 -34.5 -9t-18.5 -24h-148q5 33 21.5 61t43 49.5t62.5 33.5t79 12q97 0 149.5 -48.5
t52.5 -136.5v-276h-152zM292 152q-3 7 -10 13t-15.5 10t-19 6t-21.5 2t-22.5 -2.5t-20 -8t-14 -14t-5.5 -18.5q0 -12 5.5 -20t14 -13.5t20 -8t22.5 -2.5t21.5 2t19 6t15.5 9.5t10 12.5v26zM182 500l-87 150h149l82 -150h-144z" />
    <glyph glyph-name="acircumflex" unicode="&#xe2;" horiz-adv-x="479" 
d="M292 0v23q-11 -11 -41.5 -21t-66.5 -10q-33 0 -63 9.5t-52.5 27.5t-35.5 45t-13 63q0 32 13.5 58.5t36.5 45.5t55 29t68 10q28 0 56.5 -7.5t42.5 -17.5v29q0 21 -13 37.5t-42 16.5q-22 0 -34.5 -9t-18.5 -24h-148q5 33 21.5 61t43 49.5t62.5 33.5t79 12q97 0 149.5 -48.5
t52.5 -136.5v-276h-152zM292 152q-3 7 -10 13t-15.5 10t-19 6t-21.5 2t-22.5 -2.5t-20 -8t-14 -14t-5.5 -18.5q0 -12 5.5 -20t14 -13.5t20 -8t22.5 -2.5t21.5 2t19 6t15.5 9.5t10 12.5v26zM403 498h-117l-39 55l-40 -55h-116l96 151h120z" />
    <glyph glyph-name="adieresis" unicode="&#xe4;" horiz-adv-x="479" 
d="M292 0v23q-11 -11 -41.5 -21t-66.5 -10q-33 0 -63 9.5t-52.5 27.5t-35.5 45t-13 63q0 32 13.5 58.5t36.5 45.5t55 29t68 10q28 0 56.5 -7.5t42.5 -17.5v29q0 21 -13 37.5t-42 16.5q-22 0 -34.5 -9t-18.5 -24h-148q5 33 21.5 61t43 49.5t62.5 33.5t79 12q97 0 149.5 -48.5
t52.5 -136.5v-276h-152zM292 152q-3 7 -10 13t-15.5 10t-19 6t-21.5 2t-22.5 -2.5t-20 -8t-14 -14t-5.5 -18.5q0 -12 5.5 -20t14 -13.5t20 -8t22.5 -2.5t21.5 2t19 6t15.5 9.5t10 12.5v26zM84 567q0 32 22.5 54.5t54.5 22.5q16 0 30 -6t24.5 -16.5t16.5 -24.5t6 -30
q0 -32 -23 -54t-54 -22q-32 0 -54.5 22t-22.5 54zM261 567q0 32 22.5 54.5t53.5 22.5q16 0 30 -6t24.5 -16.5t17 -24.5t6.5 -30q0 -32 -23 -54t-55 -22q-31 0 -53.5 22t-22.5 54z" />
    <glyph glyph-name="atilde" unicode="&#xe3;" horiz-adv-x="479" 
d="M292 0v23q-11 -11 -41.5 -21t-66.5 -10q-33 0 -63 9.5t-52.5 27.5t-35.5 45t-13 63q0 32 13.5 58.5t36.5 45.5t55 29t68 10q28 0 56.5 -7.5t42.5 -17.5v29q0 21 -13 37.5t-42 16.5q-22 0 -34.5 -9t-18.5 -24h-148q5 33 21.5 61t43 49.5t62.5 33.5t79 12q97 0 149.5 -48.5
t52.5 -136.5v-276h-152zM292 152q-3 7 -10 13t-15.5 10t-19 6t-21.5 2t-22.5 -2.5t-20 -8t-14 -14t-5.5 -18.5q0 -12 5.5 -20t14 -13.5t20 -8t22.5 -2.5t21.5 2t19 6t15.5 9.5t10 12.5v26zM399 647q0 -31 -4.5 -58t-15 -47.5t-27.5 -32.5t-42 -12q-17 0 -30 5.5t-24 12.5
t-21.5 12.5t-22.5 5.5t-18.5 -9t-7.5 -24h-85q0 31 4.5 58t14.5 47.5t27 32.5t42 12q17 0 30 -5.5t24.5 -12.5t22 -12.5t22.5 -5.5q11 0 18 9t7 24h86z" />
    <glyph glyph-name="aring" unicode="&#xe5;" horiz-adv-x="478" 
d="M292 0v23q-11 -11 -41.5 -21t-66.5 -10q-33 0 -63 9.5t-52.5 27.5t-35.5 45t-13 63q0 32 13.5 58.5t36.5 45.5t55 29t68 10q28 0 56.5 -7.5t42.5 -17.5v29q0 21 -13 37.5t-42 16.5q-22 0 -34.5 -9t-18.5 -24h-148q5 33 21.5 61t43 49.5t62.5 33.5t79 12q97 0 149.5 -48.5
t52.5 -136.5v-276h-152zM292 152q-3 7 -10 13t-15.5 10t-19 6t-21.5 2t-22.5 -2.5t-20 -8t-14 -14t-5.5 -18.5q0 -12 5.5 -20t14 -13.5t20 -8t22.5 -2.5t21.5 2t19 6t15.5 9.5t10 12.5v26zM358 590q0 -23 -8 -42t-23 -33t-34.5 -22t-42.5 -8t-42.5 8t-34 22t-23 33t-8.5 42
q0 22 8.5 41t23 33.5t34 22.5t42.5 8t42.5 -8t34.5 -22.5t23 -33.5t8 -41zM287 590q0 15 -10.5 25.5t-26.5 10.5q-15 0 -25 -10.5t-10 -25.5t10 -25.5t25 -10.5q16 0 26.5 10.5t10.5 25.5z" />
    <glyph glyph-name="ccedilla" unicode="&#xe7;" horiz-adv-x="470" 
d="M18 225q0 52 16.5 95.5t46 74.5t71.5 48t93 17q45 0 81.5 -13t63.5 -36.5t42.5 -56t20.5 -71.5h-151q-4 20 -18.5 33.5t-39.5 13.5q-16 0 -29 -7.5t-22.5 -21t-14.5 -33t-5 -43.5t5 -43.5t14.5 -32.5t22.5 -20.5t29 -7.5q25 0 39.5 13t18.5 34h151q-5 -40 -20.5 -72.5
t-42.5 -56t-63.5 -36.5t-81.5 -13q-51 0 -93 17.5t-71.5 48t-46 74t-16.5 95.5zM110 -181l68 141h136l-71 -141h-133z" />
    <glyph glyph-name="eacute" unicode="&#xe9;" horiz-adv-x="478" 
d="M458 157q-12 -78 -67 -122.5t-145 -44.5q-52 0 -94 17t-71.5 48t-46 74.5t-16.5 95.5t17 95.5t47 74.5t71.5 48t90.5 17q52 0 92 -16.5t67.5 -46t42 -71t14.5 -92.5v-39h-291q2 -21 8 -36t16 -25.5t23.5 -16t29.5 -5.5q24 0 42 11t24 34h146zM244 338q-14 0 -25.5 -4.5
t-20.5 -12.5t-15.5 -20.5t-10.5 -27.5h136q-1 13 -5.5 25t-13 21t-19.5 14t-26 5zM172 500l82 150h149l-87 -150h-144z" />
    <glyph glyph-name="egrave" unicode="&#xe8;" horiz-adv-x="478" 
d="M458 157q-12 -78 -67 -122.5t-145 -44.5q-52 0 -94 17t-71.5 48t-46 74.5t-16.5 95.5t17 95.5t47 74.5t71.5 48t90.5 17q52 0 92 -16.5t67.5 -46t42 -71t14.5 -92.5v-39h-291q2 -21 8 -36t16 -25.5t23.5 -16t29.5 -5.5q24 0 42 11t24 34h146zM244 338q-14 0 -25.5 -4.5
t-20.5 -12.5t-15.5 -20.5t-10.5 -27.5h136q-1 13 -5.5 25t-13 21t-19.5 14t-26 5zM181 500l-87 150h149l82 -150h-144z" />
    <glyph glyph-name="ecircumflex" unicode="&#xea;" horiz-adv-x="478" 
d="M458 157q-12 -78 -67 -122.5t-145 -44.5q-52 0 -94 17t-71.5 48t-46 74.5t-16.5 95.5t17 95.5t47 74.5t71.5 48t90.5 17q52 0 92 -16.5t67.5 -46t42 -71t14.5 -92.5v-39h-291q2 -21 8 -36t16 -25.5t23.5 -16t29.5 -5.5q24 0 42 11t24 34h146zM244 338q-14 0 -25.5 -4.5
t-20.5 -12.5t-15.5 -20.5t-10.5 -27.5h136q-1 13 -5.5 25t-13 21t-19.5 14t-26 5zM406 498h-117l-39 55l-40 -55h-116l96 151h120z" />
    <glyph glyph-name="edieresis" unicode="&#xeb;" horiz-adv-x="478" 
d="M458 157q-12 -78 -67 -122.5t-145 -44.5q-52 0 -94 17t-71.5 48t-46 74.5t-16.5 95.5t17 95.5t47 74.5t71.5 48t90.5 17q52 0 92 -16.5t67.5 -46t42 -71t14.5 -92.5v-39h-291q2 -21 8 -36t16 -25.5t23.5 -16t29.5 -5.5q24 0 42 11t24 34h146zM244 338q-14 0 -25.5 -4.5
t-20.5 -12.5t-15.5 -20.5t-10.5 -27.5h136q-1 13 -5.5 25t-13 21t-19.5 14t-26 5zM84 567q0 32 22.5 54.5t54.5 22.5q16 0 30 -6t24.5 -16.5t16.5 -24.5t6 -30q0 -32 -23 -54t-54 -22q-32 0 -54.5 22t-22.5 54zM261 567q0 32 22.5 54.5t53.5 22.5q16 0 30 -6t24.5 -16.5
t17 -24.5t6.5 -30q0 -32 -23 -54t-55 -22q-31 0 -53.5 22t-22.5 54z" />
    <glyph glyph-name="iacute" unicode="&#xed;" horiz-adv-x="241" 
d="M44 500l82 150h149l-87 -150h-144zM199 0h-157v450h157v-450z" />
    <glyph glyph-name="igrave" unicode="&#xec;" horiz-adv-x="241" 
d="M53 500l-87 150h149l82 -150h-144zM199 0h-157v450h157v-450z" />
    <glyph glyph-name="icircumflex" unicode="&#xee;" horiz-adv-x="242" 
d="M260 498h-112l-27 60l-27 -60h-112l79 151h120zM200 0h-157v450h157v-450z" />
    <glyph glyph-name="idieresis" unicode="&#xef;" horiz-adv-x="242" 
d="M-41 567q0 32 22.5 54.5t54.5 22.5q16 0 30 -6t24.5 -16.5t16.5 -24.5t6 -30q0 -32 -23 -54t-54 -22q-32 0 -54.5 22t-22.5 54zM131 567q0 32 22 54.5t54 22.5q16 0 30 -6t24.5 -16.5t16.5 -24.5t6 -30q0 -32 -22.5 -54t-54.5 -22t-54 22t-22 54zM200 0h-157v450h157
v-450z" />
    <glyph glyph-name="ntilde" unicode="&#xf1;" horiz-adv-x="519" 
d="M42 450h157v-38q19 21 50.5 34.5t70.5 13.5q75 0 117 -44.5t42 -120.5v-295h-157v257q0 28 -14.5 46t-43.5 18q-12 0 -22.5 -3.5t-19 -10t-14.5 -15.5t-9 -20v-272h-157v450zM415 647q0 -31 -4.5 -58t-15 -47.5t-27.5 -32.5t-42 -12q-17 0 -30 5.5t-24 12.5t-21.5 12.5
t-22.5 5.5t-18.5 -9t-7.5 -24h-85q0 31 4.5 58t14.5 47.5t27 32.5t42 12q17 0 30 -5.5t24.5 -12.5t22 -12.5t22.5 -5.5q11 0 18 9t7 24h86z" />
    <glyph glyph-name="oacute" unicode="&#xf3;" horiz-adv-x="496" 
d="M478 225q0 -52 -17 -95t-47 -74.5t-72.5 -48.5t-93.5 -17t-93.5 17t-72.5 48.5t-47 74.5t-17 95t17 95.5t47 74.5t72.5 48t93.5 17t93.5 -17t72.5 -48t47 -74.5t17 -95.5zM324 225q0 23 -5 42.5t-15 33.5t-24 22t-32 8t-32 -8t-23.5 -22t-14.5 -33.5t-5 -42.5t5 -42.5
t14.5 -33.5t23.5 -21.5t32 -7.5t32 7.5t24 21.5t15 33.5t5 42.5zM172 500l82 150h149l-87 -150h-144z" />
    <glyph glyph-name="ograve" unicode="&#xf2;" horiz-adv-x="496" 
d="M478 225q0 -52 -17 -95t-47 -74.5t-72.5 -48.5t-93.5 -17t-93.5 17t-72.5 48.5t-47 74.5t-17 95t17 95.5t47 74.5t72.5 48t93.5 17t93.5 -17t72.5 -48t47 -74.5t17 -95.5zM324 225q0 23 -5 42.5t-15 33.5t-24 22t-32 8t-32 -8t-23.5 -22t-14.5 -33.5t-5 -42.5t5 -42.5
t14.5 -33.5t23.5 -21.5t32 -7.5t32 7.5t24 21.5t15 33.5t5 42.5zM180 500l-87 150h149l82 -150h-144z" />
    <glyph glyph-name="ocircumflex" unicode="&#xf4;" horiz-adv-x="498" 
d="M478 225q0 -52 -17 -95t-47 -74.5t-72.5 -48.5t-93.5 -17t-93.5 17t-72.5 48.5t-47 74.5t-17 95t17 95.5t47 74.5t72.5 48t93.5 17t93.5 -17t72.5 -48t47 -74.5t17 -95.5zM324 225q0 23 -5 42.5t-15 33.5t-24 22t-32 8t-32 -8t-23.5 -22t-14.5 -33.5t-5 -42.5t5 -42.5
t14.5 -33.5t23.5 -21.5t32 -7.5t32 7.5t24 21.5t15 33.5t5 42.5zM406 498h-117l-39 55l-40 -55h-116l96 151h120z" />
    <glyph glyph-name="odieresis" unicode="&#xf6;" horiz-adv-x="498" 
d="M478 225q0 -52 -17 -95t-47 -74.5t-72.5 -48.5t-93.5 -17t-93.5 17t-72.5 48.5t-47 74.5t-17 95t17 95.5t47 74.5t72.5 48t93.5 17t93.5 -17t72.5 -48t47 -74.5t17 -95.5zM324 225q0 23 -5 42.5t-15 33.5t-24 22t-32 8t-32 -8t-23.5 -22t-14.5 -33.5t-5 -42.5t5 -42.5
t14.5 -33.5t23.5 -21.5t32 -7.5t32 7.5t24 21.5t15 33.5t5 42.5zM84 567q0 32 22.5 54.5t54.5 22.5q16 0 30 -6t24.5 -16.5t16.5 -24.5t6 -30q0 -32 -23 -54t-54 -22q-32 0 -54.5 22t-22.5 54zM261 567q0 32 22.5 54.5t53.5 22.5q16 0 30 -6t24.5 -16.5t17 -24.5t6.5 -30
q0 -32 -23 -54t-55 -22q-31 0 -53.5 22t-22.5 54z" />
    <glyph glyph-name="otilde" unicode="&#xf5;" horiz-adv-x="498" 
d="M478 225q0 -52 -17 -95t-47 -74.5t-72.5 -48.5t-93.5 -17t-93.5 17t-72.5 48.5t-47 74.5t-17 95t17 95.5t47 74.5t72.5 48t93.5 17t93.5 -17t72.5 -48t47 -74.5t17 -95.5zM324 225q0 23 -5 42.5t-15 33.5t-24 22t-32 8t-32 -8t-23.5 -22t-14.5 -33.5t-5 -42.5t5 -42.5
t14.5 -33.5t23.5 -21.5t32 -7.5t32 7.5t24 21.5t15 33.5t5 42.5zM399 647q0 -31 -4.5 -58t-15 -47.5t-27.5 -32.5t-42 -12q-17 0 -30 5.5t-24 12.5t-21.5 12.5t-22.5 5.5t-18.5 -9t-7.5 -24h-85q0 31 4.5 58t14.5 47.5t27 32.5t42 12q17 0 30 -5.5t24.5 -12.5t22 -12.5
t22.5 -5.5q11 0 18 9t7 24h86z" />
    <glyph glyph-name="uacute" unicode="&#xfa;" horiz-adv-x="517" 
d="M475 0h-156v39q-19 -21 -50.5 -35t-69.5 -14q-75 0 -117 45t-42 120v295h157v-258q0 -28 13.5 -46.5t44.5 -18.5q22 0 39.5 13.5t23.5 36.5v273h157v-450zM182 500l82 150h149l-87 -150h-144z" />
    <glyph glyph-name="ugrave" unicode="&#xf9;" horiz-adv-x="517" 
d="M475 0h-156v39q-19 -21 -50.5 -35t-69.5 -14q-75 0 -117 45t-42 120v295h157v-258q0 -28 13.5 -46.5t44.5 -18.5q22 0 39.5 13.5t23.5 36.5v273h157v-450zM190 500l-87 150h149l82 -150h-144z" />
    <glyph glyph-name="ucircumflex" unicode="&#xfb;" horiz-adv-x="517" 
d="M475 0h-156v39q-19 -21 -50.5 -35t-69.5 -14q-75 0 -117 45t-42 120v295h157v-258q0 -28 13.5 -46.5t44.5 -18.5q22 0 39.5 13.5t23.5 36.5v273h157v-450zM415 498h-117l-39 55l-40 -55h-116l96 151h120z" />
    <glyph glyph-name="udieresis" unicode="&#xfc;" horiz-adv-x="517" 
d="M475 0h-156v39q-19 -21 -50.5 -35t-69.5 -14q-75 0 -117 45t-42 120v295h157v-258q0 -28 13.5 -46.5t44.5 -18.5q22 0 39.5 13.5t23.5 36.5v273h157v-450zM94 567q0 32 22.5 54.5t54.5 22.5q16 0 30 -6t24.5 -16.5t16.5 -24.5t6 -30q0 -32 -23 -54t-54 -22
q-32 0 -54.5 22t-22.5 54zM271 567q0 32 22.5 54.5t53.5 22.5q16 0 30 -6t24.5 -16.5t17 -24.5t6.5 -30q0 -32 -23 -54t-55 -22q-31 0 -53.5 22t-22.5 54z" />
    <glyph glyph-name="dagger" unicode="&#x2020;" horiz-adv-x="345" 
d="M24 558h99v92h99v-92h99v-97h-99v-185h-99v185h-99v97z" />
    <glyph glyph-name="degree" unicode="&#xb0;" horiz-adv-x="362" 
d="M125 483q0 -24 16.5 -41.5t39.5 -17.5t39.5 17.5t16.5 41.5t-16.5 41t-39.5 17t-39.5 -17t-16.5 -41zM320 483q0 -29 -11 -55t-30 -45t-44.5 -30t-53.5 -11t-53.5 11t-44.5 30t-30 45t-11 55t11 55t30 45t44.5 30t53.5 11t53.5 -11t44.5 -30t30 -45t11 -55z" />
    <glyph glyph-name="cent" unicode="&#xa2;" horiz-adv-x="470" 
d="M18 235q0 52 16.5 95.5t46 74.5t71.5 48q14 5 29 9v96h128v-96q9 -2 18 -5q37 -13 63.5 -37t42 -57t20.5 -73h-151q-3 22 -17.5 36t-40.5 14q-16 0 -29.5 -7.5t-22.5 -21t-14 -33t-5 -43.5t5 -43.5t14 -32.5t22.5 -20.5t29.5 -7.5q26 0 40.5 13.5t17.5 35.5h151
q-5 -40 -20.5 -73t-42 -56.5t-63.5 -37.5l-18 -6v-92h-128v92q-15 4 -29 10q-42 18 -71.5 48.5t-46 74t-16.5 95.5z" />
    <glyph glyph-name="sterling" unicode="&#xa3;" horiz-adv-x="503" 
d="M238 222q0 -26 -5 -51t-16 -40h263v-131h-456v131h44q10 17 15 37.5t5 53.5v22h-64v119h64v54q0 44 14 82t39.5 66t62.5 43.5t84 15.5q43 0 78 -13t60 -36.5t39.5 -57t16.5 -73.5h-141q-2 22 -13.5 36t-35.5 14q-28 0 -41 -20t-13 -52v-59h112v-119h-112v-22z" />
    <glyph glyph-name="section" unicode="&#xa7;" horiz-adv-x="478" 
d="M388 122q14 -15 22.5 -34t8.5 -44q0 -33 -13.5 -59.5t-38 -45.5t-58 -29t-72.5 -10q-92 0 -141 41t-57 110h136q3 -19 16 -31.5t38 -12.5q17 0 30 9t13 27q0 15 -10 23.5t-23 17.5l-114 63q-25 13 -44 27.5t-33 31.5t-21 37.5t-7 44.5q0 37 18 66.5t51 47.5
q-13 15 -21.5 34t-8.5 44q0 33 14 59.5t38 45.5t57.5 29t72.5 10q92 0 141 -41.5t57 -109.5h-136q-3 19 -16 31.5t-38 12.5q-16 0 -29.5 -9t-13.5 -27q0 -8 3 -13.5t7.5 -10t10.5 -9t13 -8.5l113 -63q25 -13 44.5 -27.5t33 -31.5t20.5 -37.5t7 -44.5q0 -38 -18.5 -67.5
t-51.5 -46.5zM293 191q14 4 20 13.5t6 20.5q0 15 -10 26t-27 21l-97 61q-14 -5 -19.5 -14t-5.5 -20q0 -15 9.5 -26t26.5 -21z" />
    <glyph glyph-name="bullet" unicode="&#x2022;" horiz-adv-x="380" 
d="M356 261q0 -36 -13 -66t-35.5 -52t-52.5 -34t-64 -12q-35 0 -65.5 12t-53 34t-35.5 52t-13 66q0 37 13 68t35.5 53t53 34t65.5 12q34 0 64 -12t52.5 -34t35.5 -53t13 -68z" />
    <glyph glyph-name="paragraph" unicode="&#xb6;" horiz-adv-x="551" 
d="M400 614h105v-704h-105v704zM242 247q-41 0 -81.5 11t-73 33t-53 56.5t-20.5 83.5q0 48 20.5 82.5t53 57t73 33t81.5 10.5h105v-704h-105v337z" />
    <glyph glyph-name="germandbls" unicode="&#xdf;" horiz-adv-x="542" 
d="M414 355q23 -8 43 -23.5t35 -36.5t23.5 -48t8.5 -59q0 -46 -15 -82t-41 -60.5t-62.5 -37.5t-79.5 -13q-23 0 -41 2t-38 9v124q8 -3 21 -5t28 -2q37 0 58 20t21 59q0 19 -6.5 33.5t-19 24.5t-30 15t-40.5 5h-28v122h17q14 0 26 4t20.5 12t13 19.5t4.5 27.5q0 27 -17 44
t-48 17q-35 0 -52 -24t-17 -60v-442h-156v432q0 52 15.5 94t45 71.5t71 45.5t93.5 16t91.5 -13.5t66.5 -36.5t40.5 -55.5t13.5 -69.5q0 -24 -5.5 -44.5t-14.5 -37t-20.5 -28.5t-24.5 -19z" />
    <glyph glyph-name="registered" unicode="&#xae;" horiz-adv-x="407" 
d="M384 441q0 -40 -14.5 -73.5t-39 -58t-57.5 -38t-70 -13.5t-70 13.5t-57.5 38t-39 58t-14.5 73.5t14.5 73.5t39 58t57.5 38t70 13.5t70 -13.5t57.5 -38t39 -58t14.5 -73.5zM351 441q0 33 -11.5 61t-31.5 48.5t-47 31.5t-58 11t-58 -11t-47 -31.5t-31.5 -48.5t-11.5 -61
t11.5 -61t31.5 -48.5t47 -31.5t58 -11t58 11t47 31.5t31.5 48.5t11.5 61zM185 404v-58h-59v192h93q32 0 52 -18t20 -51q0 -21 -9.5 -36t-26.5 -22l42 -65h-65l-35 58h-12zM233 469q0 10 -6 15t-17 5h-25v-38h25q11 0 17 4.5t6 13.5z" />
    <glyph glyph-name="copyright" unicode="&#xa9;" horiz-adv-x="704" 
d="M669 307q0 -69 -25 -127t-68 -100.5t-101 -66t-123 -23.5t-123 23.5t-101 66t-68 100.5t-25 127t25 127t68 100.5t101 66t123 23.5t123 -23.5t101 -66t68 -100.5t25 -127zM622 307q0 59 -21.5 108.5t-58 85.5t-86 56.5t-104.5 20.5q-56 0 -105 -20.5t-85.5 -56.5
t-58 -85.5t-21.5 -108.5t21.5 -108.5t58 -85.5t85.5 -56.5t105 -20.5q55 0 104.5 20.5t86 56.5t58 85.5t21.5 108.5zM165 308q0 44 14 81t39 63.5t60 41t77 14.5q38 0 67.5 -10.5t50.5 -29.5t34.5 -44t18.5 -57h-114q-6 21 -20.5 31t-36.5 10q-38 0 -57.5 -28t-19.5 -72
q0 -42 19.5 -70.5t57.5 -28.5q22 0 36.5 10t20.5 30h114q-5 -30 -18.5 -55.5t-34.5 -44t-50.5 -29.5t-67.5 -11q-42 0 -77 14.5t-60 41t-39 63t-14 80.5z" />
    <glyph glyph-name="trademark" unicode="&#x2122;" horiz-adv-x="610" 
d="M20 614h235v-73h-77v-181h-82v181h-76v73zM407 360l-47 141v-141h-72v254h96l48 -144l48 144h96v-254h-73v141l-47 -141h-49z" />
    <glyph glyph-name="acute" unicode="&#xb4;" horiz-adv-x="500" 
d="M134 500l82 150h149l-87 -150h-144z" />
    <glyph glyph-name="dieresis" unicode="&#xa8;" horiz-adv-x="500" 
d="M84 567q0 32 22.5 54.5t54.5 22.5q16 0 30 -6t24.5 -16.5t16.5 -24.5t6 -30q0 -32 -23 -54t-54 -22q-32 0 -54.5 22t-22.5 54zM261 567q0 32 22.5 54.5t53.5 22.5q16 0 30 -6t24.5 -16.5t17 -24.5t6.5 -30q0 -32 -23 -54t-55 -22q-31 0 -53.5 22t-22.5 54z" />
    <glyph glyph-name="notequal" unicode="&#x2260;" horiz-adv-x="573" 
d="M60 261h152l51 79h-203v104h269l60 93h96l-60 -93h88v-104h-154l-51 -79h205v-103h-271l-59 -93h-96l59 93h-86v103z" />
    <glyph glyph-name="AE" unicode="&#xc6;" horiz-adv-x="898" 
d="M242 119l-66 -119h-169l344 614h513v-138h-261v-96h236v-135h-236v-106h261v-139h-420v119h-202zM444 484l-129 -233h129v233z" />
    <glyph glyph-name="Oslash" unicode="&#xd8;" horiz-adv-x="652" 
d="M563 625l56 -47l-59 -65q27 -35 44 -79q22 -58 22 -127t-22 -127t-61.5 -100t-95 -66t-122.5 -24q-66 0 -121 24q-33 14 -60 35l-54 -60l-56 47l58 64q-27 35 -44 80q-22 58 -22 127t22 127t61.5 100.5t94.5 66t121 23.5q67 0 122 -24q34 -14 62 -36zM383 470
q-26 13 -58 13q-31 0 -56 -12.5t-43.5 -36t-28 -55.5t-9.5 -72t9 -72l4 -13l208 231q-12 10 -26 17zM464 307q0 40 -10 72q-1 6 -3 11l-208 -231q11 -9 24 -16q26 -12 58 -12q31 0 57 12.5t44 36t28 55.5t10 72z" />
    <glyph glyph-name="plusminus" unicode="&#xb1;" horiz-adv-x="568" 
d="M66 434h165v127h105v-127h166v-105h-166v-128h-105v128h-165v105zM66 153h436v-105h-436v105z" />
    <glyph glyph-name="lessequal" unicode="&#x2264;" horiz-adv-x="442" 
d="M48 437l346 122v-123l-234 -68l234 -69v-122l-346 121v139zM48 154h346v-112h-346v112z" />
    <glyph glyph-name="greaterequal" unicode="&#x2265;" horiz-adv-x="442" 
d="M394 298l-346 -121v122l233 69l-233 68v123l346 -122v-139zM394 42h-346v112h346v-112z" />
    <glyph glyph-name="yen" unicode="&#xa5;" horiz-adv-x="573" 
d="M62 196h145v48h-145v92h97l-145 278h173l103 -214l102 214h167l-147 -278h96v-92h-144v-48h144v-92h-144v-104h-157v104h-145v92z" />
    <glyph glyph-name="ordfeminine" unicode="&#xaa;" horiz-adv-x="320" 
d="M193 311v15q-8 -8 -28.5 -14.5t-45.5 -6.5q-22 0 -42.5 6.5t-35.5 18.5t-24 31t-9 43q0 45 34 71t84 26q19 0 38.5 -5t28.5 -12v19q0 13 -8 23t-26 10q-27 0 -33 -22h-104q7 47 43 78.5t98 31.5q67 0 103.5 -33t36.5 -94v-186h-110zM193 414q-5 8 -16 13t-24 5
q-14 0 -25 -6.5t-11 -19.5q0 -14 11 -20t25 -6q13 0 24 5t16 14v15z" />
    <glyph glyph-name="ordmasculine" unicode="&#xba;" horiz-adv-x="335" 
d="M328 464q0 -35 -11.5 -64.5t-32.5 -50.5t-50.5 -33t-65.5 -12q-35 0 -65 12t-51 33t-32.5 50.5t-11.5 64.5q0 36 11.5 65t32.5 50.5t51 33t65 11.5q36 0 65.5 -11.5t50.5 -33t32.5 -50.5t11.5 -65zM212 464q0 28 -11.5 46t-32.5 18t-32 -18t-11 -46t11 -45.5t32 -17.5
t32.5 17.5t11.5 45.5z" />
    <glyph glyph-name="ae" unicode="&#xe6;" horiz-adv-x="732" 
d="M221 101q11 0 21.5 2.5t19 7t15.5 11.5t11 16v51h-64q-12 0 -23 -2.5t-19.5 -8t-13.5 -14t-5 -19.5q0 -23 17.5 -33.5t40.5 -10.5zM712 153q-14 -76 -70.5 -119.5t-143.5 -43.5q-48 0 -86 16t-66 40q-14 -11 -30.5 -21t-36.5 -17.5t-43.5 -12t-50.5 -4.5q-33 0 -63 9
t-53 27t-36.5 44t-13.5 59q0 36 15 62.5t40.5 44.5t60 27t74.5 9h79v13q0 22 -14 38.5t-44 16.5q-22 0 -36.5 -10t-19.5 -26h-139q5 33 21 61.5t41 49.5t59.5 32.5t76.5 11.5q44 0 77.5 -13.5t56.5 -35.5q26 21 58.5 35t74.5 14q50 0 89.5 -16.5t67 -46t42.5 -71t15 -92.5
v-44h-291q2 -20 8 -34.5t16 -24.5t23.5 -14.5t29.5 -4.5q24 0 41 10t23 31h148zM498 338q-28 0 -46.5 -17t-25.5 -48h136q-1 13 -5.5 25t-12.5 21t-19.5 14t-26.5 5z" />
    <glyph glyph-name="oslash" unicode="&#xf8;" horiz-adv-x="506" 
d="M430 468l45 -37l-44 -50q21 -26 35 -61q17 -43 17 -95t-17 -95t-47 -74.5t-72.5 -48.5t-93.5 -17t-94 17q-23 9 -42 22l-42 -48l-45 37l45 50q-22 28 -35 62q-17 43 -17 95t17 95.5t47 74.5t72.5 48t93.5 17t93 -17q23 -9 42 -22zM286 326q-14 8 -33 8q-18 0 -32.5 -8
t-24.5 -23t-15.5 -35t-5.5 -43q0 -21 4 -39l118 132q-5 5 -11 8zM332 225q0 21 -5 40l-118 -133q5 -4 11 -7q15 -8 33 -8t32.5 8t25 22.5t16 34.5t5.5 43z" />
    <glyph glyph-name="questiondown" unicode="&#xbf;" horiz-adv-x="475" 
d="M321 436q0 -19 -7.5 -35t-20 -28t-29.5 -18.5t-37 -6.5q-40 0 -67 24.5t-27 63.5q0 38 27 63.5t67 25.5q20 0 37 -7t29.5 -18.5t20 -28t7.5 -35.5zM19 78q0 28 9.5 52t24 45t32 40t33.5 39q17 20 22.5 33.5t5.5 24.5h156q0 -14 -2.5 -25.5t-8 -23.5t-15 -26t-24.5 -31
q-13 -16 -25.5 -30.5t-22 -27.5t-15.5 -26t-6 -28q0 -25 15.5 -40t40.5 -15q28 0 43 17.5t17 42.5h162q-4 -43 -21 -80t-46 -65t-69.5 -44t-92.5 -16q-48 0 -87 13t-67 36.5t-43.5 57.5t-15.5 77z" />
    <glyph glyph-name="exclamdown" unicode="&#xa1;" horiz-adv-x="243" 
d="M59 312h121l35 -408h-191zM26 436q0 19 7.5 35.5t20 28t29.5 18.5t36 7q20 0 37 -7t29.5 -18.5t20 -28t7.5 -35.5q0 -18 -7.5 -34.5t-20 -28.5t-29.5 -18.5t-37 -6.5q-19 0 -36 6.5t-29.5 18.5t-20 28.5t-7.5 34.5z" />
    <glyph glyph-name="florin" unicode="&#x192;" horiz-adv-x="420" 
d="M47 356h80l16 93q16 87 62 131t126 44q21 0 40 -3.5t33 -8.5v-128q-9 5 -19.5 7t-23.5 2q-25 0 -40 -13.5t-19 -39.5l-15 -84h78v-122h-100l-39 -221q-7 -41 -19.5 -73.5t-33.5 -55.5t-51.5 -35t-73.5 -12q-23 0 -42.5 3.5t-33.5 8.5v114q9 -4 20.5 -6.5t21.5 -2.5
q24 0 35.5 13.5t16.5 40.5l39 226h-58v122z" />
    <glyph glyph-name="approxequal" unicode="&#x2248;" horiz-adv-x="549" 
d="M78 245q29 22 55.5 31.5t50.5 9.5q25 0 47 -6.5t43 -14t42.5 -14.5t46.5 -7q24 0 51.5 10t57.5 33v-60q-30 -23 -57.5 -32t-51.5 -9q-25 0 -47 6t-43 14t-42.5 14.5t-46.5 6.5q-24 0 -50.5 -10t-55.5 -32v60zM78 369q29 22 55.5 31.5t50.5 9.5q25 0 47 -6.5t43 -14.5
t42.5 -14.5t46.5 -6.5q24 0 51.5 10t57.5 33v-60q-30 -23 -57.5 -32.5t-51.5 -9.5q-25 0 -47 6.5t-43 14.5t-42.5 14.5t-46.5 6.5q-24 0 -50.5 -10.5t-55.5 -32.5v61z" />
    <glyph glyph-name="guillemotleft" unicode="&#xab;" horiz-adv-x="451" 
d="M426 386l-92 -164l92 -164h-128l-92 164l92 164h128zM245 386l-92 -164l92 -164h-128l-92 164l92 164h128z" />
    <glyph glyph-name="guillemotright" unicode="&#xbb;" horiz-adv-x="451" 
d="M25 58l92 164l-92 164h128l92 -164l-92 -164h-128zM206 58l92 164l-92 164h128l92 -164l-92 -164h-128z" />
    <glyph glyph-name="ellipsis" unicode="&#x2026;" horiz-adv-x="710" 
d="M19 87q0 40 26.5 66.5t65.5 26.5q19 0 36.5 -7t29.5 -19.5t19.5 -29.5t7.5 -37t-7.5 -37t-19.5 -29.5t-29.5 -20t-36.5 -7.5t-36 7.5t-29 20t-19.5 29.5t-7.5 37zM262 87q0 40 26.5 66.5t66.5 26.5q19 0 36 -7t29 -19.5t19.5 -29.5t7.5 -37t-7.5 -37t-19.5 -29.5t-29 -20
t-36 -7.5q-20 0 -36.5 7.5t-29 20t-20 29.5t-7.5 37zM506 87q0 40 26.5 66.5t65.5 26.5q19 0 36.5 -7t29.5 -19.5t19.5 -29.5t7.5 -37t-7.5 -37t-19.5 -29.5t-29.5 -20t-36.5 -7.5t-36 7.5t-29 20t-19.5 29.5t-7.5 37z" />
    <glyph glyph-name="uni00A0" unicode="&#xa0;" horiz-adv-x="199" 
 />
    <glyph glyph-name="Agrave" unicode="&#xc0;" horiz-adv-x="646" 
d="M405 614l234 -614h-163l-44 119h-223l-43 -119h-159l233 614h165zM257 251h127l-63 173zM252 666l-89 130h160l82 -130h-153z" />
    <glyph glyph-name="Atilde" unicode="&#xc3;" horiz-adv-x="646" 
d="M405 614l234 -614h-163l-44 119h-223l-43 -119h-159l233 614h165zM257 251h127l-63 173zM480 809q0 -30 -4.5 -57.5t-14.5 -48t-27 -32.5t-42 -12q-18 0 -33 5.5t-29 12t-27.5 12t-25.5 5.5t-18.5 -8.5t-7.5 -22.5h-85q0 30 4.5 57t14.5 48t27 33t42 12q18 0 33 -5.5
t29 -12t27 -12t26 -5.5q12 0 18.5 8t7.5 23h85z" />
    <glyph glyph-name="Otilde" unicode="&#xd5;" horiz-adv-x="644" 
d="M622 307q0 -69 -22 -127t-61.5 -100t-95 -66t-122.5 -24q-66 0 -121 24t-94.5 66t-61.5 100t-22 127t22 127t61.5 100.5t94.5 66t121 23.5q67 0 122.5 -23.5t95 -66t61.5 -100.5t22 -127zM460 307q0 40 -10 72t-28 55.5t-44 36t-57 12.5t-56 -12.5t-43.5 -36t-28 -55.5
t-9.5 -72t9.5 -72t28 -55.5t43.5 -36t56 -12.5t57 12.5t44 36t28 55.5t10 72zM478 809q0 -30 -4.5 -57.5t-14.5 -48t-27 -32.5t-42 -12q-18 0 -33 5.5t-29 12t-27.5 12t-25.5 5.5t-18.5 -8.5t-7.5 -22.5h-85q0 30 4.5 57t14.5 48t27 33t42 12q18 0 33 -5.5t29 -12t27 -12
t26 -5.5q12 0 18.5 8t7.5 23h85z" />
    <glyph glyph-name="OE" unicode="&#x152;" horiz-adv-x="847" 
d="M813 476h-261v-96h236v-135h-236v-106h261v-139h-482q-72 0 -129 21.5t-97 61.5t-61.5 97t-21.5 127t21.5 127t61.5 97t97 61.5t129 21.5h482v-138zM393 139v337h-54q-38 0 -67.5 -12t-49.5 -34t-30.5 -53t-10.5 -70q0 -38 10.5 -69t30.5 -53t49.5 -34t67.5 -12h54z" />
    <glyph glyph-name="oe" unicode="&#x153;" horiz-adv-x="773" 
d="M542 -10q-45 0 -82 14.5t-65 40.5q-29 -26 -65.5 -40.5t-81.5 -14.5q-51 0 -93.5 17t-72.5 48.5t-47 74.5t-17 95t17 95.5t47 74.5t72.5 48t93.5 17q45 0 82 -14.5t66 -40.5q28 26 63.5 40.5t80.5 14.5q52 0 92 -16.5t67.5 -46t41.5 -71t14 -92.5v-39h-290q2 -21 8 -36
t16 -25.5t23.5 -16t29.5 -5.5q24 0 42 11t24 34h146q-12 -78 -67 -122.5t-145 -44.5zM324 225q0 23 -5 42.5t-15 33.5t-24 22t-32 8t-32 -8t-23.5 -22t-14.5 -33.5t-5 -42.5t5 -42.5t14.5 -33.5t23.5 -21.5t32 -7.5t32 7.5t24 21.5t15 33.5t5 42.5zM540 338q-28 0 -46.5 -17
t-25.5 -48h136q-1 13 -5.5 25t-13 21t-19.5 14t-26 5z" />
    <glyph glyph-name="endash" unicode="&#x2013;" horiz-adv-x="467" 
d="M36 315h395v-107h-395v107z" />
    <glyph glyph-name="emdash" unicode="&#x2014;" horiz-adv-x="838" 
d="M36 315h766v-107h-766v107z" />
    <glyph glyph-name="quotedblleft" unicode="&#x201c;" horiz-adv-x="435" 
d="M134 500q28 -5 48 -26t20 -55q0 -39 -26.5 -63.5t-66.5 -24.5q-37 0 -64.5 25t-27.5 72q0 28 11 54t27 50l54 82h99zM347 500q27 -5 47 -26t20 -55q0 -39 -26 -63.5t-66 -24.5q-37 0 -64.5 25t-27.5 72q0 28 11 54t27 50l53 82h99z" />
    <glyph glyph-name="quotedblright" unicode="&#x201d;" horiz-adv-x="435" 
d="M301 454q-27 6 -47 27t-20 55q0 39 26.5 63.5t65.5 24.5q38 0 65 -25t27 -73q0 -27 -11 -53.5t-26 -49.5l-54 -82h-99zM88 454q-27 6 -47 27t-20 55q0 39 26.5 63.5t66.5 24.5q37 0 64.5 -25t27.5 -73q0 -27 -11 -53.5t-27 -49.5l-54 -82h-99z" />
    <glyph glyph-name="quoteleft" unicode="&#x2018;" horiz-adv-x="223" 
d="M134 500q28 -5 48 -26t20 -55q0 -39 -26.5 -63.5t-66.5 -24.5q-37 0 -64.5 25t-27.5 72q0 28 11 54t27 50l54 82h99z" />
    <glyph glyph-name="quoteright" unicode="&#x2019;" horiz-adv-x="223" 
d="M88 454q-27 6 -47 27t-20 55q0 39 26.5 63.5t66.5 24.5q37 0 64.5 -25t27.5 -73q0 -27 -11 -53.5t-27 -49.5l-54 -82h-99z" />
    <glyph glyph-name="divide" unicode="&#xf7;" horiz-adv-x="555" 
d="M51 357h453v-116h-453v116zM197 479q0 33 23.5 56t57.5 23t57.5 -23t23.5 -56t-23.5 -56t-57.5 -23t-57.5 23t-23.5 56zM197 119q0 33 23.5 56t57.5 23t57.5 -23t23.5 -56t-23.5 -56t-57.5 -23t-57.5 23t-23.5 56z" />
    <glyph glyph-name="ydieresis" unicode="&#xff;" horiz-adv-x="503" 
d="M110 -159l66 170l-169 439h163l87 -256l83 256h156l-232 -609h-154zM92 567q0 32 22.5 54.5t54.5 22.5q16 0 30 -6t24.5 -16.5t16.5 -24.5t6 -30q0 -32 -23 -54t-54 -22q-32 0 -54.5 22t-22.5 54zM269 567q0 32 22.5 54.5t53.5 22.5q16 0 30 -6t24.5 -16.5t17 -24.5
t6.5 -30q0 -32 -23 -54t-55 -22q-31 0 -53.5 22t-22.5 54z" />
    <glyph glyph-name="Ydieresis" unicode="&#x178;" horiz-adv-x="612" 
d="M438 614h168l-221 -396v-218h-161v218l-219 396h174l130 -240zM137 734q0 33 22.5 56t56.5 23q33 0 56 -23t23 -56t-23 -56t-56 -23q-34 0 -56.5 23t-22.5 56zM318 734q0 33 23 56t56 23q32 0 55.5 -23t23.5 -56t-23.5 -56t-55.5 -23q-33 0 -56 23t-23 56z" />
    <glyph glyph-name="fraction" unicode="&#x2044;" horiz-adv-x="216" 
d="M-33 0h-87l369 614h87z" />
    <glyph glyph-name="Euro" unicode="&#x20ac;" horiz-adv-x="569" 
d="M23 286h44v21v23h-44v77h55q3 14 8 28q19 59 53.5 100.5t81.5 65t104 23.5q48 0 85.5 -15t66 -42t46 -64.5t25.5 -82.5h-141q-8 28 -27.5 46.5t-54.5 18.5q-28 0 -48 -13.5t-33 -37.5q-7 -12 -12 -27h134l-15 -77h-132v-23v-21h124l-15 -77h-97q6 -16 13 -29
q13 -24 33 -37.5t48 -13.5q35 0 54.5 18.5t27.5 46.5h141q-8 -45 -25.5 -82.5t-46 -64.5t-66 -42t-85.5 -15q-57 0 -104 23.5t-81.5 65t-53.5 99.5q-5 15 -9 31h-54v77z" />
    <glyph glyph-name="guilsinglleft" unicode="&#x2039;" horiz-adv-x="278" 
d="M117 58l-92 164l92 164h136l-92 -164l92 -164h-136z" />
    <glyph glyph-name="guilsinglright" unicode="&#x203a;" horiz-adv-x="278" 
d="M25 58l92 164l-92 164h136l92 -164l-92 -164h-136z" />
    <glyph glyph-name="daggerdbl" unicode="&#x2021;" horiz-adv-x="350" 
d="M26 429h101v67h-101v87h101v67h96v-67h101v-87h-101v-67h101v-86h-101v-67h-96v67h-101v86z" />
    <glyph glyph-name="periodcentered" unicode="&#xb7;" horiz-adv-x="233" 
d="M24 261q0 41 26.5 67.5t65.5 26.5q19 0 36.5 -7t29.5 -19.5t19.5 -30t7.5 -37.5t-7.5 -37t-19.5 -29.5t-29.5 -20t-36.5 -7.5t-36 7.5t-29 20t-19.5 29.5t-7.5 37z" />
    <glyph glyph-name="quotesinglbase" unicode="&#x201a;" horiz-adv-x="223" 
d="M88 1q-27 5 -47 26t-20 55q0 39 26.5 63.5t66.5 24.5q37 0 64.5 -25t27.5 -73q0 -27 -11 -53t-27 -50l-54 -82h-99z" />
    <glyph glyph-name="quotedblbase" unicode="&#x201e;" horiz-adv-x="435" 
d="M88 1q-27 5 -47 26t-20 55q0 39 26.5 63.5t66.5 24.5q37 0 64.5 -25t27.5 -73q0 -27 -11 -53t-27 -50l-54 -82h-99zM301 1q-27 5 -47 26t-20 55q0 39 26.5 63.5t65.5 24.5q38 0 65 -25t27 -73q0 -27 -11 -53t-26 -50l-54 -82h-99z" />
    <glyph glyph-name="perthousand" unicode="&#x2030;" horiz-adv-x="1002" 
d="M978 138q0 -31 -11.5 -58t-31 -47t-46.5 -31.5t-57 -11.5q-31 0 -58 11.5t-46.5 31.5t-31.5 47t-12 58q0 30 12 56.5t31.5 46.5t46.5 31t58 11q30 0 57 -11t46.5 -31t31 -46.5t11.5 -56.5zM24 476q0 31 11.5 58t31 47t46 31.5t57.5 11.5t58 -11.5t46.5 -31.5t31 -47
t11.5 -58q0 -30 -11.5 -56.5t-31 -46.5t-46.5 -31t-58 -11t-57.5 11t-46 31t-31 46.5t-11.5 56.5zM657 138q0 -31 -11.5 -58t-31 -47t-46 -31.5t-57.5 -11.5q-30 0 -57.5 11.5t-47 31.5t-31 47t-11.5 58q0 30 11.5 56.5t31 46.5t47 31t57.5 11q31 0 57.5 -11t46 -31
t31 -46.5t11.5 -56.5zM493 614h90l-395 -614h-90zM117 476q0 -10 4 -20t11.5 -17t17 -11t20.5 -4t21 4t17 11t11.5 17t4.5 20q0 22 -16 38.5t-38 16.5q-11 0 -20.5 -4.5t-17 -12t-11.5 -17.5t-4 -21zM564 138q0 10 -4 20t-11.5 17t-17 11t-20.5 4t-20.5 -4t-17 -11t-12 -17
t-4.5 -20q0 -22 16 -38.5t38 -16.5q11 0 20.5 4.5t17 12t11.5 17.5t4 21zM884 138q0 10 -4 20t-11 17t-16.5 11t-20.5 4t-21 -4t-17.5 -11t-11.5 -17t-4 -20q0 -22 16 -38.5t38 -16.5q11 0 20.5 4.5t16.5 12t11 17.5t4 21z" />
    <glyph glyph-name="Acircumflex" unicode="&#xc2;" horiz-adv-x="646" 
d="M405 614l234 -614h-163l-44 119h-223l-43 -119h-159l233 614h165zM257 251h127l-63 173zM492 666h-127l-41 45l-42 -45h-127l109 132h119z" />
    <glyph glyph-name="Ecircumflex" unicode="&#xca;" 
d="M486 614v-138h-282v-96h257v-135h-257v-106h282v-139h-440v614h440zM439 666h-127l-41 45l-42 -45h-127l109 132h119z" />
    <glyph glyph-name="Aacute" unicode="&#xc1;" horiz-adv-x="646" 
d="M405 614l234 -614h-163l-44 119h-223l-43 -119h-159l233 614h165zM257 251h127l-63 173zM242 666l82 130h160l-88 -130h-154z" />
    <glyph glyph-name="Edieresis" unicode="&#xcb;" 
d="M486 614v-138h-282v-96h257v-135h-257v-106h282v-139h-440v614h440zM102 734q0 33 22.5 56t56.5 23q33 0 56 -23t23 -56t-23 -56t-56 -23q-34 0 -56.5 23t-22.5 56zM283 734q0 33 23 56t56 23q32 0 55.5 -23t23.5 -56t-23.5 -56t-55.5 -23q-33 0 -56 23t-23 56z" />
    <glyph glyph-name="Egrave" unicode="&#xc8;" 
d="M486 614v-138h-282v-96h257v-135h-257v-106h282v-139h-440v614h440zM200 666l-89 130h160l82 -130h-153z" />
    <glyph glyph-name="Iacute" unicode="&#xcd;" horiz-adv-x="253" 
d="M207 0h-161v614h161v-614zM46 666l82 130h160l-88 -130h-154z" />
    <glyph glyph-name="Icircumflex" unicode="&#xce;" horiz-adv-x="253" 
d="M207 0h-161v614h161v-614zM295 666h-127l-41 45l-42 -45h-127l109 132h119z" />
    <glyph glyph-name="Idieresis" unicode="&#xcf;" horiz-adv-x="253" 
d="M207 0h-161v614h161v-614zM-43 734q0 33 22.5 56t56.5 23q33 0 56 -23t23 -56t-23 -56t-56 -23q-34 0 -56.5 23t-22.5 56zM138 734q0 33 23 56t56 23q32 0 55.5 -23t23.5 -56t-23.5 -56t-55.5 -23q-33 0 -56 23t-23 56z" />
    <glyph glyph-name="Igrave" unicode="&#xcc;" horiz-adv-x="253" 
d="M207 0h-161v614h161v-614zM56 666l-89 130h160l82 -130h-153z" />
    <glyph glyph-name="Oacute" unicode="&#xd3;" horiz-adv-x="644" 
d="M622 307q0 -69 -22 -127t-61.5 -100t-95 -66t-122.5 -24q-66 0 -121 24t-94.5 66t-61.5 100t-22 127t22 127t61.5 100.5t94.5 66t121 23.5q67 0 122.5 -23.5t95 -66t61.5 -100.5t22 -127zM460 307q0 40 -10 72t-28 55.5t-44 36t-57 12.5t-56 -12.5t-43.5 -36t-28 -55.5
t-9.5 -72t9.5 -72t28 -55.5t43.5 -36t56 -12.5t57 12.5t44 36t28 55.5t10 72zM240 666l82 130h160l-88 -130h-154z" />
    <glyph glyph-name="Ocircumflex" unicode="&#xd4;" horiz-adv-x="644" 
d="M622 307q0 -69 -22 -127t-61.5 -100t-95 -66t-122.5 -24q-66 0 -121 24t-94.5 66t-61.5 100t-22 127t22 127t61.5 100.5t94.5 66t121 23.5q67 0 122.5 -23.5t95 -66t61.5 -100.5t22 -127zM460 307q0 40 -10 72t-28 55.5t-44 36t-57 12.5t-56 -12.5t-43.5 -36t-28 -55.5
t-9.5 -72t9.5 -72t28 -55.5t43.5 -36t56 -12.5t57 12.5t44 36t28 55.5t10 72zM490 666h-127l-41 45l-42 -45h-127l109 132h119z" />
    <glyph glyph-name="Ograve" unicode="&#xd2;" horiz-adv-x="644" 
d="M622 307q0 -69 -22 -127t-61.5 -100t-95 -66t-122.5 -24q-66 0 -121 24t-94.5 66t-61.5 100t-22 127t22 127t61.5 100.5t94.5 66t121 23.5q67 0 122.5 -23.5t95 -66t61.5 -100.5t22 -127zM460 307q0 40 -10 72t-28 55.5t-44 36t-57 12.5t-56 -12.5t-43.5 -36t-28 -55.5
t-9.5 -72t9.5 -72t28 -55.5t43.5 -36t56 -12.5t57 12.5t44 36t28 55.5t10 72zM251 666l-89 130h160l82 -130h-153z" />
    <glyph glyph-name="Uacute" unicode="&#xda;" horiz-adv-x="613" 
d="M307 -10q-61 0 -110.5 17t-84.5 50t-54 82t-19 112v363h160v-348q0 -33 7.5 -57.5t21 -41.5t33.5 -25t46 -8q24 0 44 8t34 25t21.5 41.5t7.5 57.5v348h160v-364q0 -63 -19 -111.5t-54 -81.5t-84.5 -50t-109.5 -17zM226 666l82 130h160l-88 -130h-154z" />
    <glyph glyph-name="Ucircumflex" unicode="&#xdb;" horiz-adv-x="613" 
d="M307 -10q-61 0 -110.5 17t-84.5 50t-54 82t-19 112v363h160v-348q0 -33 7.5 -57.5t21 -41.5t33.5 -25t46 -8q24 0 44 8t34 25t21.5 41.5t7.5 57.5v348h160v-364q0 -63 -19 -111.5t-54 -81.5t-84.5 -50t-109.5 -17zM475 666h-127l-41 45l-42 -45h-127l109 132h119z" />
    <glyph glyph-name="Ugrave" unicode="&#xd9;" horiz-adv-x="613" 
d="M307 -10q-61 0 -110.5 17t-84.5 50t-54 82t-19 112v363h160v-348q0 -33 7.5 -57.5t21 -41.5t33.5 -25t46 -8q24 0 44 8t34 25t21.5 41.5t7.5 57.5v348h160v-364q0 -63 -19 -111.5t-54 -81.5t-84.5 -50t-109.5 -17zM236 666l-89 130h160l82 -130h-153z" />
    <glyph glyph-name="dotlessi" unicode="&#x131;" horiz-adv-x="241" 
d="M199 0h-157v450h157v-450z" />
    <glyph glyph-name="circumflex" unicode="&#x2c6;" horiz-adv-x="500" 
d="M406 498h-117l-39 55l-40 -55h-116l96 151h120z" />
    <glyph glyph-name="tilde" unicode="&#x2dc;" horiz-adv-x="500" 
d="M399 647q0 -31 -4.5 -58t-15 -47.5t-27.5 -32.5t-42 -12q-17 0 -30 5.5t-24 12.5t-21.5 12.5t-22.5 5.5t-18.5 -9t-7.5 -24h-85q0 31 4.5 58t14.5 47.5t27 32.5t42 12q17 0 30 -5.5t24.5 -12.5t22 -12.5t22.5 -5.5q11 0 18 9t7 24h86z" />
    <glyph glyph-name="macron" unicode="&#xaf;" horiz-adv-x="500" 
d="M123 613h253v-109h-253v109z" />
    <glyph glyph-name="breve" unicode="&#x2d8;" horiz-adv-x="500" 
d="M250 488q-31 0 -57 9.5t-45.5 28.5t-30 47t-10.5 65h108q0 -22 9 -34.5t26 -12.5q19 0 27.5 12.5t8.5 34.5h108q0 -37 -10.5 -65t-30 -47t-45.5 -28.5t-58 -9.5z" />
    <glyph glyph-name="dotaccent" unicode="&#x2d9;" horiz-adv-x="500" 
d="M339 579q0 -39 -26 -61.5t-63 -22.5q-36 0 -62.5 22.5t-26.5 61.5q0 40 26.5 62.5t62.5 22.5q37 0 63 -22.5t26 -62.5z" />
    <glyph glyph-name="ring" unicode="&#x2da;" horiz-adv-x="500" 
d="M358 590q0 -23 -8 -42t-23 -33t-34.5 -22t-42.5 -8t-42.5 8t-34 22t-23 33t-8.5 42q0 22 8.5 41t23 33.5t34 22.5t42.5 8t42.5 -8t34.5 -22.5t23 -33.5t8 -41zM287 590q0 15 -10.5 25.5t-26.5 10.5q-15 0 -25 -10.5t-10 -25.5t10 -25.5t25 -10.5q16 0 26.5 10.5
t10.5 25.5z" />
    <glyph glyph-name="cedilla" unicode="&#xb8;" horiz-adv-x="500" 
d="M141 -181l68 141h136l-71 -141h-133z" />
    <glyph glyph-name="hungarumlaut" unicode="&#x2dd;" horiz-adv-x="500" 
d="M71 500l76 150h122l-76 -150h-122zM229 500l76 150h123l-77 -150h-122z" />
    <glyph glyph-name="ogonek" unicode="&#x2db;" horiz-adv-x="500" 
d="M326 8q-17 -20 -28 -33t-17.5 -22t-9 -15t-2.5 -13q0 -9 5 -13.5t14 -4.5t16 3t19 11v-87q-13 -8 -28.5 -13.5t-36.5 -5.5q-20 0 -37 5t-29 15t-19 25t-7 34q0 15 5 29.5t13.5 28.5t20 27.5t24.5 28.5h97z" />
    <glyph glyph-name="caron" unicode="&#x2c7;" horiz-adv-x="500" 
d="M310 498h-120l-96 151h116l40 -55l39 55h117z" />
    <glyph glyph-name="Eth" unicode="&#xd0;" horiz-adv-x="626" 
d="M17 375h46v239h232q72 0 129.5 -21.5t97.5 -61.5t61 -97t21 -127t-21 -127t-61 -97t-97.5 -61.5t-129.5 -21.5h-232v251h-46v124zM287 139q38 0 67.5 12t49.5 34t30.5 53t10.5 69q0 39 -10.5 70t-30.5 53t-49.5 34t-67.5 12h-66v-101h87v-124h-87v-112h66z" />
    <glyph glyph-name="acute.cap" horiz-adv-x="500" 
d="M128 666l82 130h160l-88 -130h-154z" />
    <glyph glyph-name="Abreve" unicode="&#x102;" horiz-adv-x="646" 
d="M405 614l234 -614h-163l-44 119h-223l-43 -119h-159l233 614h165zM257 251h127l-63 173zM323 658q-31 0 -57.5 9.5t-46 28t-30 45.5t-10.5 63h108q0 -21 10 -31.5t26 -10.5q18 0 27.5 10.5t9.5 31.5h108q0 -36 -11 -63t-30 -45.5t-45.5 -28t-58.5 -9.5z" />
    <glyph glyph-name="breve.cap" horiz-adv-x="500" 
d="M250 658q-31 0 -57.5 9.5t-46 28t-30 45.5t-10.5 63h108q0 -21 10 -31.5t26 -10.5q18 0 27.5 10.5t9.5 31.5h108q0 -36 -11 -63t-30 -45.5t-45.5 -28t-58.5 -9.5z" />
    <glyph glyph-name="circumflex.cap" horiz-adv-x="500" 
d="M419 666h-127l-41 45l-42 -45h-127l109 132h119z" />
    <glyph glyph-name="dieresis.cap" horiz-adv-x="500" 
d="M80 734q0 33 22.5 56t56.5 23q33 0 56 -23t23 -56t-23 -56t-56 -23q-34 0 -56.5 23t-22.5 56zM261 734q0 33 23 56t56 23q32 0 55.5 -23t23.5 -56t-23.5 -56t-55.5 -23q-33 0 -56 23t-23 56z" />
    <glyph glyph-name="grave.cap" horiz-adv-x="500" 
d="M217 666l-89 130h160l82 -130h-153z" />
    <glyph glyph-name="Amacron" unicode="&#x100;" horiz-adv-x="646" 
d="M405 614l234 -614h-163l-44 119h-223l-43 -119h-159l233 614h165zM257 251h127l-63 173zM191 774h266v-108h-266v108z" />
    <glyph glyph-name="macron.cap" horiz-adv-x="500" 
d="M117 774h266v-108h-266v108z" />
    <glyph glyph-name="Aogonek" unicode="&#x104;" horiz-adv-x="646" 
d="M405 614l234 -614q-16 -19 -26 -30t-16 -19t-8 -13.5t-2 -12.5q0 -9 5 -13.5t15 -4.5q8 0 15.5 3t19.5 11v-87q-13 -8 -28.5 -13.5t-36.5 -5.5q-20 0 -37 5t-29.5 15t-19.5 25t-7 34q0 15 4.5 28t12 26t17.5 26t22 26h-64l-44 119h-223l-43 -119h-159l233 614h165z
M257 251h127l-63 173z" />
    <glyph glyph-name="ring.cap" horiz-adv-x="500" 
d="M358 747q0 -23 -8 -42t-23 -32.5t-34.5 -22t-42.5 -8.5t-42.5 8.5t-34 22t-23 32.5t-8.5 42q0 22 8.5 41.5t23 33.5t34 22.5t42.5 8.5t42.5 -8.5t34.5 -22.5t23 -33.5t8 -41.5zM287 747q0 15 -10.5 25.5t-26.5 10.5q-15 0 -25 -10.5t-10 -25.5t10 -25.5t25 -10.5
q16 0 26.5 10.5t10.5 25.5z" />
    <glyph glyph-name="Aringacute" unicode="&#x1fa;" horiz-adv-x="646" 
d="M427 717q0 -36 -30.5 -61t-75.5 -25q-46 0 -76.5 25t-30.5 61q0 18 8 34t22.5 27.5t34 18t42.5 6.5q22 0 41.5 -6.5t34 -18t22.5 -27.5t8 -34zM247 821l64 102h160l-70 -102h-154zM357 717q0 12 -10.5 20.5t-25.5 8.5q-16 0 -26.5 -8.5t-10.5 -20.5t10.5 -20.5t26.5 -8.5
q15 0 25.5 8.5t10.5 20.5zM405 614l234 -614h-163l-44 119h-223l-43 -119h-159l233 614h165zM257 251h127l-63 173z" />
    <glyph glyph-name="tilde.cap" horiz-adv-x="500" 
d="M407 809q0 -30 -4.5 -57.5t-14.5 -48t-27 -32.5t-42 -12q-18 0 -33 5.5t-29 12t-27.5 12t-25.5 5.5t-18.5 -8.5t-7.5 -22.5h-85q0 30 4.5 57t14.5 48t27 33t42 12q18 0 33 -5.5t29 -12t27 -12t26 -5.5q12 0 18.5 8t7.5 23h85z" />
    <glyph glyph-name="AEacute" unicode="&#x1fc;" horiz-adv-x="898" 
d="M242 119l-66 -119h-169l344 614h513v-138h-261v-96h236v-135h-236v-106h261v-139h-420v119h-202zM444 484l-129 -233h129v233zM517 666l82 130h160l-88 -130h-154z" />
    <glyph glyph-name="Cacute" unicode="&#x106;" horiz-adv-x="603" 
d="M22 307q0 70 22 128t61 100t93.5 65.5t118.5 23.5q58 0 103.5 -16.5t78.5 -45t54 -68t29 -86.5h-160q-12 34 -37.5 54.5t-67.5 20.5q-32 0 -56.5 -13.5t-41.5 -37t-26 -55.5t-9 -70t9 -70t26 -55t41.5 -36.5t56.5 -13.5q42 0 67.5 20t37.5 55h160q-8 -47 -29 -87
t-54 -68.5t-78.5 -45t-103.5 -16.5q-64 0 -118.5 23.5t-93.5 65.5t-61 100t-22 128zM244 666l82 130h160l-88 -130h-154z" />
    <glyph glyph-name="Ccaron" unicode="&#x10c;" horiz-adv-x="603" 
d="M22 307q0 70 22 128t61 100t93.5 65.5t118.5 23.5q58 0 103.5 -16.5t78.5 -45t54 -68t29 -86.5h-160q-12 34 -37.5 54.5t-67.5 20.5q-32 0 -56.5 -13.5t-41.5 -37t-26 -55.5t-9 -70t9 -70t26 -55t41.5 -36.5t56.5 -13.5q42 0 67.5 20t37.5 55h160q-8 -47 -29 -87
t-54 -68.5t-78.5 -45t-103.5 -16.5q-64 0 -118.5 23.5t-93.5 65.5t-61 100t-22 128zM154 796h127l42 -46l41 46h127l-109 -133h-119z" />
    <glyph glyph-name="caron.cap" horiz-adv-x="500" 
d="M82 796h127l42 -46l41 46h127l-109 -133h-119z" />
    <glyph glyph-name="Ccircumflex" unicode="&#x108;" horiz-adv-x="603" 
d="M22 307q0 70 22 128t61 100t93.5 65.5t118.5 23.5q58 0 103.5 -16.5t78.5 -45t54 -68t29 -86.5h-160q-12 34 -37.5 54.5t-67.5 20.5q-32 0 -56.5 -13.5t-41.5 -37t-26 -55.5t-9 -70t9 -70t26 -55t41.5 -36.5t56.5 -13.5q42 0 67.5 20t37.5 55h160q-8 -47 -29 -87
t-54 -68.5t-78.5 -45t-103.5 -16.5q-64 0 -118.5 23.5t-93.5 65.5t-61 100t-22 128zM492 666h-127l-41 45l-42 -45h-127l109 132h119z" />
    <glyph glyph-name="Cdotaccent" unicode="&#x10a;" horiz-adv-x="603" 
d="M22 307q0 70 22 128t61 100t93.5 65.5t118.5 23.5q58 0 103.5 -16.5t78.5 -45t54 -68t29 -86.5h-160q-12 34 -37.5 54.5t-67.5 20.5q-32 0 -56.5 -13.5t-41.5 -37t-26 -55.5t-9 -70t9 -70t26 -55t41.5 -36.5t56.5 -13.5q42 0 67.5 20t37.5 55h160q-8 -47 -29 -87
t-54 -68.5t-78.5 -45t-103.5 -16.5q-64 0 -118.5 23.5t-93.5 65.5t-61 100t-22 128zM410 743q0 -40 -26 -62.5t-63 -22.5q-36 0 -62.5 22.5t-26.5 62.5q0 39 26.5 61.5t62.5 22.5q37 0 63 -22.5t26 -61.5z" />
    <glyph glyph-name="dotaccent.cap" horiz-adv-x="500" 
d="M339 743q0 -40 -26 -62.5t-63 -22.5q-36 0 -62.5 22.5t-26.5 62.5q0 39 26.5 61.5t62.5 22.5q37 0 63 -22.5t26 -61.5z" />
    <glyph glyph-name="Dcaron" unicode="&#x10e;" horiz-adv-x="610" 
d="M271 139q37 0 66.5 12t50 34t31 53t10.5 69q0 39 -10.5 70t-31 53t-50 34t-66.5 12h-67v-337h67zM46 614h232q73 0 130 -21.5t97 -61.5t61.5 -97t21.5 -127t-21.5 -127t-61.5 -97t-97 -61.5t-130 -21.5h-232v614zM103 796h127l42 -46l41 46h127l-109 -133h-119z" />
    <glyph glyph-name="Dcroat" unicode="&#x110;" horiz-adv-x="626" 
d="M17 375h46v239h232q72 0 129.5 -21.5t97.5 -61.5t61 -97t21 -127t-21 -127t-61 -97t-97.5 -61.5t-129.5 -21.5h-232v251h-46v124zM287 139q38 0 67.5 12t49.5 34t30.5 53t10.5 69q0 39 -10.5 70t-30.5 53t-49.5 34t-67.5 12h-66v-101h87v-124h-87v-112h66z" />
    <glyph glyph-name="Ebreve" unicode="&#x114;" 
d="M486 614v-138h-282v-96h257v-135h-257v-106h282v-139h-440v614h440zM271 658q-31 0 -57.5 9.5t-46 28t-30 45.5t-10.5 63h108q0 -21 10 -31.5t26 -10.5q18 0 27.5 10.5t9.5 31.5h108q0 -36 -11 -63t-30 -45.5t-45.5 -28t-58.5 -9.5z" />
    <glyph glyph-name="Ecaron" unicode="&#x11a;" 
d="M486 614v-138h-282v-96h257v-135h-257v-106h282v-139h-440v614h440zM104 796h127l42 -46l41 46h127l-109 -133h-119z" />
    <glyph glyph-name="Edotaccent" unicode="&#x116;" 
d="M486 614v-138h-282v-96h257v-135h-257v-106h282v-139h-440v614h440zM360 743q0 -40 -26 -62.5t-63 -22.5q-36 0 -62.5 22.5t-26.5 62.5q0 39 26.5 61.5t62.5 22.5q37 0 63 -22.5t26 -61.5z" />
    <glyph glyph-name="Emacron" unicode="&#x112;" 
d="M486 614v-138h-282v-96h257v-135h-257v-106h282v-139h-440v614h440zM138 774h266v-108h-266v108z" />
    <glyph glyph-name="Eogonek" unicode="&#x118;" 
d="M486 614v-138h-282v-96h257v-135h-257v-106h282v-139h-440v614h440zM457 8q-17 -20 -28 -33t-17.5 -22t-9 -15t-2.5 -13q0 -9 5 -13.5t14 -4.5t16 3t19 11v-87q-13 -8 -28.5 -13.5t-36.5 -5.5q-20 0 -37 5t-29 15t-19 25t-7 34q0 15 5 29.5t13.5 28.5t20 27.5t24.5 28.5
h97z" />
    <glyph glyph-name="Gbreve" unicode="&#x11e;" horiz-adv-x="624" 
d="M347 208v120h255v-61q0 -64 -20 -115t-56.5 -87.5t-87.5 -55.5t-112 -19q-67 0 -123 23.5t-96 65t-62.5 100t-22.5 128.5t22.5 128.5t62.5 100t95.5 65t122.5 23.5q59 0 105.5 -16t80.5 -45t55.5 -68.5t29.5 -86.5h-164q-12 35 -38 55t-69 20q-34 0 -60 -13.5t-44 -36.5
t-27.5 -55.5t-9.5 -70.5q0 -39 9.5 -71.5t28.5 -55.5t45 -36t59 -13q46 0 75.5 21t40.5 56h-95zM327 658q-31 0 -57.5 9.5t-46 28t-30 45.5t-10.5 63h108q0 -21 10 -31.5t26 -10.5q18 0 27.5 10.5t9.5 31.5h108q0 -36 -11 -63t-30 -45.5t-45.5 -28t-58.5 -9.5z" />
    <glyph glyph-name="Gcircumflex" unicode="&#x11c;" horiz-adv-x="624" 
d="M347 208v120h255v-61q0 -64 -20 -115t-56.5 -87.5t-87.5 -55.5t-112 -19q-67 0 -123 23.5t-96 65t-62.5 100t-22.5 128.5t22.5 128.5t62.5 100t95.5 65t122.5 23.5q59 0 105.5 -16t80.5 -45t55.5 -68.5t29.5 -86.5h-164q-12 35 -38 55t-69 20q-34 0 -60 -13.5t-44 -36.5
t-27.5 -55.5t-9.5 -70.5q0 -39 9.5 -71.5t28.5 -55.5t45 -36t59 -13q46 0 75.5 21t40.5 56h-95zM494 666h-127l-41 45l-42 -45h-127l109 132h119z" />
    <glyph glyph-name="Gcommaaccent" unicode="&#x122;" horiz-adv-x="624" 
d="M347 208v120h255v-61q0 -64 -20 -115t-56.5 -87.5t-87.5 -55.5t-112 -19q-67 0 -123 23.5t-96 65t-62.5 100t-22.5 128.5t22.5 128.5t62.5 100t95.5 65t122.5 23.5q59 0 105.5 -16t80.5 -45t55.5 -68.5t29.5 -86.5h-164q-12 35 -38 55t-69 20q-34 0 -60 -13.5t-44 -36.5
t-27.5 -55.5t-9.5 -70.5q0 -39 9.5 -71.5t28.5 -55.5t45 -36t59 -13q46 0 75.5 21t40.5 56h-95zM292 -172q-20 6 -34.5 23t-14.5 44q0 32 23.5 52t58.5 20q32 0 56 -20.5t24 -57.5q0 -26 -11 -46.5t-28 -41.5l-29 -37h-95z" />
    <glyph glyph-name="commaaccent" horiz-adv-x="500" 
d="M220 -172q-20 6 -34.5 23t-14.5 44q0 32 23.5 52t58.5 20q32 0 56 -20.5t24 -57.5q0 -26 -11 -46.5t-28 -41.5l-29 -37h-95z" />
    <glyph glyph-name="Gdotaccent" unicode="&#x120;" horiz-adv-x="624" 
d="M347 208v120h255v-61q0 -64 -20 -115t-56.5 -87.5t-87.5 -55.5t-112 -19q-67 0 -123 23.5t-96 65t-62.5 100t-22.5 128.5t22.5 128.5t62.5 100t95.5 65t122.5 23.5q59 0 105.5 -16t80.5 -45t55.5 -68.5t29.5 -86.5h-164q-12 35 -38 55t-69 20q-34 0 -60 -13.5t-44 -36.5
t-27.5 -55.5t-9.5 -70.5q0 -39 9.5 -71.5t28.5 -55.5t45 -36t59 -13q46 0 75.5 21t40.5 56h-95zM416 743q0 -40 -26 -62.5t-63 -22.5q-36 0 -62.5 22.5t-26.5 62.5q0 39 26.5 61.5t62.5 22.5q37 0 63 -22.5t26 -61.5z" />
    <glyph glyph-name="Hbar" unicode="&#x126;" horiz-adv-x="683" 
d="M17 534h45v80h161v-80h237v80h161v-80h44v-123h-44v-411h-161v198h-237v-198h-161v411h-45v123zM460 321v90h-237v-90h237z" />
    <glyph glyph-name="Hcircumflex" unicode="&#x124;" horiz-adv-x="651" 
d="M605 614v-614h-161v243h-237v-243h-161v614h161v-233h237v233h161zM493 666h-127l-41 45l-42 -45h-127l109 132h119z" />
    <glyph glyph-name="Ibreve" unicode="&#x12c;" horiz-adv-x="253" 
d="M207 0h-161v614h161v-614zM126 658q-31 0 -57.5 9.5t-46 28t-30 45.5t-10.5 63h108q0 -21 10 -31.5t26 -10.5q18 0 27.5 10.5t9.5 31.5h108q0 -36 -11 -63t-30 -45.5t-45.5 -28t-58.5 -9.5z" />
    <glyph glyph-name="Idotaccent" unicode="&#x130;" horiz-adv-x="253" 
d="M207 0h-161v614h161v-614zM215 743q0 -40 -26 -62.5t-63 -22.5q-36 0 -62.5 22.5t-26.5 62.5q0 39 26.5 61.5t62.5 22.5q37 0 63 -22.5t26 -61.5z" />
    <glyph glyph-name="Imacron" unicode="&#x12a;" horiz-adv-x="253" 
d="M207 0h-161v614h161v-614zM-6 774h266v-108h-266v108z" />
    <glyph glyph-name="Iogonek" unicode="&#x12e;" horiz-adv-x="253" 
d="M207 0q-15 -19 -25.5 -30t-16 -19t-8 -13.5t-2.5 -12.5q0 -9 5.5 -13.5t14.5 -4.5t16 3t19 11v-87q-13 -8 -28.5 -13.5t-36.5 -5.5q-20 0 -37 5t-29 15t-19 25t-7 34q0 15 4 28t11.5 26t18 26t21.5 26h-62v614h161v-614z" />
    <glyph glyph-name="Itilde" unicode="&#x128;" horiz-adv-x="253" 
d="M207 0h-161v614h161v-614zM283 809q0 -30 -4.5 -57.5t-14.5 -48t-27 -32.5t-42 -12q-18 0 -33 5.5t-29 12t-27.5 12t-25.5 5.5t-18.5 -8.5t-7.5 -22.5h-85q0 30 4.5 57t14.5 48t27 33t42 12q18 0 33 -5.5t29 -12t27 -12t26 -5.5q12 0 18.5 8t7.5 23h85z" />
    <glyph glyph-name="Jcircumflex" unicode="&#x134;" horiz-adv-x="541" 
d="M178 218q3 -41 23.5 -62.5t56.5 -21.5q22 0 38 6.5t26 19.5t14.5 32t4.5 45v377h161v-378q0 -64 -18 -110.5t-51 -76.5t-77.5 -44.5t-96.5 -14.5q-56 0 -100.5 16.5t-76 47t-48.5 72t-19 92.5h163zM591 666h-127l-42 45l-41 -45h-127l108 132h120z" />
    <glyph glyph-name="Kcommaaccent" unicode="&#x136;" horiz-adv-x="609" 
d="M207 362l198 252h189l-215 -269l224 -345h-190l-154 236l-52 -65v-171h-161v614h161v-252zM263 -172q-20 6 -34.5 23t-14.5 44q0 32 23.5 52t58.5 20q32 0 56 -20.5t24 -57.5q0 -26 -11 -46.5t-28 -41.5l-29 -37h-95z" />
    <glyph glyph-name="Lacute" unicode="&#x139;" horiz-adv-x="510" 
d="M46 614h161v-475h275v-139h-436v614zM56 666l82 130h160l-88 -130h-154z" />
    <glyph glyph-name="Lcaron" unicode="&#x13d;" horiz-adv-x="510" 
d="M46 614h161v-475h275v-139h-436v614zM265 447l43 167h122l-44 -167h-121z" />
    <glyph glyph-name="caron.Slovak" horiz-adv-x="500" 
d="M161 483l43 167h122l-44 -167h-121z" />
    <glyph glyph-name="Lcommaaccent" unicode="&#x13b;" horiz-adv-x="510" 
d="M46 614h161v-475h275v-139h-436v614zM235 -172q-20 6 -34.5 23t-14.5 44q0 32 23.5 52t58.5 20q32 0 56 -20.5t24 -57.5q0 -26 -11 -46.5t-28 -41.5l-29 -37h-95z" />
    <glyph glyph-name="Ldot" unicode="&#x13f;" horiz-adv-x="510" 
d="M46 614h161v-475h275v-139h-436v614zM463 346q0 -39 -26 -61.5t-63 -22.5q-36 0 -62.5 22.5t-26.5 61.5q0 40 26.5 62.5t62.5 22.5q37 0 63 -22.5t26 -62.5z" />
    <glyph glyph-name="Nacute" unicode="&#x143;" horiz-adv-x="634" 
d="M588 0h-130l-257 358v-358h-155v614h151l236 -337v337h155v-614zM236 666l82 130h160l-88 -130h-154z" />
    <glyph glyph-name="Ncaron" unicode="&#x147;" horiz-adv-x="634" 
d="M588 0h-130l-257 358v-358h-155v614h151l236 -337v337h155v-614zM148 796h127l42 -46l41 46h127l-109 -133h-119z" />
    <glyph glyph-name="Ncommaaccent" unicode="&#x145;" horiz-adv-x="634" 
d="M588 0h-130l-257 358v-358h-155v614h151l236 -337v337h155v-614zM284 -172q-20 6 -34.5 23t-14.5 44q0 32 23.5 52t58.5 20q32 0 56 -20.5t24 -57.5q0 -26 -11 -46.5t-28 -41.5l-29 -37h-95z" />
    <glyph glyph-name="Eng" unicode="&#x14a;" horiz-adv-x="634" 
d="M281 -18q15 -8 31.5 -12t35.5 -4q38 0 56.5 18.5t21.5 59.5l-225 314v-358h-155v614h151l236 -337v337h155v-561q0 -59 -15 -102t-43 -70.5t-68 -40.5t-90 -13q-26 0 -48.5 4.5t-42.5 10.5v140z" />
    <glyph glyph-name="Obreve" unicode="&#x14e;" horiz-adv-x="644" 
d="M622 307q0 -69 -22 -127t-61.5 -100t-95 -66t-122.5 -24q-66 0 -121 24t-94.5 66t-61.5 100t-22 127t22 127t61.5 100.5t94.5 66t121 23.5q67 0 122.5 -23.5t95 -66t61.5 -100.5t22 -127zM460 307q0 40 -10 72t-28 55.5t-44 36t-57 12.5t-56 -12.5t-43.5 -36t-28 -55.5
t-9.5 -72t9.5 -72t28 -55.5t43.5 -36t56 -12.5t57 12.5t44 36t28 55.5t10 72zM321 658q-31 0 -57.5 9.5t-46 28t-30 45.5t-10.5 63h108q0 -21 10 -31.5t26 -10.5q18 0 27.5 10.5t9.5 31.5h108q0 -36 -11 -63t-30 -45.5t-45.5 -28t-58.5 -9.5z" />
    <glyph glyph-name="Ohungarumlaut" unicode="&#x150;" horiz-adv-x="644" 
d="M622 307q0 -69 -22 -127t-61.5 -100t-95 -66t-122.5 -24q-66 0 -121 24t-94.5 66t-61.5 100t-22 127t22 127t61.5 100.5t94.5 66t121 23.5q67 0 122.5 -23.5t95 -66t61.5 -100.5t22 -127zM460 307q0 40 -10 72t-28 55.5t-44 36t-57 12.5t-56 -12.5t-43.5 -36t-28 -55.5
t-9.5 -72t9.5 -72t28 -55.5t43.5 -36t56 -12.5t57 12.5t44 36t28 55.5t10 72zM175 666l76 130h130l-77 -130h-129zM342 666l75 130h130l-76 -130h-129z" />
    <glyph glyph-name="hungarumlaut.cap" horiz-adv-x="500" 
d="M63 666l76 130h130l-77 -130h-129zM230 666l75 130h130l-76 -130h-129z" />
    <glyph glyph-name="Omacron" unicode="&#x14c;" horiz-adv-x="644" 
d="M622 307q0 -69 -22 -127t-61.5 -100t-95 -66t-122.5 -24q-66 0 -121 24t-94.5 66t-61.5 100t-22 127t22 127t61.5 100.5t94.5 66t121 23.5q67 0 122.5 -23.5t95 -66t61.5 -100.5t22 -127zM460 307q0 40 -10 72t-28 55.5t-44 36t-57 12.5t-56 -12.5t-43.5 -36t-28 -55.5
t-9.5 -72t9.5 -72t28 -55.5t43.5 -36t56 -12.5t57 12.5t44 36t28 55.5t10 72zM189 774h266v-108h-266v108z" />
    <glyph glyph-name="Oslashacute" unicode="&#x1fe;" horiz-adv-x="652" 
d="M563 625l56 -47l-59 -65q27 -35 44 -79q22 -58 22 -127t-22 -127t-61.5 -100t-95 -66t-122.5 -24q-66 0 -121 24q-33 14 -60 35l-54 -60l-56 47l58 64q-27 35 -44 80q-22 58 -22 127t22 127t61.5 100.5t94.5 66t121 23.5q67 0 122 -24q34 -14 62 -36zM383 470
q-26 13 -58 13q-31 0 -56 -12.5t-43.5 -36t-28 -55.5t-9.5 -72t9 -72l4 -13l208 231q-12 10 -26 17zM464 307q0 40 -10 72q-1 6 -3 11l-208 -231q11 -9 24 -16q26 -12 58 -12q31 0 57 12.5t44 36t28 55.5t10 72zM245 666l82 130h160l-88 -130h-154z" />
    <glyph glyph-name="Racute" unicode="&#x154;" horiz-adv-x="574" 
d="M205 203v-203h-159v614h276q50 0 91 -14t70.5 -40.5t45.5 -65.5t16 -89q0 -49 -16 -86.5t-46 -63.5q-26 -22 -60 -35l144 -220h-178l-128 203h-56zM205 331h100q43 0 63 20t20 54t-20 54t-63 20h-100v-148zM203 666l82 130h160l-88 -130h-154z" />
    <glyph glyph-name="Rcaron" unicode="&#x158;" horiz-adv-x="574" 
d="M205 203v-203h-159v614h276q50 0 91 -14t70.5 -40.5t45.5 -65.5t16 -89q0 -49 -16 -86.5t-46 -63.5q-26 -22 -60 -35l144 -220h-178l-128 203h-56zM205 331h100q43 0 63 20t20 54t-20 54t-63 20h-100v-148zM115 796h127l42 -46l41 46h127l-109 -133h-119z" />
    <glyph glyph-name="Rcommaaccent" unicode="&#x156;" horiz-adv-x="574" 
d="M205 203v-203h-159v614h276q50 0 91 -14t70.5 -40.5t45.5 -65.5t16 -89q0 -49 -16 -86.5t-46 -63.5q-26 -22 -60 -35l144 -220h-178l-128 203h-56zM205 331h100q43 0 63 20t20 54t-20 54t-63 20h-100v-148zM250 -172q-20 6 -34.5 23t-14.5 44q0 32 23.5 52t58.5 20
q32 0 56 -20.5t24 -57.5q0 -26 -11 -46.5t-28 -41.5l-29 -37h-95z" />
    <glyph glyph-name="Sacute" unicode="&#x15a;" horiz-adv-x="543" 
d="M179 182q10 -32 35.5 -47.5t63.5 -15.5q18 0 33.5 4t26 11.5t17 18.5t6.5 25q0 22 -14.5 33t-43.5 18l-118 25q-34 7 -63.5 20t-50.5 33.5t-33 49.5t-12 68q0 45 18 82t50 62.5t75 40t93 14.5q57 0 101 -14.5t75.5 -40t50.5 -59.5t26 -74h-158q-9 26 -31.5 42.5
t-62.5 16.5q-17 0 -31 -3t-24 -10.5t-15.5 -17t-5.5 -22.5q0 -10 3 -18t10 -14t16.5 -10t21.5 -7l120 -28q79 -19 121 -62.5t42 -114.5q0 -47 -18.5 -84t-51 -62t-76 -38.5t-94.5 -13.5q-111 0 -182 50.5t-87 141.5h167zM189 666l82 130h160l-88 -130h-154z" />
    <glyph glyph-name="Scedilla" unicode="&#x15e;" horiz-adv-x="543" 
d="M179 182q10 -32 35.5 -47.5t63.5 -15.5q18 0 33.5 4t26 11.5t17 18.5t6.5 25q0 22 -14.5 33t-43.5 18l-118 25q-34 7 -63.5 20t-50.5 33.5t-33 49.5t-12 68q0 45 18 82t50 62.5t75 40t93 14.5q57 0 101 -14.5t75.5 -40t50.5 -59.5t26 -74h-158q-9 26 -31.5 42.5
t-62.5 16.5q-17 0 -31 -3t-24 -10.5t-15.5 -17t-5.5 -22.5q0 -10 3 -18t10 -14t16.5 -10t21.5 -7l120 -28q79 -19 121 -62.5t42 -114.5q0 -47 -18.5 -84t-51 -62t-76 -38.5t-94.5 -13.5q-111 0 -182 50.5t-87 141.5h167zM137 -181l68 141h136l-71 -141h-133z" />
    <glyph glyph-name="Scircumflex" unicode="&#x15c;" horiz-adv-x="543" 
d="M179 182q10 -32 35.5 -47.5t63.5 -15.5q18 0 33.5 4t26 11.5t17 18.5t6.5 25q0 22 -14.5 33t-43.5 18l-118 25q-34 7 -63.5 20t-50.5 33.5t-33 49.5t-12 68q0 45 18 82t50 62.5t75 40t93 14.5q57 0 101 -14.5t75.5 -40t50.5 -59.5t26 -74h-158q-9 26 -31.5 42.5
t-62.5 16.5q-17 0 -31 -3t-24 -10.5t-15.5 -17t-5.5 -22.5q0 -10 3 -18t10 -14t16.5 -10t21.5 -7l120 -28q79 -19 121 -62.5t42 -114.5q0 -47 -18.5 -84t-51 -62t-76 -38.5t-94.5 -13.5q-111 0 -182 50.5t-87 141.5h167zM443 666h-127l-41 45l-42 -45h-127l109 132h119z" />
    <glyph glyph-name="Scommaaccent" unicode="&#x218;" horiz-adv-x="543" 
d="M179 182q10 -32 35.5 -47.5t63.5 -15.5q18 0 33.5 4t26 11.5t17 18.5t6.5 25q0 22 -14.5 33t-43.5 18l-118 25q-34 7 -63.5 20t-50.5 33.5t-33 49.5t-12 68q0 45 18 82t50 62.5t75 40t93 14.5q57 0 101 -14.5t75.5 -40t50.5 -59.5t26 -74h-158q-9 26 -31.5 42.5
t-62.5 16.5q-17 0 -31 -3t-24 -10.5t-15.5 -17t-5.5 -22.5q0 -10 3 -18t10 -14t16.5 -10t21.5 -7l120 -28q79 -19 121 -62.5t42 -114.5q0 -47 -18.5 -84t-51 -62t-76 -38.5t-94.5 -13.5q-111 0 -182 50.5t-87 141.5h167zM237 -172q-20 6 -34.5 23t-14.5 44q0 32 23.5 52
t58.5 20q32 0 56 -20.5t24 -57.5q0 -26 -11 -46.5t-28 -41.5l-29 -37h-95z" />
    <glyph glyph-name="Tbar" unicode="&#x166;" horiz-adv-x="580" 
d="M118 363h91v113h-189v138h540v-138h-190v-113h91v-131h-91v-232h-161v232h-91v131z" />
    <glyph glyph-name="Tcaron" unicode="&#x164;" horiz-adv-x="580" 
d="M20 614h540v-138h-190v-476h-161v476h-189v138zM121 796h127l42 -46l41 46h127l-109 -133h-119z" />
    <glyph glyph-name="Tcommaaccent" unicode="&#x162;" horiz-adv-x="580" 
d="M20 614h540v-138h-190v-476h-161v476h-189v138zM256 -172q-20 6 -34.5 23t-14.5 44q0 32 23.5 52t58.5 20q32 0 56 -20.5t24 -57.5q0 -26 -11 -46.5t-28 -41.5l-29 -37h-95z" />
    <glyph glyph-name="Ubreve" unicode="&#x16c;" horiz-adv-x="613" 
d="M307 -10q-61 0 -110.5 17t-84.5 50t-54 82t-19 112v363h160v-348q0 -33 7.5 -57.5t21 -41.5t33.5 -25t46 -8q24 0 44 8t34 25t21.5 41.5t7.5 57.5v348h160v-364q0 -63 -19 -111.5t-54 -81.5t-84.5 -50t-109.5 -17zM306 658q-31 0 -57.5 9.5t-46 28t-30 45.5t-10.5 63h108
q0 -21 10 -31.5t26 -10.5q18 0 27.5 10.5t9.5 31.5h108q0 -36 -11 -63t-30 -45.5t-45.5 -28t-58.5 -9.5z" />
    <glyph glyph-name="Uhungarumlaut" unicode="&#x170;" horiz-adv-x="613" 
d="M307 -10q-61 0 -110.5 17t-84.5 50t-54 82t-19 112v363h160v-348q0 -33 7.5 -57.5t21 -41.5t33.5 -25t46 -8q24 0 44 8t34 25t21.5 41.5t7.5 57.5v348h160v-364q0 -63 -19 -111.5t-54 -81.5t-84.5 -50t-109.5 -17zM160 666l76 130h130l-77 -130h-129zM327 666l75 130h130
l-76 -130h-129z" />
    <glyph glyph-name="Umacron" unicode="&#x16a;" horiz-adv-x="613" 
d="M307 -10q-61 0 -110.5 17t-84.5 50t-54 82t-19 112v363h160v-348q0 -33 7.5 -57.5t21 -41.5t33.5 -25t46 -8q24 0 44 8t34 25t21.5 41.5t7.5 57.5v348h160v-364q0 -63 -19 -111.5t-54 -81.5t-84.5 -50t-109.5 -17zM174 774h266v-108h-266v108z" />
    <glyph glyph-name="Uogonek" unicode="&#x172;" horiz-adv-x="613" 
d="M196 7q-49 17 -84 50t-54 82t-19 112v363h160v-348q0 -33 7.5 -57.5t21 -41.5t33.5 -25t46 -8q24 0 44 8t34 25t21.5 41.5t7.5 57.5v348h160v-364q0 -40 -7.5 -73.5t-22 -61t-36 -49.5t-49.5 -41q-50 -33 -69.5 -59t-19.5 -41q0 -9 5.5 -13.5t14.5 -4.5q8 0 15.5 3
t19.5 11v-87q-13 -8 -28.5 -13.5t-36.5 -5.5q-20 0 -37 5t-29 15t-19 25t-7 34q0 18 10 42t40 56q-62 -5 -122 15z" />
    <glyph glyph-name="Uring" unicode="&#x16e;" horiz-adv-x="613" 
d="M307 -10q-61 0 -110.5 17t-84.5 50t-54 82t-19 112v363h160v-348q0 -33 7.5 -57.5t21 -41.5t33.5 -25t46 -8q24 0 44 8t34 25t21.5 41.5t7.5 57.5v348h160v-364q0 -63 -19 -111.5t-54 -81.5t-84.5 -50t-109.5 -17zM414 747q0 -23 -8 -42t-23 -32.5t-34.5 -22t-42.5 -8.5
t-42.5 8.5t-34 22t-23 32.5t-8.5 42q0 22 8.5 41.5t23 33.5t34 22.5t42.5 8.5t42.5 -8.5t34.5 -22.5t23 -33.5t8 -41.5zM343 747q0 15 -10.5 25.5t-26.5 10.5q-15 0 -25 -10.5t-10 -25.5t10 -25.5t25 -10.5q16 0 26.5 10.5t10.5 25.5z" />
    <glyph glyph-name="Utilde" unicode="&#x168;" horiz-adv-x="613" 
d="M307 -10q-61 0 -110.5 17t-84.5 50t-54 82t-19 112v363h160v-348q0 -33 7.5 -57.5t21 -41.5t33.5 -25t46 -8q24 0 44 8t34 25t21.5 41.5t7.5 57.5v348h160v-364q0 -63 -19 -111.5t-54 -81.5t-84.5 -50t-109.5 -17zM464 809q0 -30 -4.5 -57.5t-14.5 -48t-27 -32.5t-42 -12
q-18 0 -33 5.5t-29 12t-27.5 12t-25.5 5.5t-18.5 -8.5t-7.5 -22.5h-85q0 30 4.5 57t14.5 48t27 33t42 12q18 0 33 -5.5t29 -12t27 -12t26 -5.5q12 0 18.5 8t7.5 23h85z" />
    <glyph glyph-name="Wacute" unicode="&#x1e82;" horiz-adv-x="820" 
d="M473 614l93 -361l86 361h162l-162 -614h-147l-95 360l-97 -360h-146l-161 614h164l86 -361l95 361h122zM332 666l82 130h160l-88 -130h-154z" />
    <glyph glyph-name="Wcircumflex" unicode="&#x174;" horiz-adv-x="820" 
d="M473 614l93 -361l86 361h162l-162 -614h-147l-95 360l-97 -360h-146l-161 614h164l86 -361l95 361h122zM578 666h-127l-41 45l-42 -45h-127l109 132h119z" />
    <glyph glyph-name="Wgrave" unicode="&#x1e80;" horiz-adv-x="820" 
d="M473 614l93 -361l86 361h162l-162 -614h-147l-95 360l-97 -360h-146l-161 614h164l86 -361l95 361h122zM338 666l-89 130h160l82 -130h-153z" />
    <glyph glyph-name="Wdieresis" unicode="&#x1e84;" horiz-adv-x="820" 
d="M473 614l93 -361l86 361h162l-162 -614h-147l-95 360l-97 -360h-146l-161 614h164l86 -361l95 361h122zM241 734q0 33 22.5 56t56.5 23q33 0 56 -23t23 -56t-23 -56t-56 -23q-34 0 -56.5 23t-22.5 56zM422 734q0 33 23 56t56 23q32 0 55.5 -23t23.5 -56t-23.5 -56
t-55.5 -23q-33 0 -56 23t-23 56z" />
    <glyph glyph-name="Ycircumflex" unicode="&#x176;" horiz-adv-x="612" 
d="M438 614h168l-221 -396v-218h-161v218l-219 396h174l130 -240zM475 666h-127l-41 45l-42 -45h-127l109 132h119z" />
    <glyph glyph-name="Ygrave" unicode="&#x1ef2;" horiz-adv-x="612" 
d="M438 614h168l-221 -396v-218h-161v218l-219 396h174l130 -240zM235 666l-89 130h160l82 -130h-153z" />
    <glyph glyph-name="Zacute" unicode="&#x179;" horiz-adv-x="562" 
d="M528 0h-494v119l285 357h-281v138h486v-118l-281 -357h285v-139zM212 666l82 130h160l-88 -130h-154z" />
    <glyph glyph-name="Zdotaccent" unicode="&#x17b;" horiz-adv-x="562" 
d="M528 0h-494v119l285 357h-281v138h486v-118l-281 -357h285v-139zM382 743q0 -40 -26 -62.5t-63 -22.5q-36 0 -62.5 22.5t-26.5 62.5q0 39 26.5 61.5t62.5 22.5q37 0 63 -22.5t26 -61.5z" />
    <glyph glyph-name="abreve" unicode="&#x103;" horiz-adv-x="479" 
d="M292 0v23q-11 -11 -41.5 -21t-66.5 -10q-33 0 -63 9.5t-52.5 27.5t-35.5 45t-13 63q0 32 13.5 58.5t36.5 45.5t55 29t68 10q28 0 56.5 -7.5t42.5 -17.5v29q0 21 -13 37.5t-42 16.5q-22 0 -34.5 -9t-18.5 -24h-148q5 33 21.5 61t43 49.5t62.5 33.5t79 12q97 0 149.5 -48.5
t52.5 -136.5v-276h-152zM292 152q-3 7 -10 13t-15.5 10t-19 6t-21.5 2t-22.5 -2.5t-20 -8t-14 -14t-5.5 -18.5q0 -12 5.5 -20t14 -13.5t20 -8t22.5 -2.5t21.5 2t19 6t15.5 9.5t10 12.5v26zM247 488q-31 0 -57 9.5t-45.5 28.5t-30 47t-10.5 65h108q0 -22 9 -34.5t26 -12.5
q19 0 27.5 12.5t8.5 34.5h108q0 -37 -10.5 -65t-30 -47t-45.5 -28.5t-58 -9.5z" />
    <glyph glyph-name="amacron" unicode="&#x101;" horiz-adv-x="479" 
d="M292 0v23q-11 -11 -41.5 -21t-66.5 -10q-33 0 -63 9.5t-52.5 27.5t-35.5 45t-13 63q0 32 13.5 58.5t36.5 45.5t55 29t68 10q28 0 56.5 -7.5t42.5 -17.5v29q0 21 -13 37.5t-42 16.5q-22 0 -34.5 -9t-18.5 -24h-148q5 33 21.5 61t43 49.5t62.5 33.5t79 12q97 0 149.5 -48.5
t52.5 -136.5v-276h-152zM292 152q-3 7 -10 13t-15.5 10t-19 6t-21.5 2t-22.5 -2.5t-20 -8t-14 -14t-5.5 -18.5q0 -12 5.5 -20t14 -13.5t20 -8t22.5 -2.5t21.5 2t19 6t15.5 9.5t10 12.5v26zM123 613h253v-109h-253v109z" />
    <glyph glyph-name="aogonek" unicode="&#x105;" horiz-adv-x="479" 
d="M292 152q-4 7 -10.5 13t-15 10t-19 6t-21.5 2t-22.5 -2.5t-20 -8t-14 -14t-5.5 -18.5q0 -12 5.5 -20t14 -13.5t20 -8t22.5 -2.5t21.5 2t19 6t15 9.5t10.5 12.5v26zM292 0v23q-11 -11 -41.5 -21t-66.5 -10q-33 0 -63 9.5t-52.5 27.5t-35.5 45t-13 63q0 32 13.5 58.5
t36.5 45.5t55 29t68 10q28 0 56.5 -7.5t42.5 -17.5v29q0 21 -13 37.5t-42 16.5q-22 0 -35 -9t-18 -24h-148q5 33 21.5 61t43 49.5t62.5 33.5t79 12q97 0 149.5 -48.5t52.5 -136.5v-276q-16 -19 -26 -30t-16 -19t-8 -13.5t-2 -12.5q0 -9 5 -13.5t15 -4.5q8 0 15.5 3t19.5 11
v-87q-13 -8 -28.5 -13.5t-36.5 -5.5q-20 0 -37 5t-29 15t-19.5 25t-7.5 34q0 15 4.5 28t12 26t17.5 26t22 26h-53z" />
    <glyph glyph-name="aringacute" unicode="&#x1fb;" horiz-adv-x="479" 
d="M351 563q0 -35 -30.5 -60.5t-75.5 -25.5t-75.5 25.5t-30.5 60.5q0 18 8 34t22.5 28t34 18.5t41.5 6.5t41.5 -6.5t34 -18.5t22.5 -28t8 -34zM281 563q0 13 -10 21.5t-26 8.5t-26 -8.5t-10 -21.5q0 -12 10 -20.5t26 -8.5t26 8.5t10 20.5zM172 667l63 102h161l-70 -102h-154
zM292 0v23q-11 -11 -41.5 -21t-66.5 -10q-33 0 -63 9.5t-52.5 27.5t-35.5 45t-13 63q0 32 13.5 58.5t36.5 45.5t55 29t68 10q28 0 56.5 -7.5t42.5 -17.5v29q0 21 -13 37.5t-42 16.5q-22 0 -34.5 -9t-18.5 -24h-148q5 33 21.5 61t43 49.5t62.5 33.5t79 12q97 0 149.5 -48.5
t52.5 -136.5v-276h-152zM292 152q-3 7 -10 13t-15.5 10t-19 6t-21.5 2t-22.5 -2.5t-20 -8t-14 -14t-5.5 -18.5q0 -12 5.5 -20t14 -13.5t20 -8t22.5 -2.5t21.5 2t19 6t15.5 9.5t10 12.5v26z" />
    <glyph glyph-name="aeacute" unicode="&#x1fd;" horiz-adv-x="732" 
d="M221 101q11 0 21.5 2.5t19 7t15.5 11.5t11 16v51h-64q-12 0 -23 -2.5t-19.5 -8t-13.5 -14t-5 -19.5q0 -23 17.5 -33.5t40.5 -10.5zM712 153q-14 -76 -70.5 -119.5t-143.5 -43.5q-48 0 -86 16t-66 40q-14 -11 -30.5 -21t-36.5 -17.5t-43.5 -12t-50.5 -4.5q-33 0 -63 9
t-53 27t-36.5 44t-13.5 59q0 36 15 62.5t40.5 44.5t60 27t74.5 9h79v13q0 22 -14 38.5t-44 16.5q-22 0 -36.5 -10t-19.5 -26h-139q5 33 21 61.5t41 49.5t59.5 32.5t76.5 11.5q44 0 77.5 -13.5t56.5 -35.5q26 21 58.5 35t74.5 14q50 0 89.5 -16.5t67 -46t42.5 -71t15 -92.5
v-44h-291q2 -20 8 -34.5t16 -24.5t23.5 -14.5t29.5 -4.5q24 0 41 10t23 31h148zM498 338q-28 0 -46.5 -17t-25.5 -48h136q-1 13 -5.5 25t-12.5 21t-19.5 14t-26.5 5zM301 500l82 150h149l-87 -150h-144z" />
    <glyph glyph-name="cacute" unicode="&#x107;" horiz-adv-x="470" 
d="M18 225q0 52 16.5 95.5t46 74.5t71.5 48t93 17q45 0 81.5 -13t63.5 -36.5t42.5 -56t20.5 -71.5h-151q-4 20 -18.5 33.5t-39.5 13.5q-16 0 -29 -7.5t-22.5 -21t-14.5 -33t-5 -43.5t5 -43.5t14.5 -32.5t22.5 -20.5t29 -7.5q25 0 39.5 13t18.5 34h151q-5 -40 -20.5 -72.5
t-42.5 -56t-63.5 -36.5t-81.5 -13q-51 0 -93 17.5t-71.5 48t-46 74t-16.5 95.5zM170 500l82 150h149l-87 -150h-144z" />
    <glyph glyph-name="ccaron" unicode="&#x10d;" horiz-adv-x="470" 
d="M18 225q0 52 16.5 95.5t46 74.5t71.5 48t93 17q45 0 81.5 -13t63.5 -36.5t42.5 -56t20.5 -71.5h-151q-4 20 -18.5 33.5t-39.5 13.5q-16 0 -29 -7.5t-22.5 -21t-14.5 -33t-5 -43.5t5 -43.5t14.5 -32.5t22.5 -20.5t29 -7.5q25 0 39.5 13t18.5 34h151q-5 -40 -20.5 -72.5
t-42.5 -56t-63.5 -36.5t-81.5 -13q-51 0 -93 17.5t-71.5 48t-46 74t-16.5 95.5zM307 498h-120l-96 151h116l40 -55l39 55h117z" />
    <glyph glyph-name="ccircumflex" unicode="&#x109;" horiz-adv-x="470" 
d="M18 225q0 52 16.5 95.5t46 74.5t71.5 48t93 17q45 0 81.5 -13t63.5 -36.5t42.5 -56t20.5 -71.5h-151q-4 20 -18.5 33.5t-39.5 13.5q-16 0 -29 -7.5t-22.5 -21t-14.5 -33t-5 -43.5t5 -43.5t14.5 -32.5t22.5 -20.5t29 -7.5q25 0 39.5 13t18.5 34h151q-5 -40 -20.5 -72.5
t-42.5 -56t-63.5 -36.5t-81.5 -13q-51 0 -93 17.5t-71.5 48t-46 74t-16.5 95.5zM403 498h-117l-39 55l-40 -55h-116l96 151h120z" />
    <glyph glyph-name="cdotaccent" unicode="&#x10b;" horiz-adv-x="470" 
d="M18 225q0 52 16.5 95.5t46 74.5t71.5 48t93 17q45 0 81.5 -13t63.5 -36.5t42.5 -56t20.5 -71.5h-151q-4 20 -18.5 33.5t-39.5 13.5q-16 0 -29 -7.5t-22.5 -21t-14.5 -33t-5 -43.5t5 -43.5t14.5 -32.5t22.5 -20.5t29 -7.5q25 0 39.5 13t18.5 34h151q-5 -40 -20.5 -72.5
t-42.5 -56t-63.5 -36.5t-81.5 -13q-51 0 -93 17.5t-71.5 48t-46 74t-16.5 95.5zM336 579q0 -39 -26 -61.5t-63 -22.5q-36 0 -62.5 22.5t-26.5 61.5q0 40 26.5 62.5t62.5 22.5q37 0 63 -22.5t26 -62.5z" />
    <glyph glyph-name="dcaron" unicode="&#x10f;" horiz-adv-x="528" 
d="M329 36q-8 -9 -19.5 -17.5t-26 -14.5t-31 -10t-34.5 -4q-48 0 -85.5 18.5t-63 50.5t-38.5 75t-13 91q0 49 13 91.5t38.5 74.5t63 50.5t85.5 18.5q18 0 34.5 -4t31 -10t26 -14.5t19.5 -17.5v236h157v-650h-157v36zM329 284q-8 19 -27 30.5t-41 11.5q-20 0 -36.5 -7.5
t-27 -21t-16.5 -32t-6 -40.5t6 -40.5t16.5 -31.5t27 -21t36.5 -8q24 0 42 11.5t26 30.5v118zM517 483l43 167h122l-44 -167h-121z" />
    <glyph glyph-name="dcroat" unicode="&#x111;" horiz-adv-x="529" 
d="M329 36q-8 -9 -19.5 -17.5t-26 -14.5t-31 -10t-34.5 -4q-48 0 -85.5 18.5t-63 50.5t-38.5 75t-13 91q0 49 13 91.5t38.5 74.5t63 50.5t85.5 18.5q18 0 34.5 -4t31 -10t26 -14.5t19.5 -17.5v76h-82v102h82v58h157v-58h48v-102h-48v-490h-157v36zM329 284q-8 19 -27 30.5
t-41 11.5q-20 0 -36.5 -7.5t-27 -21t-16.5 -32t-6 -40.5t6 -40.5t16.5 -31.5t27 -21t36.5 -8q24 0 42 11.5t26 30.5v118z" />
    <glyph glyph-name="ebreve" unicode="&#x115;" horiz-adv-x="478" 
d="M458 157q-12 -78 -67 -122.5t-145 -44.5q-52 0 -94 17t-71.5 48t-46 74.5t-16.5 95.5t17 95.5t47 74.5t71.5 48t90.5 17q52 0 92 -16.5t67.5 -46t42 -71t14.5 -92.5v-39h-291q2 -21 8 -36t16 -25.5t23.5 -16t29.5 -5.5q24 0 42 11t24 34h146zM244 338q-14 0 -25.5 -4.5
t-20.5 -12.5t-15.5 -20.5t-10.5 -27.5h136q-1 13 -5.5 25t-13 21t-19.5 14t-26 5zM250 488q-31 0 -57 9.5t-45.5 28.5t-30 47t-10.5 65h108q0 -22 9 -34.5t26 -12.5q19 0 27.5 12.5t8.5 34.5h108q0 -37 -10.5 -65t-30 -47t-45.5 -28.5t-58 -9.5z" />
    <glyph glyph-name="ecaron" unicode="&#x11b;" horiz-adv-x="478" 
d="M458 157q-12 -78 -67 -122.5t-145 -44.5q-52 0 -94 17t-71.5 48t-46 74.5t-16.5 95.5t17 95.5t47 74.5t71.5 48t90.5 17q52 0 92 -16.5t67.5 -46t42 -71t14.5 -92.5v-39h-291q2 -21 8 -36t16 -25.5t23.5 -16t29.5 -5.5q24 0 42 11t24 34h146zM244 338q-14 0 -25.5 -4.5
t-20.5 -12.5t-15.5 -20.5t-10.5 -27.5h136q-1 13 -5.5 25t-13 21t-19.5 14t-26 5zM310 498h-120l-96 151h116l40 -55l39 55h117z" />
    <glyph glyph-name="edotaccent" unicode="&#x117;" horiz-adv-x="478" 
d="M458 157q-12 -78 -67 -122.5t-145 -44.5q-52 0 -94 17t-71.5 48t-46 74.5t-16.5 95.5t17 95.5t47 74.5t71.5 48t90.5 17q52 0 92 -16.5t67.5 -46t42 -71t14.5 -92.5v-39h-291q2 -21 8 -36t16 -25.5t23.5 -16t29.5 -5.5q24 0 42 11t24 34h146zM244 338q-14 0 -25.5 -4.5
t-20.5 -12.5t-15.5 -20.5t-10.5 -27.5h136q-1 13 -5.5 25t-13 21t-19.5 14t-26 5zM339 579q0 -39 -26 -61.5t-63 -22.5q-36 0 -62.5 22.5t-26.5 61.5q0 40 26.5 62.5t62.5 22.5q37 0 63 -22.5t26 -62.5z" />
    <glyph glyph-name="emacron" unicode="&#x113;" horiz-adv-x="478" 
d="M458 157q-12 -78 -67 -122.5t-145 -44.5q-52 0 -94 17t-71.5 48t-46 74.5t-16.5 95.5t17 95.5t47 74.5t71.5 48t90.5 17q52 0 92 -16.5t67.5 -46t42 -71t14.5 -92.5v-39h-291q2 -21 8 -36t16 -25.5t23.5 -16t29.5 -5.5q24 0 42 11t24 34h146zM244 338q-14 0 -25.5 -4.5
t-20.5 -12.5t-15.5 -20.5t-10.5 -27.5h136q-1 13 -5.5 25t-13 21t-19.5 14t-26 5zM123 613h253v-109h-253v109z" />
    <glyph glyph-name="eogonek" unicode="&#x119;" horiz-adv-x="478" 
d="M334 -29q-17 -25 -17 -45q0 -9 5.5 -14t15.5 -5q8 0 15.5 3t19.5 11v-87q-13 -8 -28.5 -13.5t-36.5 -5.5q-20 0 -37 5.5t-29.5 15.5t-19.5 24.5t-7 34.5q0 26 13 49q6 12 36 47l-18 -1q-52 0 -94 17t-71.5 48t-46 74.5t-16.5 95.5t17 95.5t47 74.5t71.5 48t90.5 17
q52 0 92 -16.5t67.5 -46t42 -71t14.5 -92.5v-39h-291q2 -21 8 -36t16 -25.5t23.5 -16t29.5 -5.5q24 0 42 11t24 34h146q-5 -39 -22.5 -69.5t-44.5 -54.5q-26 -24 -42 -43q-12 -14 -15 -19zM244 338q-14 0 -25.5 -4.5t-20.5 -12.5t-15.5 -20.5t-10.5 -27.5h136q-1 13 -5.5 25
t-13 21t-19.5 14t-26 5z" />
    <glyph glyph-name="gbreve" unicode="&#x11f;" horiz-adv-x="521" 
d="M323 63q-7 -9 -17.5 -16.5t-24 -13.5t-30 -10t-34.5 -4q-48 0 -85 17t-62 47t-38.5 70t-13.5 87q0 46 13.5 86.5t38.5 70.5t62 46.5t85 16.5q18 0 34.5 -3.5t30 -9.5t24 -14t17.5 -17v34h156v-385q0 -59 -17.5 -103t-48.5 -73t-74 -43.5t-94 -14.5q-45 0 -83 10.5t-67 32
t-47.5 51.5t-24.5 69h151q6 -24 24 -36t47 -12q37 0 57.5 20.5t20.5 64.5v32zM323 298q-8 15 -26 26.5t-41 11.5q-20 0 -35 -7t-26 -20t-16.5 -30.5t-5.5 -38.5t5.5 -39t16.5 -30.5t26 -19.5t35 -7q23 0 41 11t26 27v116zM278 488q-31 0 -57 9.5t-45.5 28.5t-30 47t-10.5 65
h108q0 -22 9 -34.5t26 -12.5q19 0 27.5 12.5t8.5 34.5h108q0 -37 -10.5 -65t-30 -47t-45.5 -28.5t-58 -9.5z" />
    <glyph glyph-name="gcircumflex" unicode="&#x11d;" horiz-adv-x="521" 
d="M323 63q-7 -9 -17.5 -16.5t-24 -13.5t-30 -10t-34.5 -4q-48 0 -85 17t-62 47t-38.5 70t-13.5 87q0 46 13.5 86.5t38.5 70.5t62 46.5t85 16.5q18 0 34.5 -3.5t30 -9.5t24 -14t17.5 -17v34h156v-385q0 -59 -17.5 -103t-48.5 -73t-74 -43.5t-94 -14.5q-45 0 -83 10.5t-67 32
t-47.5 51.5t-24.5 69h151q6 -24 24 -36t47 -12q37 0 57.5 20.5t20.5 64.5v32zM323 298q-8 15 -26 26.5t-41 11.5q-20 0 -35 -7t-26 -20t-16.5 -30.5t-5.5 -38.5t5.5 -39t16.5 -30.5t26 -19.5t35 -7q23 0 41 11t26 27v116zM435 498h-117l-39 55l-40 -55h-116l96 151h120z" />
    <glyph glyph-name="gcommaaccent" unicode="&#x123;" horiz-adv-x="521" 
d="M323 63q-7 -9 -17.5 -16.5t-24 -13.5t-30 -10t-34.5 -4q-48 0 -85 17t-62 47t-38.5 70t-13.5 87q0 46 13.5 86.5t38.5 70.5t62 46.5t85 16.5q18 0 34.5 -3.5t30 -9.5t24 -14t17.5 -17v34h156v-385q0 -59 -17.5 -103t-48.5 -73t-74 -43.5t-94 -14.5q-45 0 -83 10.5t-67 32
t-47.5 51.5t-24.5 69h151q6 -24 24 -36t47 -12q37 0 57.5 20.5t20.5 64.5v32zM323 298q-8 15 -26 26.5t-41 11.5q-20 0 -35 -7t-26 -20t-16.5 -30.5t-5.5 -38.5t5.5 -39t16.5 -30.5t26 -19.5t35 -7q23 0 41 11t26 27v116zM309 629q20 -6 34 -23.5t14 -44.5q0 -32 -23 -52.5
t-59 -20.5q-32 0 -56.5 21t-24.5 58q0 26 11 47t28 42l32 40h96z" />
    <glyph glyph-name="commaturn" horiz-adv-x="500" 
d="M279 629q20 -6 34 -23.5t14 -44.5q0 -32 -23 -52.5t-59 -20.5q-32 0 -56.5 21t-24.5 58q0 26 11 47t28 42l32 40h96z" />
    <glyph glyph-name="gdotaccent" unicode="&#x121;" horiz-adv-x="521" 
d="M323 63q-7 -9 -17.5 -16.5t-24 -13.5t-30 -10t-34.5 -4q-48 0 -85 17t-62 47t-38.5 70t-13.5 87q0 46 13.5 86.5t38.5 70.5t62 46.5t85 16.5q18 0 34.5 -3.5t30 -9.5t24 -14t17.5 -17v34h156v-385q0 -59 -17.5 -103t-48.5 -73t-74 -43.5t-94 -14.5q-45 0 -83 10.5t-67 32
t-47.5 51.5t-24.5 69h151q6 -24 24 -36t47 -12q37 0 57.5 20.5t20.5 64.5v32zM323 298q-8 15 -26 26.5t-41 11.5q-20 0 -35 -7t-26 -20t-16.5 -30.5t-5.5 -38.5t5.5 -39t16.5 -30.5t26 -19.5t35 -7q23 0 41 11t26 27v116zM368 579q0 -39 -26 -61.5t-63 -22.5
q-36 0 -62.5 22.5t-26.5 61.5q0 40 26.5 62.5t62.5 22.5q37 0 63 -22.5t26 -62.5z" />
    <glyph glyph-name="hbar" unicode="&#x127;" 
d="M-5 592h47v58h157v-58h82v-102h-82v-78q19 21 51 34.5t70 13.5q75 0 117.5 -44.5t42.5 -120.5v-295h-158v257q0 28 -14 46t-44 18q-12 0 -22 -3.5t-19 -10t-15 -15.5t-9 -20v-272h-157v490h-47v102z" />
    <glyph glyph-name="hcircumflex" unicode="&#x125;" horiz-adv-x="519" 
d="M42 650h157v-238q19 21 50.5 34.5t70.5 13.5q75 0 117 -44.5t42 -120.5v-295h-157v257q0 28 -14.5 46t-43.5 18q-12 0 -22.5 -3.5t-19 -10t-14.5 -15.5t-9 -20v-272h-157v650zM425 680h-127l-41 45l-42 -45h-127l109 132h119z" />
    <glyph glyph-name="ibreve" unicode="&#x12d;" horiz-adv-x="242" 
d="M120 488q-56 0 -91.5 37.5t-35.5 112.5h98q0 -22 7 -34.5t23 -12.5t22.5 12.5t6.5 34.5h99q0 -74 -36.5 -112t-92.5 -38zM199 0h-157v450h157v-450z" />
    <glyph glyph-name="imacron" unicode="&#x12b;" horiz-adv-x="241" 
d="M28 613h188v-109h-188v109zM199 0h-157v450h157v-450z" />
    <glyph glyph-name="iogonek" unicode="&#x12f;" horiz-adv-x="242" 
d="M200 0q-16 -19 -26 -30t-15.5 -19t-8 -13.5t-2.5 -12.5q0 -9 5.5 -13.5t14.5 -4.5q8 0 15.5 3t19.5 11v-87q-13 -8 -28.5 -13.5t-36.5 -5.5q-20 0 -37 5t-29 15t-19 25t-7 34q0 15 4 28t11.5 26t17.5 26t22 26h-58v450h157v-450zM210 572q0 -39 -26 -61.5t-63 -22.5
q-36 0 -62.5 22.5t-26.5 61.5q0 40 26.5 62.5t62.5 22.5q37 0 63 -22.5t26 -62.5z" />
    <glyph glyph-name="itilde" unicode="&#x129;" horiz-adv-x="241" 
d="M249 647q0 -31 -4 -58t-12.5 -47.5t-23.5 -32.5t-36 -12q-15 0 -25.5 5t-19.5 12t-17 12.5t-18 5.5q-11 0 -16 -8.5t-6 -23.5h-80q0 31 4 58t12.5 47.5t23.5 32.5t37 12q14 0 25 -5t19.5 -12t16.5 -12.5t18 -5.5q11 0 16.5 8.5t5.5 23.5h80zM199 0h-157v450h157v-450z
" />
    <glyph glyph-name="dotlessj" unicode="&#x237;" horiz-adv-x="242" 
d="M200 11q0 -86 -43.5 -133t-128.5 -47q-17 0 -31.5 1.5t-25.5 5.5v119q5 -2 10.5 -2.5t12.5 -0.5q12 0 21.5 2.5t15 8.5t9 15.5t3.5 23.5v446h157v-439z" />
    <glyph glyph-name="jcircumflex" unicode="&#x135;" horiz-adv-x="241" 
d="M260 498h-111l-28 60l-27 -60h-112l79 151h120zM200 11q0 -86 -43.5 -133t-128.5 -47q-17 0 -31.5 1.5t-25.5 5.5v119q5 -2 10.5 -2.5t12.5 -0.5q12 0 21.5 2.5t15 8.5t9 15.5t3.5 23.5v446h157v-439z" />
    <glyph glyph-name="kcommaaccent" unicode="&#x137;" horiz-adv-x="523" 
d="M229 167l-30 -35v-132h-157v650h157v-344l126 144h189l-171 -187l176 -263h-181zM220 -172q-20 6 -34.5 23t-14.5 44q0 32 23.5 52t58.5 20q32 0 56 -20.5t24 -57.5q0 -26 -11 -46.5t-28 -41.5l-29 -37h-95z" />
    <glyph glyph-name="kgreenlandic" unicode="&#x138;" horiz-adv-x="523" 
d="M229 167l-30 -35v-132h-157v450h157v-144l126 144h189l-171 -187l176 -263h-181z" />
    <glyph glyph-name="lacute" unicode="&#x13a;" horiz-adv-x="241" 
d="M199 0h-157v650h157v-650zM42 684l82 130h160l-88 -130h-154z" />
    <glyph glyph-name="lcaron" unicode="&#x13e;" horiz-adv-x="241" 
d="M199 0h-157v650h157v-650zM230 483l43 167h122l-44 -167h-121z" />
    <glyph glyph-name="lcommaaccent" unicode="&#x13c;" horiz-adv-x="241" 
d="M199 0h-157v650h157v-650zM87 -172q-20 6 -34.5 23t-14.5 44q0 32 23.5 52t58.5 20q32 0 56 -20.5t24 -57.5q0 -26 -11 -46.5t-28 -41.5l-29 -37h-95z" />
    <glyph glyph-name="ldot" unicode="&#x140;" horiz-adv-x="426" 
d="M199 0h-157v650h157v-650zM422 332q0 -39 -26 -61.5t-63 -22.5q-36 0 -62.5 22.5t-26.5 61.5q0 40 26.5 62.5t62.5 22.5q37 0 63 -22.5t26 -62.5z" />
    <glyph glyph-name="nacute" unicode="&#x144;" horiz-adv-x="519" 
d="M42 450h157v-38q19 21 50.5 34.5t70.5 13.5q75 0 117 -44.5t42 -120.5v-295h-157v257q0 28 -14.5 46t-43.5 18q-12 0 -22.5 -3.5t-19 -10t-14.5 -15.5t-9 -20v-272h-157v450zM191 500l82 150h149l-87 -150h-144z" />
    <glyph glyph-name="ncaron" unicode="&#x148;" horiz-adv-x="519" 
d="M42 450h157v-38q19 21 50.5 34.5t70.5 13.5q75 0 117 -44.5t42 -120.5v-295h-157v257q0 28 -14.5 46t-43.5 18q-12 0 -22.5 -3.5t-19 -10t-14.5 -15.5t-9 -20v-272h-157v450zM328 498h-120l-96 151h116l40 -55l39 55h117z" />
    <glyph glyph-name="ncommaaccent" unicode="&#x146;" horiz-adv-x="519" 
d="M42 450h157v-38q19 21 50.5 34.5t70.5 13.5q75 0 117 -44.5t42 -120.5v-295h-157v257q0 28 -14.5 46t-43.5 18q-12 0 -22.5 -3.5t-19 -10t-14.5 -15.5t-9 -20v-272h-157v450zM231 -172q-20 6 -34.5 23t-14.5 44q0 32 23.5 52t58.5 20q32 0 56 -20.5t24 -57.5
q0 -26 -11 -46.5t-28 -41.5l-29 -37h-95z" />
    <glyph glyph-name="eng" unicode="&#x14b;" horiz-adv-x="519" 
d="M322 257q0 28 -14.5 46t-43.5 18q-12 0 -22.5 -3.5t-19 -10t-14.5 -15.5t-9 -20v-272h-157v450h157v-38q19 21 50.5 34.5t70.5 13.5q75 0 117 -44.5t42 -120.5v-284q0 -86 -43.5 -133t-127.5 -47q-18 0 -32 1.5t-26 5.5v119q5 -2 11 -2.5t13 -0.5q12 0 21 2.5t15 8.5
t9 15.5t3 23.5v253z" />
    <glyph glyph-name="obreve" unicode="&#x14f;" horiz-adv-x="497" 
d="M478 225q0 -52 -17 -95t-47 -74.5t-72.5 -48.5t-93.5 -17t-93.5 17t-72.5 48.5t-47 74.5t-17 95t17 95.5t47 74.5t72.5 48t93.5 17t93.5 -17t72.5 -48t47 -74.5t17 -95.5zM324 225q0 23 -5 42.5t-15 33.5t-24 22t-32 8t-32 -8t-23.5 -22t-14.5 -33.5t-5 -42.5t5 -42.5
t14.5 -33.5t23.5 -21.5t32 -7.5t32 7.5t24 21.5t15 33.5t5 42.5zM250 488q-31 0 -57 9.5t-45.5 28.5t-30 47t-10.5 65h108q0 -22 9 -34.5t26 -12.5q19 0 27.5 12.5t8.5 34.5h108q0 -37 -10.5 -65t-30 -47t-45.5 -28.5t-58 -9.5z" />
    <glyph glyph-name="ohungarumlaut" unicode="&#x151;" horiz-adv-x="496" 
d="M478 225q0 -52 -17 -95t-47 -74.5t-72.5 -48.5t-93.5 -17t-93.5 17t-72.5 48.5t-47 74.5t-17 95t17 95.5t47 74.5t72.5 48t93.5 17t93.5 -17t72.5 -48t47 -74.5t17 -95.5zM324 225q0 23 -5 42.5t-15 33.5t-24 22t-32 8t-32 -8t-23.5 -22t-14.5 -33.5t-5 -42.5t5 -42.5
t14.5 -33.5t23.5 -21.5t32 -7.5t32 7.5t24 21.5t15 33.5t5 42.5zM105 500l76 150h122l-76 -150h-122zM263 500l76 150h123l-77 -150h-122z" />
    <glyph glyph-name="omacron" unicode="&#x14d;" horiz-adv-x="496" 
d="M478 225q0 -52 -17 -95t-47 -74.5t-72.5 -48.5t-93.5 -17t-93.5 17t-72.5 48.5t-47 74.5t-17 95t17 95.5t47 74.5t72.5 48t93.5 17t93.5 -17t72.5 -48t47 -74.5t17 -95.5zM324 225q0 23 -5 42.5t-15 33.5t-24 22t-32 8t-32 -8t-23.5 -22t-14.5 -33.5t-5 -42.5t5 -42.5
t14.5 -33.5t23.5 -21.5t32 -7.5t32 7.5t24 21.5t15 33.5t5 42.5zM123 613h253v-109h-253v109z" />
    <glyph glyph-name="oslashacute" unicode="&#x1ff;" horiz-adv-x="506" 
d="M176 500l82 150h149l-87 -150h-144zM430 468l45 -37l-44 -50q21 -26 35 -61q17 -43 17 -95t-17 -95t-47 -74.5t-72.5 -48.5t-93.5 -17t-94 17q-23 9 -42 22l-42 -48l-45 37l45 50q-22 28 -35 62q-17 43 -17 95t17 95.5t47 74.5t72.5 48t93.5 17t93 -17q23 -9 42 -22z
M286 326q-14 8 -33 8q-18 0 -32.5 -8t-24.5 -23t-15.5 -35t-5.5 -43q0 -21 4 -39l118 132q-5 5 -11 8zM332 225q0 21 -5 40l-118 -133q5 -4 11 -7q15 -8 33 -8t32.5 8t25 22.5t16 34.5t5.5 43z" />
    <glyph glyph-name="racute" unicode="&#x155;" horiz-adv-x="365" 
d="M344 301q-15 8 -30.5 11t-34.5 3q-32 0 -53 -13.5t-27 -37.5v-264h-157v450h157v-40q16 23 42 36.5t60 13.5q15 0 26.5 -2.5t16.5 -5.5v-151zM120 500l82 150h149l-87 -150h-144z" />
    <glyph glyph-name="rcaron" unicode="&#x159;" horiz-adv-x="365" 
d="M344 301q-15 8 -30.5 11t-34.5 3q-32 0 -53 -13.5t-27 -37.5v-264h-157v450h157v-40q16 23 42 36.5t60 13.5q15 0 26.5 -2.5t16.5 -5.5v-151zM257 498h-120l-96 151h116l40 -55l39 55h117z" />
    <glyph glyph-name="rcommaaccent" unicode="&#x157;" horiz-adv-x="365" 
d="M344 301q-15 8 -30.5 11t-34.5 3q-32 0 -53 -13.5t-27 -37.5v-264h-157v450h157v-40q16 23 42 36.5t60 13.5q15 0 26.5 -2.5t16.5 -5.5v-151zM85 -172q-20 6 -34.5 23t-14.5 44q0 32 23.5 52t58.5 20q32 0 56 -20.5t24 -57.5q0 -26 -11 -46.5t-28 -41.5l-29 -37h-95z" />
    <glyph glyph-name="sacute" unicode="&#x15b;" horiz-adv-x="448" 
d="M169 139q5 -19 20.5 -28.5t36.5 -9.5q10 0 18 1.5t14 5.5t9.5 9.5t3.5 13.5q0 13 -8.5 18.5t-26.5 9.5l-87 18q-57 12 -90.5 42t-33.5 89q0 36 15 64.5t41 48t60.5 29.5t74.5 10q93 0 144 -39.5t60 -106.5h-145q-3 15 -15 25.5t-39 10.5q-17 0 -30 -7.5t-13 -22.5
q0 -10 8 -16t23 -9l90 -21q61 -15 93.5 -47.5t32.5 -87.5q0 -36 -15.5 -64t-42 -46.5t-62.5 -28.5t-77 -10q-43 0 -79.5 9.5t-64.5 28.5t-45.5 46.5t-22.5 64.5h153zM147 500l82 150h149l-87 -150h-144z" />
    <glyph glyph-name="scedilla" unicode="&#x15f;" horiz-adv-x="448" 
d="M169 139q5 -19 20.5 -28.5t36.5 -9.5q10 0 18 1.5t14 5.5t9.5 9.5t3.5 13.5q0 13 -8.5 18.5t-26.5 9.5l-87 18q-57 12 -90.5 42t-33.5 89q0 36 15 64.5t41 48t60.5 29.5t74.5 10q93 0 144 -39.5t60 -106.5h-145q-3 15 -15 25.5t-39 10.5q-17 0 -30 -7.5t-13 -22.5
q0 -10 8 -16t23 -9l90 -21q61 -15 93.5 -47.5t32.5 -87.5q0 -36 -15.5 -64t-42 -46.5t-62.5 -28.5t-77 -10q-43 0 -79.5 9.5t-64.5 28.5t-45.5 46.5t-22.5 64.5h153zM87 -181l68 141h136l-71 -141h-133z" />
    <glyph glyph-name="scircumflex" unicode="&#x15d;" horiz-adv-x="448" 
d="M169 139q5 -19 20.5 -28.5t36.5 -9.5q10 0 18 1.5t14 5.5t9.5 9.5t3.5 13.5q0 13 -8.5 18.5t-26.5 9.5l-87 18q-57 12 -90.5 42t-33.5 89q0 36 15 64.5t41 48t60.5 29.5t74.5 10q93 0 144 -39.5t60 -106.5h-145q-3 15 -15 25.5t-39 10.5q-17 0 -30 -7.5t-13 -22.5
q0 -10 8 -16t23 -9l90 -21q61 -15 93.5 -47.5t32.5 -87.5q0 -36 -15.5 -64t-42 -46.5t-62.5 -28.5t-77 -10q-43 0 -79.5 9.5t-64.5 28.5t-45.5 46.5t-22.5 64.5h153zM380 498h-117l-39 55l-40 -55h-116l96 151h120z" />
    <glyph glyph-name="scommaaccent" unicode="&#x219;" horiz-adv-x="448" 
d="M169 139q5 -19 20.5 -28.5t36.5 -9.5q10 0 18 1.5t14 5.5t9.5 9.5t3.5 13.5q0 13 -8.5 18.5t-26.5 9.5l-87 18q-57 12 -90.5 42t-33.5 89q0 36 15 64.5t41 48t60.5 29.5t74.5 10q93 0 144 -39.5t60 -106.5h-145q-3 15 -15 25.5t-39 10.5q-17 0 -30 -7.5t-13 -22.5
q0 -10 8 -16t23 -9l90 -21q61 -15 93.5 -47.5t32.5 -87.5q0 -36 -15.5 -64t-42 -46.5t-62.5 -28.5t-77 -10q-43 0 -79.5 9.5t-64.5 28.5t-45.5 46.5t-22.5 64.5h153zM190 -172q-20 6 -34.5 23t-14.5 44q0 32 23.5 52t58.5 20q32 0 56 -20.5t24 -57.5q0 -26 -11 -46.5
t-28 -41.5l-29 -37h-95z" />
    <glyph glyph-name="tbar" unicode="&#x167;" horiz-adv-x="360" 
d="M26 294h49v52h-64v104h64v124h157v-124h94v-104h-94v-52h65v-96h-65v-16q0 -27 12 -39t36 -12q13 0 26 3t24 7v-136q-14 -6 -37.5 -10t-49.5 -4q-81 0 -124.5 39t-43.5 125v43h-49v96z" />
    <glyph glyph-name="tcaron" unicode="&#x165;" horiz-adv-x="358" 
d="M73 327h-64v123h64v124h157v-124h94v-123h-94v-145q0 -27 12 -39t36 -12q13 0 26 3t24 7v-136q-14 -6 -37.5 -10t-49.5 -4q-81 0 -124.5 39t-43.5 125v172zM262 487l42 167h123l-44 -167h-121z" />
    <glyph glyph-name="tcommaaccent" unicode="&#x163;" horiz-adv-x="358" 
d="M73 327h-64v123h64v124h157v-124h94v-123h-94v-145q0 -27 12 -39t36 -12q13 0 26 3t24 7v-136q-14 -6 -37.5 -10t-49.5 -4q-81 0 -124.5 39t-43.5 125v172zM172 -172q-20 6 -34.5 23t-14.5 44q0 32 23.5 52t58.5 20q32 0 56 -20.5t24 -57.5q0 -26 -11 -46.5t-28 -41.5
l-28 -37h-96z" />
    <glyph glyph-name="ubreve" unicode="&#x16d;" horiz-adv-x="517" 
d="M475 0h-156v39q-19 -21 -50.5 -35t-69.5 -14q-75 0 -117 45t-42 120v295h157v-258q0 -28 13.5 -46.5t44.5 -18.5q22 0 39.5 13.5t23.5 36.5v273h157v-450zM258 488q-31 0 -57 9.5t-45.5 28.5t-30 47t-10.5 65h108q0 -22 9 -34.5t26 -12.5q19 0 27.5 12.5t8.5 34.5h108
q0 -37 -10.5 -65t-30 -47t-45.5 -28.5t-58 -9.5z" />
    <glyph glyph-name="uhungarumlaut" unicode="&#x171;" horiz-adv-x="517" 
d="M475 0h-156v39q-19 -21 -50.5 -35t-69.5 -14q-75 0 -117 45t-42 120v295h157v-258q0 -28 13.5 -46.5t44.5 -18.5q22 0 39.5 13.5t23.5 36.5v273h157v-450zM115 500l76 150h122l-76 -150h-122zM273 500l76 150h123l-77 -150h-122z" />
    <glyph glyph-name="umacron" unicode="&#x16b;" horiz-adv-x="517" 
d="M475 0h-156v39q-19 -21 -50.5 -35t-69.5 -14q-75 0 -117 45t-42 120v295h157v-258q0 -28 13.5 -46.5t44.5 -18.5q22 0 39.5 13.5t23.5 36.5v273h157v-450zM132 613h253v-109h-253v109z" />
    <glyph glyph-name="uogonek" unicode="&#x173;" horiz-adv-x="517" 
d="M475 0q-15 -19 -25 -30t-16 -19t-8 -13.5t-2 -12.5q0 -9 5 -13.5t14 -4.5t16 3t19 11v-87q-13 -8 -28.5 -13.5t-36.5 -5.5q-20 0 -37 5t-29 15t-19 25t-7 34q0 15 4 28t11.5 26t18 26t21.5 26h-57v39q-19 -21 -50.5 -35t-69.5 -14q-75 0 -117 45t-42 120v295h157v-258
q0 -28 13.5 -46.5t44.5 -18.5q22 0 39.5 13.5t23.5 36.5v273h157v-450z" />
    <glyph glyph-name="uring" unicode="&#x16f;" horiz-adv-x="517" 
d="M475 0h-156v39q-19 -21 -50.5 -35t-69.5 -14q-75 0 -117 45t-42 120v295h157v-258q0 -28 13.5 -46.5t44.5 -18.5q22 0 39.5 13.5t23.5 36.5v273h157v-450zM366 590q0 -23 -8 -42t-23 -33t-34.5 -22t-42.5 -8t-42.5 8t-34 22t-23 33t-8.5 42q0 22 8.5 41t23 33.5t34 22.5
t42.5 8t42.5 -8t34.5 -22.5t23 -33.5t8 -41zM295 590q0 15 -10.5 25.5t-26.5 10.5q-15 0 -25 -10.5t-10 -25.5t10 -25.5t25 -10.5q16 0 26.5 10.5t10.5 25.5z" />
    <glyph glyph-name="utilde" unicode="&#x169;" horiz-adv-x="517" 
d="M475 0h-156v39q-19 -21 -50.5 -35t-69.5 -14q-75 0 -117 45t-42 120v295h157v-258q0 -28 13.5 -46.5t44.5 -18.5q22 0 39.5 13.5t23.5 36.5v273h157v-450zM408 647q0 -31 -4.5 -58t-15 -47.5t-27.5 -32.5t-42 -12q-17 0 -30 5.5t-24 12.5t-21.5 12.5t-22.5 5.5t-18.5 -9
t-7.5 -24h-85q0 31 4.5 58t14.5 47.5t27 32.5t42 12q17 0 30 -5.5t24.5 -12.5t22 -12.5t22.5 -5.5q11 0 18 9t7 24h86z" />
    <glyph glyph-name="wacute" unicode="&#x1e83;" horiz-adv-x="699" 
d="M470 206l71 244h151l-145 -450h-133l-65 228l-64 -228h-133l-145 450h156l72 -244l67 244h101zM272 500l82 150h149l-87 -150h-144z" />
    <glyph glyph-name="wcircumflex" unicode="&#x175;" horiz-adv-x="699" 
d="M470 206l71 244h151l-145 -450h-133l-65 228l-64 -228h-133l-145 450h156l72 -244l67 244h101zM505 498h-117l-39 55l-40 -55h-116l96 151h120z" />
    <glyph glyph-name="wgrave" unicode="&#x1e81;" horiz-adv-x="699" 
d="M470 206l71 244h151l-145 -450h-133l-65 228l-64 -228h-133l-145 450h156l72 -244l67 244h101zM280 500l-87 150h149l82 -150h-144z" />
    <glyph glyph-name="wdieresis" unicode="&#x1e85;" horiz-adv-x="699" 
d="M470 206l71 244h151l-145 -450h-133l-65 228l-64 -228h-133l-145 450h156l72 -244l67 244h101zM184 567q0 32 22.5 54.5t54.5 22.5q16 0 30 -6t24.5 -16.5t16.5 -24.5t6 -30q0 -32 -23 -54t-54 -22q-32 0 -54.5 22t-22.5 54zM361 567q0 32 22.5 54.5t53.5 22.5
q16 0 30 -6t24.5 -16.5t17 -24.5t6.5 -30q0 -32 -23 -54t-55 -22q-31 0 -53.5 22t-22.5 54z" />
    <glyph glyph-name="ycircumflex" unicode="&#x177;" horiz-adv-x="503" 
d="M110 -159l66 170l-169 439h163l87 -256l83 256h156l-232 -609h-154zM413 498h-117l-39 55l-40 -55h-116l96 151h120z" />
    <glyph glyph-name="ygrave" unicode="&#x1ef3;" horiz-adv-x="503" 
d="M110 -159l66 170l-169 439h163l87 -256l83 256h156l-232 -609h-154zM188 500l-87 150h149l82 -150h-144z" />
    <glyph glyph-name="zacute" unicode="&#x17a;" horiz-adv-x="456" 
d="M424 0h-393v103l198 224h-192v123h384v-103l-190 -224h193v-123zM162 500l82 150h149l-87 -150h-144z" />
    <glyph glyph-name="zdotaccent" unicode="&#x17c;" horiz-adv-x="456" 
d="M424 0h-393v103l198 224h-192v123h384v-103l-190 -224h193v-123zM328 579q0 -39 -26 -61.5t-63 -22.5q-36 0 -62.5 22.5t-26.5 61.5q0 40 26.5 62.5t62.5 22.5q37 0 63 -22.5t26 -62.5z" />
    <glyph glyph-name="dotbelow" horiz-adv-x="500" 
d="M336 -115q0 -38 -25.5 -60t-60.5 -22q-36 0 -61.5 22t-25.5 60q0 39 25.5 60.5t61.5 21.5q35 0 60.5 -21.5t25.5 -60.5z" />
    <glyph glyph-name="cedilla.alt" horiz-adv-x="500" 
d="M141 -181l68 141h136l-71 -141h-133z" />
    <glyph glyph-name="exclamdown.cap" horiz-adv-x="239" 
d="M59 408h121l35 -408h-191zM26 532q0 19 7.5 35.5t20 28t29.5 18.5t36 7q20 0 37 -7t29.5 -18.5t20 -28t7.5 -35.5q0 -18 -7.5 -34.5t-20 -28.5t-29.5 -18.5t-37 -6.5q-19 0 -36 6.5t-29.5 18.5t-20 28.5t-7.5 34.5z" />
    <glyph glyph-name="questiondown.cap" horiz-adv-x="476" 
d="M321 532q0 -19 -7.5 -35t-20 -28t-29.5 -19t-36 -7q-41 0 -68 25t-27 64q0 38 27 63.5t68 25.5q19 0 36 -7t29.5 -19t20 -28t7.5 -35zM20 174q0 28 9.5 51.5t23.5 44.5t31.5 40.5t33.5 38.5q17 21 22.5 34t6.5 25h156q-1 -14 -3.5 -25.5t-8 -24t-15 -26t-23.5 -30.5
t-26.5 -31t-22 -27t-15.5 -26.5t-6 -27.5q0 -25 15.5 -40.5t40.5 -15.5q29 0 43.5 18t16.5 42h163q-5 -43 -22 -80t-46 -64.5t-69 -43.5t-92 -16q-48 0 -87.5 12.5t-67.5 36.5t-43 58t-15 77z" />
    <glyph glyph-name="guilsinglleft.cap" horiz-adv-x="278" 
d="M117 138l-92 164l92 164h136l-92 -164l92 -164h-136z" />
    <glyph glyph-name="guilsinglright.cap" horiz-adv-x="278" 
d="M25 138l92 164l-92 164h136l92 -164l-92 -164h-136z" />
    <glyph glyph-name="guillemotleft.cap" horiz-adv-x="451" 
d="M298 138l-92 164l92 164h128l-92 -164l92 -164h-128zM117 138l-92 164l92 164h128l-92 -164l92 -164h-128z" />
    <glyph glyph-name="guillemotright.cap" horiz-adv-x="451" 
d="M25 138l92 164l-92 164h128l92 -164l-92 -164h-128zM206 138l92 164l-92 164h128l92 -164l-92 -164h-128z" />
    <glyph glyph-name="slash.cap" horiz-adv-x="394" 
d="M253 670h136l-248 -734h-136z" />
    <glyph glyph-name="backslash.cap" horiz-adv-x="394" 
d="M389 -64h-136l-248 734h136z" />
    <glyph glyph-name="bar.cap" horiz-adv-x="223" 
d="M46 670h131v-734h-131v734z" />
    <glyph glyph-name="periodcentered.cap" horiz-adv-x="233" 
d="M24 295q0 40 26.5 66.5t65.5 26.5q19 0 36.5 -7t29.5 -19.5t19.5 -29.5t7.5 -37t-7.5 -37t-19.5 -29.5t-29.5 -20t-36.5 -7.5t-36 7.5t-29 20t-19.5 29.5t-7.5 37z" />
    <glyph glyph-name="bullet.cap" horiz-adv-x="380" 
d="M356 295q0 -36 -13 -66.5t-35.5 -52t-52.5 -33.5t-64 -12q-35 0 -65.5 12t-53 33.5t-35.5 52t-13 66.5q0 37 13 67.5t35.5 53t53 34.5t65.5 12q34 0 64 -12t52.5 -34.5t35.5 -53t13 -67.5z" />
    <glyph glyph-name="hyphen.cap" horiz-adv-x="313" 
d="M36 361h241v-131h-241v131z" />
    <glyph glyph-name="endash.cap" horiz-adv-x="467" 
d="M36 348h395v-106h-395v106z" />
    <glyph glyph-name="emdash.cap" horiz-adv-x="838" 
d="M36 348h766v-106h-766v106z" />
    <glyph glyph-name="parenleft.cap" horiz-adv-x="334" 
d="M30 303q0 71 20 131.5t56.5 108t89 80t118.5 47.5v-147q-31 -11 -56.5 -29.5t-44.5 -45.5t-29.5 -63t-10.5 -82t10.5 -82t29.5 -63t44.5 -45.5t56.5 -29.5v-147q-66 15 -118.5 47.5t-89 80t-56.5 108t-20 131.5z" />
    <glyph glyph-name="parenright.cap" horiz-adv-x="334" 
d="M304 303q0 -71 -20 -131.5t-56.5 -108t-89.5 -80t-118 -47.5v147q31 11 56.5 29.5t44.5 45.5t29.5 63t10.5 82t-10.5 82t-29.5 63t-44.5 45.5t-56.5 29.5v147q65 -15 118 -47.5t89.5 -80t56.5 -108t20 -131.5z" />
    <glyph glyph-name="bracketleft.cap" horiz-adv-x="332" 
d="M193 66h119v-130h-266v734h266v-130h-119v-474z" />
    <glyph glyph-name="bracketright.cap" horiz-adv-x="332" 
d="M139 540h-119v130h266v-734h-266v130h119v474z" />
    <glyph glyph-name="braceleft.cap" horiz-adv-x="366" 
d="M236 95q0 -29 29 -29h81v-130h-124q-57 0 -93 36t-36 94v143q0 29 -29 29h-44v130h44q29 0 29 29v143q0 58 36 94t93 36h124v-130h-81q-29 0 -29 -29v-125q0 -32 -13.5 -51.5t-33.5 -31.5q20 -12 33.5 -31.5t13.5 -51.5v-125z" />
    <glyph glyph-name="braceright.cap" horiz-adv-x="366" 
d="M131 220q0 32 13.5 51.5t33.5 31.5q-20 12 -33.5 31.5t-13.5 51.5v125q0 29 -29 29h-82v130h125q57 0 93 -36t36 -94v-143q0 -29 29 -29h43v-130h-43q-29 0 -29 -29v-143q0 -58 -36 -94t-93 -36h-125v130h82q29 0 29 29v125z" />
    <glyph glyph-name="at.cap" horiz-adv-x="759" 
d="M538 240q-4 -21 2.5 -31t23.5 -10q22 0 39.5 11t30.5 32.5t20 52.5t7 71q0 53 -20 94t-54.5 69.5t-81.5 43.5t-102 15q-66 0 -121.5 -22.5t-95 -62.5t-61.5 -96.5t-22 -124.5q0 -78 28.5 -130.5t72 -83t97 -43.5t103.5 -13q70 0 123 13.5t101 34.5v-75q-38 -19 -96.5 -33
t-127.5 -14q-74 0 -143 20t-122.5 62t-86 107t-32.5 155q0 79 27.5 148t78 121t121 82t156.5 30q75 0 137 -22.5t106 -62.5t68.5 -94.5t24.5 -117.5q0 -62 -16.5 -107.5t-45 -76.5t-66.5 -46t-81 -15q-35 0 -66 12.5t-49 37.5q-17 -24 -44.5 -36t-55.5 -12q-33 0 -58.5 12
t-43 32.5t-26.5 48.5t-9 61q0 42 13.5 81t38 68.5t58.5 47t76 17.5q28 0 51.5 -10.5t33.5 -25.5l6 28h125zM430 351q-4 13 -17 22t-31 9q-16 0 -29.5 -7.5t-23 -20t-15.5 -30t-6 -36.5q0 -25 12.5 -40.5t38.5 -15.5q20 0 33.5 10t22.5 23z" />
    <glyph glyph-name="published" horiz-adv-x="704" 
d="M669 307q0 -69 -25 -127t-68 -100.5t-101 -66t-123 -23.5t-123 23.5t-101 66t-68 100.5t-25 127t25 127t68 100.5t101 66t123 23.5t123 -23.5t101 -66t68 -100.5t25 -127zM622 307q0 59 -21.5 108.5t-58 85.5t-86 56.5t-104.5 20.5q-56 0 -105 -20.5t-85.5 -56.5
t-58 -85.5t-21.5 -108.5t21.5 -108.5t58 -85.5t85.5 -56.5t105 -20.5q55 0 104.5 20.5t86 56.5t58 85.5t21.5 108.5zM327 230v-106h-106v369h170q61 0 99 -34t38 -97q0 -65 -38 -98.5t-99 -33.5h-64zM424 362q0 18 -10.5 29.5t-34.5 11.5h-52v-83h52q24 0 34.5 11.5
t10.5 30.5z" />
    <glyph glyph-name="Euro.lt" 
d="M24 286h35v21v23h-35v77h45q3 14 7 28q18 59 50 100.5t76 65t96 23.5q45 0 80.5 -15t61.5 -42t42.5 -64.5t23.5 -82.5h-136q-5 28 -22.5 46.5t-47.5 18.5q-23 0 -40 -13.5t-28 -37.5q-6 -12 -10 -27h115l-14 -77h-113v-24v-20h106l-14 -77h-81q4 -17 11 -31
q11 -23 28 -36.5t40 -13.5q30 0 47.5 18.5t22.5 45.5l136 2q-7 -45 -23.5 -82.5t-42.5 -64.5t-61.5 -42t-80.5 -15q-52 0 -96 23.5t-76 65t-50 99.5q-4 15 -8 31h-44v77z" />
    <glyph glyph-name="dollar.lt" 
d="M341 435q-9 23 -30 37.5t-54 14.5q-16 0 -29 -4t-21.5 -10.5t-13.5 -15.5t-5 -20q0 -10 3.5 -17.5t9.5 -13.5t15 -9.5t20 -6.5l109 -28q74 -18 113 -60t39 -112q0 -44 -17.5 -79t-47.5 -58.5t-72 -36.5q-14 -5 -29 -8v-94h-128v95q-56 11 -98 41q-66 47 -81 134h156
q10 -29 33.5 -43t57.5 -14q16 0 29 4t22.5 10.5t14.5 16.5t5 22q0 23 -14.5 34t-45.5 18l-98 24q-32 7 -59 19.5t-47 32.5t-31.5 48t-11.5 67q0 42 16.5 76.5t46 59t69.5 37.5q17 6 36 9v91h128v-95q9 -2 17 -4q40 -13 69 -35.5t47 -55t26 -71.5h-149z" />
    <glyph glyph-name="cent.lt" 
d="M42 235q0 52 16.5 95.5t46 74.5t71.5 48q14 5 29 9v96h128v-96q9 -2 18 -5q37 -13 63.5 -37t42 -57t20.5 -73h-151q-3 22 -17.5 36t-40.5 14q-16 0 -29.5 -7.5t-22.5 -21t-14 -33t-5 -43.5t5 -43.5t14 -32.5t22.5 -20.5t29.5 -7.5q26 0 40.5 13.5t17.5 35.5h151
q-5 -40 -20.5 -73t-42 -56.5t-63.5 -37.5l-18 -6v-92h-128v92q-15 4 -29 10q-42 18 -71.5 48.5t-46 74t-16.5 95.5z" />
    <glyph glyph-name="sterling.lt" 
d="M245 222q0 -26 -5 -51t-16 -40h263v-131h-456v131h44q10 17 15 37.5t5 53.5v22h-64v119h64v54q0 44 14 82t39.5 66t62.5 43.5t84 15.5q43 0 78 -13t60 -36.5t39.5 -57t16.5 -73.5h-141q-2 22 -13.5 36t-35.5 14q-28 0 -41 -20t-13 -52v-59h112v-119h-112v-22z" />
    <glyph glyph-name="yen.lt" 
d="M42 196h138v48h-138v92h95l-127 278h168l85 -203l84 203h162l-129 -278h95v-92h-138v-48h138v-92h-138v-104h-157v104h-138v92z" />
    <glyph glyph-name="florin.lt" 
d="M119 356h80l16 93q16 87 62 131t126 44q21 0 40 -3.5t33 -8.5v-128q-9 5 -19.5 7t-23.5 2q-25 0 -40 -13.5t-19 -39.5l-15 -84h78v-122h-100l-39 -221q-7 -41 -19.5 -73.5t-33.5 -55.5t-51.5 -35t-73.5 -12q-23 0 -42.5 3.5t-33.5 8.5v114q9 -4 20.5 -6.5t21.5 -2.5
q24 0 35.5 13.5t16.5 40.5l39 226h-58v122z" />
    <glyph glyph-name="zero.lt" 
d="M260 -10q-57 0 -101.5 23t-75.5 65t-47 100.5t-16 128.5t16 128.5t47 100.5t75.5 65t101.5 23q56 0 100.5 -23t75.5 -65t47 -100.5t16 -128.5t-16 -128.5t-47 -100.5t-75.5 -65t-100.5 -23zM260 483q-24 0 -40.5 -14t-26 -38t-14 -56.5t-4.5 -67.5t4.5 -67.5t14 -56.5
t26 -38t40.5 -14q23 0 39.5 14t26 38t13.5 56.5t4 67.5t-4 67.5t-13.5 56.5t-26 38t-39.5 14z" />
    <glyph glyph-name="one.lt" 
d="M60 139h148v301l-143 -71v153l192 92h108v-475h125v-139h-430v139z" />
    <glyph glyph-name="two.lt" 
d="M315 423q0 25 -15.5 41t-41.5 16q-29 0 -44 -18t-17 -43h-166q4 43 22 80t46.5 65t68.5 44t89 16q50 0 91 -14t69.5 -38.5t44 -60t15.5 -78.5q0 -30 -9.5 -55.5t-25.5 -49t-37.5 -46t-44.5 -44.5l-101 -99h221v-139h-446v103l211 210q15 16 28.5 30.5t22.5 27.5t14 25.5
t5 26.5z" />
    <glyph glyph-name="three.lt" 
d="M213 368h35q16 0 30.5 4t25 11.5t16 19t5.5 27.5q0 26 -17 43t-47 17q-32 0 -50 -20t-21 -48h-153q4 41 22 78t47.5 64.5t70 43.5t91.5 16q48 0 87 -14t66.5 -38.5t42 -59.5t14.5 -76q0 -20 -5.5 -39.5t-14.5 -35.5t-21 -29.5t-26 -21.5q18 -9 32.5 -22.5t23.5 -30.5
t14 -36t5 -40q0 -41 -15 -76t-43.5 -60.5t-69.5 -40t-92 -14.5q-54 0 -96.5 15t-73 42t-48 65.5t-20.5 84.5h161q3 -31 21 -51.5t54 -20.5q29 0 48.5 18t19.5 46q0 15 -5.5 27.5t-16.5 20.5t-26 12t-32 4h-39v115z" />
    <glyph glyph-name="four.lt" 
d="M183 244h97v104h141v-104h80v-130h-80v-114h-138v114h-267v118l186 382h150z" />
    <glyph glyph-name="five.lt" 
d="M266 278q-22 0 -41 -9t-32 -22h-134v367h385v-137h-254v-92q14 8 39.5 15t52.5 7q48 0 86.5 -15t65.5 -42t41 -64.5t14 -83.5q0 -47 -16 -86.5t-45 -67.5t-70.5 -43t-91.5 -15q-53 0 -95.5 15t-72.5 42t-48 65.5t-21 84.5h160q3 -30 24 -50.5t55 -20.5q16 0 29 5.5
t22.5 16t15 24t5.5 30.5q0 16 -5 29.5t-14.5 24.5t-23.5 16.5t-31 5.5z" />
    <glyph glyph-name="six.lt" 
d="M339 446q-7 21 -22 34t-42 13q-22 0 -41 -11t-36 -40t-19 -83q26 33 76 42q18 4 38 4q47 0 84.5 -16t64 -42.5t40.5 -63t14 -77.5q0 -46 -16 -85.5t-45.5 -68.5t-71.5 -45.5t-95 -16.5q-60 0 -108.5 26t-79.5 76q-28 41 -39.5 90.5t-11.5 110.5q0 72 16.5 132.5t47.5 105
t77 69t104 24.5q92 0 147 -48t70 -130h-152zM185 202q0 -19 6.5 -34t17.5 -26t26.5 -17t33.5 -6t33 6t26.5 17t17.5 26t6 34q0 18 -6 34t-18 27q-7 7 -16 11q-8 5 -19 9q-12 3 -24 3q-18 0 -33.5 -6t-26.5 -17t-17.5 -26.5t-6.5 -34.5z" />
    <glyph glyph-name="seven.lt" 
d="M294 0h-161l182 476h-281v138h451v-108z" />
    <glyph glyph-name="eight.lt" 
d="M260 114q17 0 31.5 4.5t25 14t16.5 21.5t6 28t-6 28.5t-16.5 21t-25 13.5t-31.5 5q-16 0 -30.5 -5t-25 -13.5t-16.5 -21t-6 -28.5t6 -28t16.5 -21.5t25 -14t30.5 -4.5zM260 378q15 0 28 4t22.5 12.5t15 20t5.5 25.5q0 15 -5.5 26.5t-15 20t-22.5 13t-28 4.5
q-14 0 -27 -4.5t-22 -13t-14.5 -20t-5.5 -26.5q0 -14 5.5 -25.5t14.5 -20t22 -12.5t27 -4zM260 -10q-48 0 -90.5 12t-74 35.5t-49.5 56.5t-18 76q0 27 8 49.5t21 41t31 31t39 20.5q-37 18 -58 53t-21 80q0 43 17 76.5t46.5 56.5t68 34.5t80.5 11.5q43 0 81.5 -11.5
t67.5 -34.5t46.5 -56.5t17.5 -76.5q0 -45 -21 -80t-58 -53q20 -8 38.5 -20.5t31.5 -31t21 -41t8 -49.5q0 -43 -18 -76t-49.5 -56.5t-74 -35.5t-91.5 -12z" />
    <glyph glyph-name="nine.lt" 
d="M181 168q7 -21 22 -34t42 -13q22 0 41.5 12t35.5 40.5t19 81.5q-25 -32 -77 -43q-17 -3 -37 -3q-47 0 -84.5 16t-64 42.5t-40.5 63t-14 77.5q0 46 16 85.5t45.5 68.5t71.5 45.5t95 16.5q60 0 108.5 -26t79.5 -76q28 -41 39.5 -90.5t11.5 -110.5q0 -72 -16.5 -132.5
t-48 -105t-77 -69t-103.5 -24.5q-92 0 -147 48t-70 130h152zM334 412q0 18 -6 33.5t-17 26.5t-26.5 17t-33.5 6q-19 0 -34 -6t-26 -17t-17 -26.5t-6 -33.5t6 -34t17 -27q7 -8 17 -13q-4 5 2 1t15 -8q12 -3 26 -3q18 0 33.5 6t26.5 17t17 26.5t6 34.5z" />
    <glyph glyph-name="period.tab" horiz-adv-x="260" 
d="M37 87q0 40 26.5 66.5t65.5 26.5q19 0 36.5 -7t29.5 -19.5t19.5 -29.5t7.5 -37t-7.5 -37t-19.5 -29.5t-29.5 -20t-36.5 -7.5t-36 7.5t-29 20t-19.5 29.5t-7.5 37z" />
    <glyph glyph-name="comma.tab" horiz-adv-x="260" 
d="M105 10q-28 5 -48 26t-20 56q0 38 26.5 63t66.5 25q37 0 64.5 -25t27.5 -73q0 -28 -11 -54t-27 -50l-55 -83h-99z" />
    <glyph glyph-name="colon.tab" horiz-adv-x="260" 
d="M37 352q0 40 26.5 67t65.5 27q19 0 36.5 -7.5t29.5 -20t19.5 -29.5t7.5 -37t-7.5 -37t-19.5 -29.5t-29.5 -20t-36.5 -7.5t-36 7.5t-29 20t-19.5 29.5t-7.5 37zM37 87q0 40 26.5 66.5t65.5 26.5q19 0 36.5 -7t29.5 -19.5t19.5 -29.5t7.5 -37t-7.5 -37t-19.5 -29.5
t-29.5 -20t-36.5 -7.5t-36 7.5t-29 20t-19.5 29.5t-7.5 37z" />
    <glyph glyph-name="semicolon.tab" horiz-adv-x="260" 
d="M105 10q-28 5 -48 26t-20 56q0 38 26.5 63t66.5 25q37 0 64.5 -25t27.5 -73q0 -28 -11 -54t-27 -50l-55 -83h-99zM37 352q0 40 26.5 67t65.5 27q19 0 36.5 -7.5t29.5 -20t19.5 -29.5t7.5 -37t-7.5 -37t-19.5 -29.5t-29.5 -20t-36.5 -7.5t-36 7.5t-29 20t-19.5 29.5
t-7.5 37z" />
    <glyph glyph-name="space.tab" horiz-adv-x="260" 
 />
    <glyph glyph-name="uni2153" unicode="&#x2153;" horiz-adv-x="731" 
d="M182 0h-92l420 614h92zM536 213h23q15 0 25.5 7t10.5 22q0 11 -7.5 18.5t-20.5 7.5t-21.5 -9.5t-10.5 -22.5h-103q3 24 12.5 45.5t26 38t40 26t53.5 9.5q62 0 96 -30.5t34 -81.5q0 -20 -10 -39.5t-25 -28.5q19 -9 28.5 -27.5t9.5 -38.5q0 -52 -34.5 -83.5t-97.5 -31.5
q-61 0 -97 33.5t-39 88.5h109q1 -14 8.5 -22.5t21.5 -8.5t21.5 7t7.5 20q0 14 -9.5 20.5t-24.5 6.5h-27v74zM215 264h-104v233l-86 -42v105l115 54h75v-350z" />
    <glyph glyph-name="uni2154" unicode="&#x2154;" horiz-adv-x="800" 
d="M251 0h-93l420 614h93zM199 503q0 11 -7 18.5t-19 7.5q-13 0 -20.5 -8.5t-7.5 -19.5h-110q3 25 13 46.5t27.5 38t41.5 26t54 9.5q60 0 96 -31t36 -81q0 -35 -19.5 -59.5t-44.5 -48.5l-51 -46h114v-89h-264v68l128 119q15 15 24 26t9 24zM604 212h24q16 0 26 7t10 23
q0 12 -7 20.5t-22 8.5t-23.5 -11t-10.5 -24h-101q3 24 12.5 45.5t26 38t40 26t53.5 9.5q62 0 96 -30.5t34 -81.5q0 -20 -10 -39.5t-25 -28.5q19 -9 29 -27.5t10 -38.5q0 -52 -35 -83.5t-98 -31.5q-61 0 -97 33.5t-39 88.5h106q2 -15 10 -25t24 -10q14 0 22.5 8.5t8.5 22.5
q0 15 -10 21.5t-26 6.5h-28v72z" />
    <glyph glyph-name="uni215B" unicode="&#x215b;" horiz-adv-x="741" 
d="M182 0h-92l420 614h92zM562 75q17 0 27 8.5t10 22.5t-10 23t-27 9q-16 0 -26.5 -9t-10.5 -23t10.5 -22.5t26.5 -8.5zM562 218q16 0 25 8.5t9 21.5q0 14 -9 22t-25 8q-15 0 -24.5 -8t-9.5 -22q0 -13 9.5 -21.5t24.5 -8.5zM562 -5q-28 0 -53 6.5t-44 20t-30 32.5t-11 43
q0 30 15 50t38 29q-20 11 -30.5 31t-10.5 43q0 26 10 45.5t27.5 33t40.5 20.5t48 7t48 -7t40.5 -20.5t27.5 -33t10 -45.5q0 -23 -10 -43t-31 -31q23 -9 38 -29t15 -50q0 -24 -11 -43t-29.5 -32.5t-43.5 -20t-54 -6.5zM215 264h-104v233l-86 -42v105l115 54h75v-350z" />
    <glyph glyph-name="uni215C" unicode="&#x215c;" horiz-adv-x="770" 
d="M592 75q16 0 26 8.5t10 22.5t-10 23t-26 9t-27 -9t-11 -23t11 -22.5t27 -8.5zM592 218q15 0 24 8.5t9 21.5q0 14 -9 22t-24 8t-25 -8t-10 -22q0 -13 10 -21.5t25 -8.5zM592 -5q-29 0 -54 6.5t-44 20t-30 32.5t-11 43q0 30 15 50t38 29q-20 11 -30.5 31t-10.5 43
q0 26 10.5 45.5t28 33t40 20.5t48.5 7q24 0 47 -7t40.5 -20.5t28 -33t10.5 -45.5q0 -23 -10.5 -43t-30.5 -31q23 -9 37.5 -29t14.5 -50q0 -24 -10.5 -43t-29.5 -32.5t-44 -20t-53 -6.5zM212 0h-93l420 614h93zM135 476h24q16 0 26.5 7t10.5 23q0 12 -7.5 20.5t-22.5 8.5
t-23.5 -11t-10.5 -24h-101q3 24 12.5 45.5t26.5 37.5t40.5 26t52.5 10q62 0 96 -30.5t34 -81.5q0 -20 -10 -39.5t-24 -28.5q18 -9 28 -27.5t10 -38.5q0 -52 -35 -83.5t-98 -31.5q-61 0 -97 33.5t-39 88.5h106q2 -15 10 -25t24 -10q14 0 22.5 8t8.5 22q0 16 -10 22.5t-26 6.5
h-28v72z" />
    <glyph glyph-name="uni215D" unicode="&#x215d;" horiz-adv-x="778" 
d="M599 75q16 0 26 8.5t10 22.5t-10 23t-26 9t-26.5 -9t-10.5 -23t10.5 -22.5t26.5 -8.5zM599 218q15 0 24.5 8.5t9.5 21.5q0 14 -9.5 22t-24.5 8t-24.5 -8t-9.5 -22q0 -13 9.5 -21.5t24.5 -8.5zM599 -5q-28 0 -53 6.5t-44 20t-30 32.5t-11 43q0 30 14.5 50t37.5 29
q-20 11 -30 31t-10 43q0 26 10 45.5t27.5 33t40.5 20.5t48 7t48 -7t40 -20.5t27.5 -33t10.5 -45.5q0 -23 -10 -43t-31 -31q23 -9 38 -29t15 -50q0 -24 -11 -43t-29.5 -32.5t-43.5 -20t-54 -6.5zM219 0h-92l420 614h92zM168 415q-11 0 -18.5 -3.5t-15.5 -9.5h-88v212h228v-85
h-142v-45q8 5 22.5 8t26.5 3q57 0 88.5 -31.5t31.5 -83.5q0 -55 -35.5 -88.5t-95.5 -33.5q-63 0 -99.5 30.5t-40.5 85.5h105q2 -12 11 -20.5t23 -8.5q15 0 24.5 9.5t9.5 25.5q0 14 -9 24.5t-26 10.5z" />
    <glyph glyph-name="uni215E" unicode="&#x215e;" horiz-adv-x="716" 
d="M538 75q16 0 26 8.5t10 22.5t-10 23t-26 9q-17 0 -27.5 -9t-10.5 -23t10.5 -22.5t27.5 -8.5zM538 218q15 0 24 8.5t9 21.5q0 14 -9 22t-24 8q-16 0 -25.5 -8t-9.5 -22q0 -13 9.5 -21.5t25.5 -8.5zM538 -5q-29 0 -54 6.5t-44 20t-30 32.5t-11 43q0 30 15 50t38 29
q-20 11 -30.5 31t-10.5 43q0 26 10 45.5t28 33t40.5 20.5t48.5 7q24 0 47 -7t40.5 -20.5t28 -33t10.5 -45.5q0 -23 -10.5 -43t-31.5 -31q23 -9 38 -29t15 -50q0 -24 -11 -43t-29.5 -32.5t-43.5 -20t-53 -6.5zM158 0h-93l420 614h93zM171 264h-109l105 260h-138v90h253v-70z
" />
    <glyph glyph-name="percent.lt" 
d="M19 500q0 26 9.5 48.5t26.5 39t39 26.5t47 10q26 0 48.5 -10t39.5 -26.5t26.5 -39t9.5 -48.5t-9.5 -48t-26.5 -38.5t-39.5 -26t-48.5 -9.5q-25 0 -47 9.5t-39 26t-26.5 38.5t-9.5 48zM97 500q0 -9 3.5 -17.5t9.5 -14t14 -9t17 -3.5q10 0 18.5 3.5t14.5 9t9.5 14t3.5 17.5
q0 19 -13.5 32.5t-32.5 13.5q-9 0 -17 -3.5t-14 -10t-9.5 -14.5t-3.5 -18zM500 114q0 -26 -9.5 -48.5t-26 -39t-39 -26.5t-47.5 -10q-26 0 -48.5 10t-39 26.5t-26.5 39t-10 48.5q0 25 10 47.5t26.5 39t39 26t48.5 9.5q25 0 47.5 -9.5t39 -26t26 -39t9.5 -47.5zM422 114
q0 9 -3 17.5t-9 14t-14.5 9t-17.5 3.5t-17.5 -3.5t-15 -9t-10 -14t-3.5 -17.5q0 -19 13.5 -32.5t32.5 -13.5q9 0 17.5 3.5t14.5 10t9 14.5t3 18zM407 614h87l-381 -614h-88z" />
    <glyph glyph-name="perthousand.lt" horiz-adv-x="800" 
d="M433 614h88l-407 -614h-88zM111 500q0 -9 3.5 -17.5t9 -14t14 -9t17.5 -3.5q10 0 18 3.5t14.5 9t10 14t3.5 17.5q0 19 -13.5 32.5t-32.5 13.5q-9 0 -17.5 -3.5t-14 -10t-9 -14.5t-3.5 -18zM514 114q0 -26 -9.5 -48.5t-26.5 -39t-39 -26.5t-47 -10q-26 0 -48.5 10
t-39 26.5t-26.5 39t-10 48.5q0 25 10 47.5t26.5 39t39 26t48.5 9.5q25 0 47 -9.5t39 -26t26.5 -39t9.5 -47.5zM436 114q0 9 -3.5 17.5t-9.5 14t-14 9t-17 3.5q-10 0 -18 -3.5t-14.5 -9t-10 -14t-3.5 -17.5q0 -19 13.5 -32.5t32.5 -13.5q9 0 17 3.5t14 10t9.5 14.5t3.5 18z
M33 500q0 26 9.5 48.5t26 39t38.5 26.5t48 10t48.5 -10t39 -26.5t26.5 -39t10 -48.5t-10 -48t-26.5 -38.5t-39 -26t-48.5 -9.5t-48 9.5t-38.5 26t-26 38.5t-9.5 48zM779 114q0 -26 -9.5 -48.5t-26 -39t-39 -26.5t-47.5 -10q-26 0 -48.5 10t-39 26.5t-26.5 39t-10 48.5
q0 25 10 47.5t26.5 39t39 26t48.5 9.5q25 0 47.5 -9.5t39 -26t26 -39t9.5 -47.5zM701 114q0 9 -3.5 17.5t-9.5 14t-14 9t-17 3.5q-10 0 -18 -3.5t-14.5 -9t-10 -14t-3.5 -17.5q0 -19 13.5 -32.5t32.5 -13.5q9 0 17 3.5t14 10t9.5 14.5t3.5 18z" />
    <glyph glyph-name="plus.lt" 
d="M33 357h169v169h116v-169h168v-116h-168v-168h-116v168h-169v116z" />
    <glyph glyph-name="minus.lt" 
d="M33 357h453v-116h-453v116z" />
    <glyph glyph-name="multiply.lt" 
d="M58 418l82 82l120 -120l120 120l82 -82l-120 -120l120 -120l-82 -81l-120 120l-120 -120l-82 81l121 120z" />
    <glyph glyph-name="divide.lt" 
d="M33 357h453v-116h-453v116zM179 479q0 33 23.5 56t57.5 23t57.5 -23t23.5 -56t-23.5 -56t-57.5 -23t-57.5 23t-23.5 56zM179 119q0 33 23.5 56t57.5 23t57.5 -23t23.5 -56t-23.5 -56t-57.5 -23t-57.5 23t-23.5 56z" />
    <glyph glyph-name="equal.lt" 
d="M33 261h453v-103h-453v103zM33 445h453v-105h-453v105z" />
    <glyph glyph-name="less.lt" 
d="M87 369l345 153v-129l-236 -96l236 -95v-130l-345 153v144z" />
    <glyph glyph-name="greater.lt" 
d="M433 225l-346 -153v130l236 95l-236 96v129l346 -153v-144z" />
    <glyph glyph-name="plusminus.lt" 
d="M42 434h165v127h105v-127h166v-105h-166v-128h-105v128h-165v105zM42 153h436v-105h-436v105z" />
    <glyph glyph-name="lessequal.lt" 
d="M87 437l346 122v-123l-234 -68l234 -69v-122l-346 121v139zM87 154h346v-112h-346v112z" />
    <glyph glyph-name="greaterequal.lt" 
d="M433 298l-346 -121v122l233 69l-233 68v123l346 -122v-139zM433 42h-346v112h346v-112z" />
    <glyph glyph-name="notequal.lt" 
d="M33 261h152l51 79h-203v104h269l60 93h96l-60 -93h88v-104h-154l-51 -79h205v-103h-271l-59 -93h-96l59 93h-86v103z" />
    <glyph glyph-name="approxequal.lt" 
d="M63 245q29 22 55 31.5t51 9.5t47 -6.5t43 -14t42.5 -14.5t46.5 -7q24 0 51.5 10t56.5 33v-60q-29 -23 -56.5 -32t-51.5 -9q-25 0 -47 6t-43 14t-43 14.5t-46 6.5q-25 0 -51 -10t-55 -32v60zM63 369q29 22 55 31.5t51 9.5t47 -6.5t43 -14.5t42.5 -14.5t46.5 -6.5
q24 0 51.5 10t56.5 33v-60q-29 -23 -56.5 -32.5t-51.5 -9.5q-25 0 -47 6.5t-43 14.5t-43 14.5t-46 6.5q-25 0 -51 -10.5t-55 -32.5v61z" />
    <glyph glyph-name="uni00AD" unicode="&#xad;" horiz-adv-x="321" 
d="M36 328h241v-132h-241v132z" />
    <glyph glyph-name="idotaccent" horiz-adv-x="241" 
d="M199 0h-157v450h157v-450zM210 579q0 -39 -26 -61.5t-63 -22.5q-36 0 -62.5 22.5t-26.5 61.5q0 40 26.5 62.5t62.5 22.5q37 0 63 -22.5t26 -62.5z" />
    </font>
</defs>
</svg>
